<?xml version="1.0" encoding="utf-8"?>
<!-- Generator: Adobe Illustrator 17.1.0, SVG Export Plug-In . SVG Version: 6.00 Build 0)  -->
<!DOCTYPE svg PUBLIC "-//W3C//DTD SVG 1.1//EN" "http://www.w3.org/Graphics/SVG/1.1/DTD/svg11.dtd">
<svg version="1.1" id="Layer_1" xmlns="http://www.w3.org/2000/svg" xmlns:xlink="http://www.w3.org/1999/xlink" x="0px" y="0px"
	 width="87px" height="62.167px" viewBox="0 0 87 62.167" enable-background="new 0 0 87 62.167" xml:space="preserve">
<path fill="#FFFFFF" d="M83.48,22.897c0-10.668-9.001-19.27-20.003-19.27c-1,0-2.067,0.067-3.067,0.2
	c-8.601,1.2-14.336,7.401-17.536,12.135c-3.201-4.734-8.935-10.935-17.536-12.135c-1-0.133-2.067-0.2-3.067-0.2
	c-11.068,0-20.003,8.668-20.003,19.27c0,10.668,9.001,19.336,20.003,19.336c1,0,2.067-0.067,3.067-0.2
	c8.601-1.2,14.335-7.401,17.536-12.135c3.201,4.734,8.935,10.935,17.536,12.135c1,0.133,2.067,0.2,3.067,0.2
	C74.546,42.167,83.48,33.565,83.48,22.897z M24.404,35.232c-0.733,0.133-1.4,0.133-2.134,0.133c-7.268,0-13.202-5.601-13.202-12.469
	c0-6.868,5.934-12.469,13.202-12.469c0.667,0,1.4,0.067,2.134,0.133c8.068,1.134,13.002,9.135,14.669,12.335
	C37.406,26.097,32.472,34.032,24.404,35.232z M46.675,22.897c1.667-3.201,6.601-11.135,14.669-12.335
	c0.733-0.067,1.4-0.133,2.134-0.133c7.268,0,13.202,5.601,13.202,12.469c0,6.868-5.934,12.469-13.135,12.469
	c-0.667,0-1.4-0.067-2.134-0.133C53.276,34.032,48.341,26.097,46.675,22.897z"/>
<rect x="16.737" y="21.03" fill="#FFFFFF" width="12.002" height="3.867"/>
<polygon fill="#FFFFFF" points="64.811,24.897 68.878,24.897 68.878,21.03 64.811,21.03 64.811,16.963 60.943,16.963 60.943,21.03 
	56.876,21.03 56.876,24.897 60.943,24.897 60.943,28.964 64.811,28.964 "/>
<path fill="#FFFFFF" d="M7.935,47.967L4.468,59.103h2.8l0.6-2.267h3.201l0.6,2.267h2.934l-3.534-11.202H7.935V47.967z M8.402,54.702
	l1-4.067l1.134,4.067H8.402z"/>
<path fill="#FFFFFF" d="M25.138,51.701c0-2.134-1.134-3.734-4.267-3.734h-4.534v11.202h2.8v-3.534h1.4l1.667,3.534h3.267l-2.2-4.067
	C24.538,54.368,25.138,53.168,25.138,51.701z M20.604,53.368h-1.467v-3.134h1.4c1.267,0,1.667,0.533,1.667,1.467
	C22.204,52.902,21.604,53.368,20.604,53.368z"/>
<path fill="#FFFFFF" d="M31.072,47.967h-3.667v11.202h3.667c4.734,0,5.534-3.067,5.534-5.667
	C36.606,49.901,35.206,47.967,31.072,47.967z M31.205,56.835h-1.067v-6.601h0.8c2.467,0,2.667,1.2,2.667,3.334
	C33.673,55.435,33.472,56.835,31.205,56.835z"/>
<path fill="#FFFFFF" d="M44.808,54.769c0,1.734-0.467,2.267-1.734,2.267c-1.067,0-1.734-0.4-1.734-2.267v-6.801h-2.8v7.334
	c0,3.401,2.467,4.001,4.334,4.001c2,0,4.467-0.734,4.467-4.001v-7.334h-2.667v6.801H44.808z"/>
<polygon fill="#FFFFFF" points="49.942,50.234 52.809,50.234 52.809,56.835 49.942,56.835 49.942,59.103 58.543,59.103 
	58.543,56.835 55.609,56.835 55.609,50.234 58.543,50.234 58.543,47.967 49.942,47.967 "/>
<polygon fill="#FFFFFF" points="67.411,54.635 63.811,47.967 60.81,47.967 60.81,59.103 63.41,59.103 63.41,51.968 67.211,59.103 
	70.012,59.103 70.012,47.967 67.411,47.967 "/>
<path fill="#FFFFFF" d="M76.546,47.767c-3.4,0-4.667,2.467-4.667,5.867c0,3.734,1.467,5.668,4.667,5.668
	c3.601,0,4.801-2.534,4.801-5.801C81.347,49.234,79.68,47.767,76.546,47.767z M76.546,57.036c-1.6,0-1.734-1.133-1.734-3.401
	c0-2.734,0.267-3.6,1.734-3.6c1.6,0,1.867,0.733,1.867,3.467C78.413,56.102,78.146,57.036,76.546,57.036z"/>
<path fill="#FFFFFF" d="M84.947,4.361c-0.133-0.333-0.333-0.667-0.6-0.867c-0.267-0.267-0.533-0.467-0.867-0.6
	c-0.333-0.133-0.733-0.2-1.067-0.2c-0.4,0-0.734,0.067-1.067,0.2c-0.333,0.133-0.6,0.333-0.867,0.6
	c-0.267,0.267-0.467,0.533-0.6,0.867c-0.133,0.333-0.2,0.734-0.2,1.134c0,0.4,0.067,0.733,0.2,1.133
	c0.133,0.333,0.333,0.667,0.6,0.934c0.267,0.267,0.534,0.467,0.867,0.6c0.333,0.133,0.733,0.2,1.067,0.2
	c0.4,0,0.733-0.067,1.067-0.2c0.333-0.133,0.6-0.333,0.867-0.6c0.267-0.267,0.467-0.533,0.6-0.934c0.133-0.333,0.2-0.733,0.2-1.133
	C85.147,5.094,85.081,4.694,84.947,4.361z M84.347,6.361c-0.133,0.267-0.267,0.467-0.467,0.667c-0.2,0.2-0.4,0.333-0.667,0.467
	c-0.267,0.133-0.533,0.2-0.8,0.2c-0.267,0-0.6-0.067-0.8-0.2c-0.267-0.133-0.467-0.267-0.667-0.467c-0.2-0.2-0.333-0.4-0.467-0.667
	c-0.133-0.267-0.2-0.533-0.2-0.867c0-0.333,0.067-0.6,0.2-0.867c0.133-0.267,0.267-0.533,0.467-0.733c0.2-0.2,0.4-0.333,0.667-0.467
	c0.267-0.133,0.533-0.2,0.8-0.2c0.267,0,0.533,0.067,0.8,0.2c0.267,0.133,0.467,0.267,0.667,0.467c0.2,0.2,0.333,0.4,0.467,0.733
	c0.133,0.267,0.2,0.533,0.2,0.867C84.48,5.761,84.414,6.094,84.347,6.361z"/>
<path fill="#FFFFFF" d="M82.947,5.761c0.133-0.067,0.267-0.2,0.333-0.333c0.067-0.133,0.133-0.267,0.133-0.467
	c0-0.267-0.067-0.467-0.267-0.667c-0.2-0.2-0.533-0.267-0.934-0.267c-0.2,0-0.333,0-0.467,0c-0.133,0-0.267,0-0.4,0v2.8h0.733V5.894
	h0.267l0.467,0.933h0.8L82.947,5.761z M82.28,5.361c-0.067,0-0.133,0-0.2,0V4.627c0.067,0,0.133,0,0.2,0
	c0.333,0,0.467,0.133,0.467,0.4C82.747,5.227,82.613,5.361,82.28,5.361z"/>
</svg>
