<?xml version="1.0" encoding="utf-8"?>
<!-- Generator: Adobe Illustrator 17.1.0, SVG Export Plug-In . SVG Version: 6.00 Build 0)  -->
<!DOCTYPE svg PUBLIC "-//W3C//DTD SVG 1.1//EN" "http://www.w3.org/Graphics/SVG/1.1/DTD/svg11.dtd">
<svg version="1.1" id="Layer_1" xmlns="http://www.w3.org/2000/svg" xmlns:xlink="http://www.w3.org/1999/xlink" x="0px" y="0px"
	 width="78.001px" height="72.757px" viewBox="0 0 78.001 72.757" enable-background="new 0 0 78.001 72.757" xml:space="preserve">
<g>
	<g>
		<rect x="59.1" y="4.21" fill="#00979D" width="4.38" height="9.819"/>
	</g>
	<g>
		<rect x="36.861" y="4.217" fill="#00979D" width="4.38" height="9.385"/>
	</g>
	<g>
		<rect x="14.624" y="4.217" fill="#00979D" width="4.38" height="9.812"/>
	</g>
	<g>
		<rect x="59.1" y="57.459" fill="#00979D" width="4.38" height="11.089"/>
	</g>
	<g>
		<rect x="36.861" y="57.467" fill="#00979D" width="4.38" height="10.598"/>
	</g>
	<g>
		<rect x="14.624" y="57.467" fill="#00979D" width="4.38" height="11.08"/>
	</g>
	<rect x="9.074" y="10.809" fill="#80CACD" width="59.854" height="50.988"/>
	<rect x="47.937" y="23.279" fill="#008184" width="20.074" height="24.934"/>
	<path fill="#0DA1A6" d="M68.01,60.91v-13.32c-5.061-1.002-8.913-5.626-8.913-11.209c0-5.584,3.828-10.235,8.913-11.236v-13.32
		H10.09V60.91H68.01z"/>
	<path fill="#80CACD" d="M57.957,25.434c-2.534,0-4.585-2.051-4.585-4.582s2.051-4.582,4.585-4.582c2.528,0,4.579,2.051,4.579,4.582
		S60.485,25.434,57.957,25.434z"/>
	<polyline opacity="0.5" fill="#008184" points="68.551,61.383 9.564,61.383 9.564,18.473 	"/>
</g>
</svg>
