<?xml version="1.0" encoding="utf-8"?>
<!-- Generator: Adobe Illustrator 17.1.0, SVG Export Plug-In . SVG Version: 6.00 Build 0)  -->
<!DOCTYPE svg PUBLIC "-//W3C//DTD SVG 1.1//EN" "http://www.w3.org/Graphics/SVG/1.1/DTD/svg11.dtd">
<svg version="1.1" id="Layer_1" xmlns="http://www.w3.org/2000/svg" xmlns:xlink="http://www.w3.org/1999/xlink" x="0px" y="0px"
	 width="90.633px" height="77.26px" viewBox="0 0 90.633 77.26" enable-background="new 0 0 90.633 77.26" xml:space="preserve">
<g>
	<path fill="#008184" stroke="#80CBCD" stroke-width="0.9317" stroke-miterlimit="10" d="M80.026,27.92H44.545
		c-2.638,0-4.776,2.138-4.776,4.776v24.295c0,2.638,2.138,4.776,4.776,4.776h19.948l10.073,10.073V61.768h5.459
		c2.638,0,4.776-2.138,4.776-4.776V32.696C84.802,30.059,82.664,27.92,80.026,27.92z"/>
	<path fill="#0DA1A6" stroke="#80CBCD" stroke-width="0.9317" stroke-miterlimit="10" d="M57.982,5.419h-45.74
		c-3.541,0-6.411,2.87-6.411,6.411v31.194c0,3.541,2.87,6.411,6.411,6.411h6.701v13.676l13.911-13.676h25.128
		c3.541,0,6.411-2.87,6.411-6.411V11.831C64.393,8.29,61.523,5.419,57.982,5.419z"/>
	<path opacity="0.5" fill="#008184" d="M12.242,5.419c-3.541,0-6.411,2.87-6.411,6.411v31.194c0,3.541,2.87,6.411,6.411,6.411h6.701
		v13.676l13.911-13.676h25.128"/>
</g>
</svg>
