<?xml version="1.0" encoding="utf-8"?>
<!-- Generator: Adobe Illustrator 16.0.0, SVG Export Plug-In . SVG Version: 6.00 Build 0)  -->
<!DOCTYPE svg PUBLIC "-//W3C//DTD SVG 1.0//EN" "http://www.w3.org/TR/2001/REC-SVG-20010904/DTD/svg10.dtd">
<svg version="1.0" id="Layer_1" xmlns="http://www.w3.org/2000/svg" xmlns:xlink="http://www.w3.org/1999/xlink" x="0px" y="0px"
	 width="68.3px" height="68.3px" viewBox="0 0 68.3 68.3" enable-background="new 0 0 68.3 68.3" xml:space="preserve">
<g>
	<path fill="none" stroke="#82C9CB" stroke-width="2.837" stroke-miterlimit="10" d="M66.9,34.2c0,18.1-14.7,32.7-32.7,32.7
		c-18.1,0-32.7-14.7-32.7-32.7c0-18.1,14.7-32.7,32.7-32.7C52.3,1.4,66.9,16.1,66.9,34.2z"/>
	<path fill="#038386" d="M67.1,34.1c0,18.1-14.7,32.7-32.7,32.7c-18.1,0-32.7-14.7-32.7-32.7c0-18.1,14.7-32.7,32.7-32.7
		C52.4,1.4,67.1,16.1,67.1,34.1z"/>
	<path fill="#00979D" d="M67.1,34.2c0,18.1-14.7,32.7-32.7,32.7c-18.1,0-32.7-14.7-32.7-32.7c0-18.1,14.7-32.7,32.7-32.7
		C52.4,1.4,67.1,16.1,67.1,34.2z"/>
	<path fill="#FFFFFF" d="M46.9,45.8c-0.6,0-1.2,0-1.9-0.1c-5.2-0.7-8.7-4.5-10.6-7.4c-2,2.9-5.4,6.6-10.6,7.4
		c-0.6,0.1-1.2,0.1-1.9,0.1c-3.2,0-6.3-1.2-8.6-3.4c-2.3-2.2-3.6-5.2-3.6-8.3c0-3.2,1.3-6.1,3.6-8.3c2.3-2.2,5.3-3.4,8.6-3.4
		c0.6,0,1.2,0,1.9,0.1c5.2,0.7,8.7,4.5,10.6,7.4c1.9-2.9,5.4-6.6,10.6-7.4c0.6-0.1,1.2-0.1,1.9-0.1c3.2,0,6.3,1.2,8.6,3.4
		C57.7,28,59,31,59,34.1c0,3.2-1.3,6.1-3.6,8.3C53.1,44.6,50.1,45.8,46.9,45.8 M36.7,34.1c1,1.9,4,6.8,8.9,7.5
		c0.4,0.1,0.9,0.1,1.3,0.1c4.4,0,8-3.4,8-7.6s-3.6-7.6-8-7.6c-0.4,0-0.9,0-1.3,0.1C40.7,27.4,37.7,32.2,36.7,34.1 M21.9,26.6
		c-4.4,0-8,3.4-8,7.6c0,4.2,3.6,7.6,8,7.6c0.4,0,0.9,0,1.3-0.1c4.9-0.7,7.9-5.5,8.9-7.5c-1-1.9-4-6.8-8.9-7.5
		C22.7,26.6,22.3,26.6,21.9,26.6"/>
	<rect x="18.5" y="33" fill="#FFFFFF" width="7.3" height="2.3"/>
	<polygon fill="#FFFFFF" points="50.1,33 47.7,33 47.7,30.5 45.3,30.5 45.3,33 42.9,33 42.9,35.3 45.3,35.3 45.3,37.8 47.7,37.8 
		47.7,35.3 50.1,35.3 	"/>
</g>
</svg>
