<?xml version="1.0" encoding="utf-8"?>
<!-- Generator: Adobe Illustrator 17.1.0, SVG Export Plug-In . SVG Version: 6.00 Build 0)  -->
<!DOCTYPE svg PUBLIC "-//W3C//DTD SVG 1.1//EN" "http://www.w3.org/Graphics/SVG/1.1/DTD/svg11.dtd">
<svg version="1.1" id="Layer_1" xmlns="http://www.w3.org/2000/svg" xmlns:xlink="http://www.w3.org/1999/xlink" x="0px" y="0px"
	 width="72px" height="72.757px" viewBox="0 0 72 72.757" enable-background="new 0 0 72 72.757" xml:space="preserve">
<g>
	<g>
		<path fill="#80CBCD" d="M26.29,56.919c-3.754,0-6.795,3.041-6.795,6.795c0,3.754,3.041,6.792,6.795,6.792s6.793-3.039,6.793-6.792
			S30.042,56.919,26.29,56.919z M26.29,67.789c-2.251,0-4.077-1.824-4.077-4.075s1.825-4.078,4.077-4.078s4.075,1.827,4.075,4.078
			S28.54,67.789,26.29,67.789z"/>
		<circle fill="#0DA1A6" stroke="#80CBCD" stroke-width="0.9317" stroke-miterlimit="10" cx="26.289" cy="63.712" r="5.19"/>
	</g>
	<g>
		<path fill="#80CBCD" d="M50.935,56.919c-3.754,0-6.795,3.041-6.795,6.795c0,3.754,3.041,6.792,6.795,6.792
			s6.793-3.039,6.793-6.792S54.687,56.919,50.935,56.919z M50.935,67.789c-2.251,0-4.077-1.824-4.077-4.075s1.825-4.078,4.077-4.078
			c2.251,0,4.075,1.827,4.075,4.078S53.184,67.789,50.935,67.789z"/>
		<circle fill="#0DA1A6" stroke="#80CBCD" stroke-width="0.9317" stroke-miterlimit="10" cx="50.934" cy="63.712" r="5.19"/>
	</g>
	<path fill="#0DA1A6" stroke="#80CBCD" stroke-width="0.9317" stroke-miterlimit="10" d="M65.88,10.838H16.665l-1.061-6.12
		c-0.254-1.489-1.556-2.466-3.058-2.466c-0.191,0-9.117,0-9.117,0c-0.019,0-0.036,0.005-0.055,0.005v5.141
		c0.019,0,0.036,0.005,0.055,0.005h7.185l1.333,8.153l5.016,33.194c0.371,1.375,1.216,3.3,2.718,3.3h40.763
		c1.503,0,2.593-2.196,2.72-3.3l5.433-35.261C68.853,12.004,67.383,10.838,65.88,10.838z"/>
	<path opacity="0.5" fill="#008184" d="M11.4,12.211l5.563,36.539c0.371,1.375,1.216,3.3,2.718,3.3h40.763
		c1.503,0,2.593-2.196,2.72-3.3"/>
</g>
</svg>
