<?xml version="1.0" encoding="utf-8"?>
<!-- Generator: Adobe Illustrator 17.1.0, SVG Export Plug-In . SVG Version: 6.00 Build 0)  -->
<!DOCTYPE svg PUBLIC "-//W3C//DTD SVG 1.1//EN" "http://www.w3.org/Graphics/SVG/1.1/DTD/svg11.dtd">
<svg version="1.1" id="Layer_1" xmlns="http://www.w3.org/2000/svg" xmlns:xlink="http://www.w3.org/1999/xlink" x="0px" y="0px"
	 width="71.38px" height="81.665px" viewBox="0 0 71.38 81.665" enable-background="new 0 0 71.38 81.665" xml:space="preserve">
<g>
	<g>
		
			<rect x="25.33" y="55.075" fill="#09A0A5" stroke="#81C9CB" stroke-width="1.0087" stroke-miterlimit="10" width="4.943" height="22.662"/>
		
			<rect x="41.108" y="55.075" fill="#09A0A5" stroke="#81C9CB" stroke-width="1.0087" stroke-miterlimit="10" width="4.943" height="18.723"/>
	</g>
	<g>
		<path fill="#09A0A5" d="M17.317,42.374V21.568c0-9.47,8.284-17.174,18.465-17.174c10.066,0,18.095,7.396,18.279,16.837v21.143
			H17.317z"/>
		<path fill="#81C9CB" d="M35.783,4.86c9.81,0,17.635,7.195,17.814,16.362v20.686H17.783v-20.34
			C17.783,12.355,25.858,4.86,35.783,4.86 M35.783,3.928c-10.393,0-18.931,7.782-18.931,17.64V42.84h37.676V21.222
			C54.342,11.71,46.176,3.928,35.783,3.928L35.783,3.928z"/>
	</g>
	<path opacity="0.5" fill="#008184" d="M22.42,9.051c-3.434,3.178-5.568,7.588-5.568,12.517V42.84h37.676"/>
	
		<rect x="14.996" y="44.307" fill="#09A0A5" stroke="#81C9CB" stroke-width="0.9317" stroke-miterlimit="10" width="41.388" height="8.489"/>
</g>
</svg>
