<?xml version="1.0" encoding="utf-8"?>
<!-- Generator: Adobe Illustrator 19.2.1, SVG Export Plug-In . SVG Version: 6.00 Build 0)  -->
<svg version="1.1" id="Layer_1" xmlns="http://www.w3.org/2000/svg" xmlns:xlink="http://www.w3.org/1999/xlink" x="0px" y="0px"
	 width="114.286px" height="73.95px" viewBox="0 0 114.286 73.95" enable-background="new 0 0 114.286 73.95" xml:space="preserve">
<path fill="#0DA1A6" stroke="#80CBCD" stroke-width="1.1699" stroke-miterlimit="10" d="M96.865,32.367
	c-1.247-1.192-2.637-2.193-4.116-3.029c0.073-0.688,0.115-1.383,0.115-2.085c0-5.35-2.159-10.369-6.071-14.108
	c-3.875-3.708-9.028-5.751-14.516-5.751c-1.052,0-2.121,0.075-3.17,0.226c-8.162,1.165-14.025,6.548-17.293,11.33
	c-0.047-0.064-0.087-0.13-0.135-0.194c-0.418-0.559-0.879-1.09-1.366-1.577c-2.557-2.557-5.905-4.009-9.434-4.084
	c-3.569-0.08-6.907,1.248-9.401,3.742c-2.491,2.491-3.822,5.832-3.742,9.395c0.006,0.262,0.034,0.52,0.055,0.78
	c-3.836,0.78-7.361,2.587-10.194,5.301c-3.919,3.746-6.077,8.758-6.077,14.115c0,5.35,2.159,10.368,6.071,14.108
	c3.875,3.709,9.028,5.751,14.515,5.751l50.234,0.051c5.491,0,10.647-2.036,14.519-5.745c3.919-3.746,6.077-8.758,6.077-14.114
	C102.935,41.126,100.777,36.108,96.865,32.367z"/>
<path opacity="0.5" fill="#008184" enable-background="new    " d="M27.79,27.01c-3.836,0.78-7.361,2.587-10.194,5.301
	c-3.919,3.746-6.077,8.758-6.077,14.115c0,5.35,2.159,10.368,6.071,14.108c3.875,3.709,9.028,5.751,14.515,5.751l31.98,0.051
	L27.79,27.01z"/>
</svg>
