<?xml version="1.0" standalone="no"?>
<!DOCTYPE svg PUBLIC "-//W3C//DTD SVG 20010904//EN"
 "http://www.w3.org/TR/2001/REC-SVG-20010904/DTD/svg10.dtd">
<svg version="1.0" xmlns="http://www.w3.org/2000/svg"
 width="548.000000pt" height="548.000000pt" viewBox="0 0 548.000000 548.000000"
 preserveAspectRatio="xMidYMid meet">
<metadata>
Created by potrace 1.11, written by Peter Selinger 2001-2013
</metadata>
<g transform="translate(0.000000,548.000000) scale(0.100000,-0.100000)"
fill="#000000" stroke="none">
<path d="M0 2740 l0 -2740 2740 0 2740 0 0 2740 0 2740 -2740 0 -2740 0 0
-2740z m3966 1796 c18 -14 19 -34 22 -600 3 -657 5 -636 -66 -655 -50 -14
-575 -14 -625 0 -68 19 -68 16 -65 559 l3 480 31 31 c29 28 63 40 330 114 165
46 311 83 325 84 14 1 34 -5 45 -13z m-1741 -489 c11 -16 15 -52 15 -145 0
-128 -11 -173 -45 -186 -9 -3 -160 -6 -334 -6 -307 0 -319 1 -345 21 -21 17
-26 29 -26 66 0 56 28 97 76 113 114 38 610 166 626 162 10 -2 25 -14 33 -25z
m3 -505 c9 -12 12 -73 12 -228 0 -211 0 -213 24 -241 l24 -28 819 -2 c578 -2
824 -6 839 -14 40 -21 44 -49 44 -295 l0 -235 25 -24 24 -25 407 0 c365 0 409
-2 426 -17 25 -22 23 -60 -4 -77 -37 -23 -1544 -428 -1580 -424 -53 5 -58 27
-58 259 0 201 0 206 -23 227 l-23 22 -821 2 -821 3 -26 24 -25 24 -3 248 c-3
246 -3 248 -27 273 l-24 26 -402 0 c-346 0 -404 2 -423 16 -26 18 -29 55 -4
76 9 9 350 106 757 216 407 111 756 205 775 210 41 12 70 6 88 -16z m-48
-1345 c19 -7 40 -23 47 -37 10 -19 13 -138 13 -503 0 -522 0 -521 -58 -551
-31 -16 -610 -176 -638 -176 -9 0 -26 7 -36 17 -17 15 -18 47 -18 613 l0 597
23 20 c12 12 31 23 42 26 46 11 590 6 625 -6z m1778 -447 c12 -11 25 -32 28
-46 9 -33 -15 -92 -46 -116 -26 -19 -593 -178 -643 -180 -55 -2 -62 18 -62
172 0 133 1 139 24 164 l24 26 327 0 c314 0 327 -1 348 -20z"/>
</g>
</svg>
