<svg xmlns="http://www.w3.org/2000/svg">
  <symbol viewBox="0 0 34.169 39.659" id="icon-Global-Invite">
    <title>Global-Invite</title>
    <polygon points="14.366,39.338 12.92,39.338 12.92,38.812 13.84,38.812 13.84,18.224 14.366,18.224" />
    <polygon points="20.36,39.338 18.913,39.338 18.913,38.812 19.834,38.812 19.834,18.224 20.36,18.224" />
    <path d="M22.29 18.417h-4.228v-1.623c-.665.078-1.214.078-1.88 0v1.623h-4.228v-2.66c-2.144-1.623-3.42-4.172-3.42-6.85 0-4.734 3.854-8.586 8.59-8.586 4.734 0 8.586 3.853 8.586 8.587 0 2.677-1.276 5.227-3.42 6.85v2.66zm-3.7-.526h3.176v-2.4l.107-.078c2.074-1.518 3.312-3.95 3.312-6.505 0-4.444-3.616-8.06-8.06-8.06-4.446 0-8.063 3.615-8.063 8.06 0 2.554 1.238 4.987 3.31 6.504l.11.08v2.4h3.176V16.19l.3.045c.85.125 1.483.125 2.33 0l.3-.045v1.703z"
    />
    <path d="M17.467 10.766c.192-.19.19-.497 0-.69-.19-.188-.497-.188-.69 0-.19.193-.19.5 0 .69.192.192.5.192.69 0z" />
    <polygon points="11.226,10.11 11.886,10.11 11.886,9.448 12.514,9.448 12.514,10.11 13.176,10.11 13.176,10.736 12.514,10.736 12.514,11.399 11.886,11.399 11.886,10.736 11.226,10.736" />
    <polygon points="21.07,10.11 21.73,10.11 21.73,9.448 22.358,9.448 22.358,10.11 23.02,10.11 23.02,10.736 22.358,10.736 22.358,11.399 21.73,11.399 21.73,10.736 21.07,10.736" />
    <path d="M8.856 11.4C4.23 11.4.464 7.78.276 3.162l.527-.02c.175 4.334 3.713 7.73 8.053 7.73h.002v.526h-.002zM25.313 11.4c4.625 0 8.392-3.618 8.58-8.237l-.527-.02c-.175 4.334-3.713 7.73-8.053 7.73l-.002.526h.003z" />
  </symbol>
  <symbol viewBox="0 0 18 18" id="icon-Global-Menu_Home-BBCube">
    <title>Global-Menu_Home-BBCube</title>
    <g>
      <path d="M4 3.158C4 3.623 3.623 4 3.158 4H.842C.377 4 0 3.623 0 3.158V.842C0 .377.377 0 .842 0h2.316C3.623 0 4 .377 4 .842v2.316zM18 3.158c0 .465-.377.842-.842.842h-2.316C14.377 4 14 3.623 14 3.158V.842c0-.465.377-.842.842-.842h2.316c.465 0 .842.377.842.842v2.316zM11 3.158c0 .465-.377.842-.842.842H7.842C7.377 4 7 3.623 7 3.158V.842C7 .377 7.377 0 7.842 0h2.316c.465 0 .842.377.842.842v2.316zM4 17.158c0 .465-.377.842-.842.842H.842C.377 18 0 17.623 0 17.158v-2.316C0 14.377.377 14 .842 14h2.316c.465 0 .842.377.842.842v2.316zM18 17.158c0 .465-.377.842-.842.842h-2.316c-.465 0-.842-.377-.842-.842v-2.316c0-.465.377-.842.842-.842h2.316c.465 0 .842.377.842.842v2.316zM11 17.158c0 .465-.377.842-.842.842H7.842C7.377 18 7 17.623 7 17.158v-2.316c0-.465.377-.842.842-.842h2.316c.465 0 .842.377.842.842v2.316zM4 10.158c0 .465-.377.842-.842.842H.842C.377 11 0 10.623 0 10.158V7.842C0 7.377.377 7 .842 7h2.316c.465 0 .842.377.842.842v2.316zM18 10.158c0 .465-.377.842-.842.842h-2.316c-.465 0-.842-.377-.842-.842V7.842c0-.465.377-.842.842-.842h2.316c.465 0 .842.377.842.842v2.316zM11 10.158c0 .465-.377.842-.842.842H7.842C7.377 11 7 10.623 7 10.158V7.842C7 7.377 7.377 7 7.842 7h2.316c.465 0 .842.377.842.842v2.316z"
      />
    </g>
  </symbol>
  <symbol viewBox="0 0 14 7" id="icon-Global-Triangle_Up">
    <title>Global-Triangle_Up</title>
    <polygon points="0,7 7,0 14,7" />
  </symbol>
  <symbol viewBox="0 0 130.208 28.333" id="icon-Global-WebApp_Compressed">
    <title>Global-WebApp_Compressed</title>
    <g>
      <path d="M51.066 14.02c0-6.424-5.416-11.655-12.082-11.655-.612 0-1.24.045-1.854.13-5.18.738-8.646 4.463-10.588 7.32-1.942-2.856-5.41-6.58-10.583-7.32-.62-.085-1.243-.13-1.86-.13-6.663 0-12.084 5.23-12.084 11.654 0 6.425 5.422 11.654 12.082 11.654.615 0 1.242-.047 1.862-.13 5.175-.744 8.64-4.467 10.583-7.33 1.942 2.863 5.407 6.586 10.588 7.33.615.083 1.243.13 1.863.13 6.656 0 12.073-5.228 12.073-11.655zm-35.69 7.432c-.43.062-.856.097-1.28.097-4.384 0-7.95-3.38-7.95-7.53S9.71 6.49 14.1 6.49c.42 0 .848.034 1.275.093 4.88.698 7.865 5.508 8.877 7.433-1.016 1.932-4 6.74-8.877 7.434zm13.463-7.433c1.007-1.93 3.995-6.736 8.87-7.434.426-.06.857-.093 1.273-.093 4.387 0 7.95 3.38 7.95 7.527 0 4.15-3.563 7.53-7.943 7.53-.42 0-.855-.035-1.282-.097-4.874-.695-7.86-5.505-8.87-7.434z"
      />
      <rect x="10.77" y="12.884" width="7.257" height="2.335" />
      <polygon points="39.79,15.219 42.246,15.219 42.246,12.884 39.79,12.884 39.79,10.422 37.45,10.422 37.45,12.884 34.989,12.884 34.989,15.219 37.45,15.219 37.45,17.68 39.79,17.68" />
      <path d="M51.934 2.826c-.09-.21-.215-.393-.365-.542-.15-.15-.33-.27-.53-.36-.207-.09-.426-.134-.66-.134-.237 0-.46.043-.663.133-.204.09-.382.21-.53.36-.15.15-.274.334-.364.543-.088.208-.135.432-.135.68 0 .233.047.46.135.67.09.218.214.397.363.55.15.154.327.274.53.362.205.09.428.137.663.137.235 0 .453-.045.66-.137.202-.088.38-.208.53-.36.148-.154.274-.334.364-.55.088-.21.133-.44.133-.672 0-.248-.045-.472-.133-.68zm-.375 1.2c-.066.162-.16.3-.28.42-.123.122-.257.217-.41.29-.15.07-.312.107-.49.107-.18 0-.35-.038-.502-.107-.16-.073-.292-.168-.41-.29-.114-.12-.206-.258-.273-.42-.065-.16-.1-.332-.1-.52s.035-.364.1-.527c.067-.17.16-.308.273-.43.118-.12.25-.214.41-.28.153-.067.322-.102.5-.102.18 0 .343.035.493.1.153.068.288.162.41.283.12.123.214.26.28.43.068.162.104.338.104.525 0 .188-.035.36-.105.522zM50.745 3.67c.096-.044.168-.115.22-.2.053-.083.08-.178.08-.28 0-.162-.06-.302-.172-.42-.116-.12-.31-.176-.582-.176-.104 0-.195 0-.276.008-.082.004-.16.01-.236.018v1.69h.427v-.556h.172l.297.557h.48l-.41-.64zm-.424-.227c-.057 0-.098-.004-.126-.013v-.455c.028-.008.075-.017.138-.017.182 0 .273.085.273.245 0 .162-.093.24-.284.24z"
      />
    </g>
    <g>
      <path d="M79.724 11.917c0-1.647-.737-2.264-2.487-2.264h-2.162v4.426h2.248c1.338-.002 2.4-.5 2.4-2.163z" />
      <polygon points="96.968,15.502 100.691,15.502 98.821,9.91" />
      <path d="M58.66 2.498v23.074h69.573V2.498H58.66zm9.002 17.276c-3.07 0-5.147-1.664-5.147-5.678 0-3.74 2.145-5.8 5.3-5.8 1.133 0 2.3.276 2.934.67l-.464 1.287c-.635-.515-1.63-.755-2.505-.755-2.538 0-3.79 1.647-3.79 4.563 0 3.02 1.252 4.53 3.774 4.53 1.115 0 2.264-.326 2.796-.67l.344 1.168c-.875.463-2.04.686-3.242.686zm12.44-.172l-2.402-4.34h-2.625v4.34h-1.39V8.453h3.604c2.812 0 3.893 1.183 3.893 3.413 0 1.56-.79 2.642-2.076 3.122l2.642 4.615H80.1zm11.94-9.95h-6.175v3.637h5.593v1.183h-5.593v3.91h6.176v1.22h-7.565V8.45h7.565v1.202zm10.02 9.95l-.995-2.95H96.59l-.96 2.95h-1.39l3.894-11.15h1.475l3.91 11.15h-1.457zm11.12-9.95h-3.842v9.95h-1.39v-9.95h-3.86v-1.2h9.092v1.2zm10.054 0h-6.176v3.637h5.593v1.183h-5.593v3.91h6.176v1.22h-7.565V8.45h7.566v1.202z"
      />
    </g>
  </symbol>
  <symbol viewBox="0 0 24.202 24.276" id="icon-Global-user-profile">
    <title>Global-user-profile</title>
    <path d="M20.912 19.718h-1c0-3.827-.883-6.2-5.28-6.2h-5.44c-4.397 0-5.28 2.23-5.28 5.825h-1v-.115c.017-3.337.81-6.71 6.28-6.71h5.44c5.534 0 6.28 3.64 6.28 7.2zM11.95 13.156c-2.464 0-4.468-2.1-4.468-4.68s2.004-4.68 4.467-4.68c2.462 0 4.466 2.1 4.466 4.68s-2.004 4.68-4.467 4.68zm0-8.36c-1.913 0-3.468 1.65-3.468 3.68 0 2.03 1.555 3.68 3.467 3.68 1.91 0 3.466-1.65 3.466-3.68 0-2.03-1.555-3.68-3.467-3.68zM12.034 23.98C5.436 23.98.07 18.61.07 12.013S5.435.05 12.033.05 24 5.415 24 12.013 18.63 23.98 12.033 23.98zm0-22.43C6.264 1.55 1.57 6.242 1.57 12.013S6.262 22.48 12.033 22.48 22.5 17.783 22.5 12.013 17.803 1.55 12.033 1.55z"
    />
  </symbol>
  <symbol viewBox="0 0 20.597 18.807" id="icon-Home-Grid-Open_in_new">
    <title>Home-Grid-Open_in_new</title>
    <rect x="14.542" y="-.105" transform="matrix(-.707 -.707 .707 -.707 23.247 19.503)" width="2.241" height="10.084" />
    <path d="M20.597 1.123c0-.62-.5-1.12-1.12-1.12h-7.843V2h6.93v6.966h2.033V1.123zM19.24 18.807H1.356c-.747 0-1.355-.64-1.355-1.424V1.426C0 .64.608.003 1.355.003H8.24l.03 1.982H1.99l-.03 14.807h16.604v-3.988h2.032v4.58c0 .784-.608 1.423-1.355 1.423z"
    />
  </symbol>
</svg>