<svg xmlns="http://www.w3.org/2000/svg" xmlns:xlink="http://www.w3.org/1999/xlink" version="1.1" x="0px" y="0px" viewBox="0 0 100 125" enable-background="new 0 0 100 100" xml:space="preserve"><path fill="#000000" d="M50.525,8.999c-22.834,0-41.44,18.604-41.475,41.472C9.034,61.76,13.487,72.705,21.27,80.5  c7.393,7.403,17.214,11.481,27.656,11.481c0.557,0,1.118-0.011,1.682-0.035C73.818,90.995,92,72.778,92,50.474  C92,27.604,73.395,8.999,50.525,8.999z M50.443,87.95c-0.508,0.021-1.015,0.031-1.518,0.031c-8.268,0-16.101-2.852-22.388-8.087  c0.002-0.04,0.012-0.078,0.012-0.119c0-10.51,6.162-19.454,15.39-22.497c2.322,1.189,4.943,1.874,7.727,1.874  c2.783,0,5.405-0.685,7.728-1.874c9.447,3.103,16.004,12.192,16.052,22.383C67.131,84.541,59.183,87.591,50.443,87.95z   M49.666,55.152c-7.182,0-13.024-5.842-13.024-13.024s5.842-13.024,13.024-13.024S62.69,34.947,62.69,42.128  S56.848,55.152,49.666,55.152z M77.215,76.344c-1.191-9.572-7.276-17.91-15.911-21.825c3.307-3.107,5.386-7.506,5.386-12.391  c0-9.387-7.637-17.024-17.024-17.024s-17.024,7.637-17.024,17.024c0,4.888,2.082,9.288,5.392,12.396  c-8.391,3.852-14.136,12.027-15.261,21.743c-6.213-6.929-9.736-16.218-9.721-25.791c0.031-20.665,16.842-37.478,37.475-37.478  C71.189,12.999,88,29.81,88,50.474C88,60.5,83.914,69.611,77.215,76.344z"/></svg>