<svg xmlns="http://www.w3.org/2000/svg" xmlns:xlink="http://www.w3.org/1999/xlink" version="1.1" x="0px" y="0px" viewBox="0 0 100 125" enable-background="new 0 0 100 100" xml:space="preserve"><path d="M73.9,39.2c1-2.7,1.6-5.7,1.6-8.8C75.5,16.4,64,5,50,5C36,5,24.5,16.4,24.5,30.5c0,3.1,0.6,6,1.6,8.8  C13.5,47.2,5,61.3,5,77.3C5,85.9,20.8,95,50,95c29.2,0,45-9.1,45-17.7C95,61.3,86.6,47.2,73.9,39.2z M50,9.1  c11.8,0,21.4,9.6,21.4,21.4S61.8,51.9,50,51.9s-21.4-9.6-21.4-21.4S38.2,9.1,50,9.1z M50,90.9c-24.1,0-40.9-7.2-40.9-13.6  c0-14.4,7.5-27,18.8-34.3C32.2,50.7,40.5,56,50,56c9.5,0,17.8-5.2,22.1-12.9c11.3,7.3,18.8,19.9,18.8,34.3  C90.9,83.8,74.1,90.9,50,90.9z"/><text x="0" y="115" fill="#000000" font-size="5px" font-weight="bold" font-family="'Helvetica Neue', Helvetica, Arial-Unicode, Arial, Sans-serif">Created by Charlie Isslander</text><text x="0" y="120" fill="#000000" font-size="5px" font-weight="bold" font-family="'Helvetica Neue', Helvetica, Arial-Unicode, Arial, Sans-serif">from the Noun Project</text></svg>