<?xml version="1.0" encoding="utf-8"?>
<!-- Generator: Adobe Illustrator 19.1.0, SVG Export Plug-In . SVG Version: 6.00 Build 0)  -->
<svg version="1.1" id="Livello_1" xmlns="http://www.w3.org/2000/svg" xmlns:xlink="http://www.w3.org/1999/xlink" x="0px" y="0px"
	 width="258px" height="61px" viewBox="0 0 258 61" enable-background="new 0 0 258 61" xml:space="preserve">
<path fill="#04979C" d="M116.378,19.242c0-1.738-0.773-2.381-2.639-2.381h-2.253v4.634h2.381
	C115.283,21.56,116.378,20.98,116.378,19.242"/>
<polygon fill="#04979C" points="134.466,23.039 138.393,23.039 136.397,17.182 "/>
<path fill="#04979C" d="M94.299,30.63h74.09V12.359h-74.09V30.63z M103.697,27.481c-3.219,0-5.407-1.738-5.407-5.986
	c0-3.927,2.253-6.116,5.536-6.116c1.158,0,2.381,0.258,3.089,0.708l-0.515,1.352c-0.643-0.515-1.737-0.772-2.639-0.772
	c-2.639,0-3.991,1.737-3.991,4.763c0,3.154,1.288,4.764,3.991,4.764c1.159,0,2.382-0.323,2.962-0.708l0.385,1.222
	C106.207,27.288,104.984,27.481,103.697,27.481 M116.764,27.352l-2.511-4.57h-2.768v4.57h-1.416V15.637h3.798
	c2.961,0,4.055,1.223,4.055,3.605c0,1.61-0.837,2.768-2.189,3.283l2.768,4.828h-1.737V27.352z M129.316,16.86h-6.502v3.798h5.858
	v1.223h-5.858V26h6.502v1.288h-7.918V15.573h7.918V16.86z M139.808,27.352l-1.029-3.089h-4.699l-1.03,3.089h-1.481l4.055-11.715
	h1.545l4.12,11.715H139.808z M152.489,16.86h-4.055v10.428h-1.481V16.86h-4.055v-1.287h9.527v1.287H152.489z M163.046,16.86h-6.501
	v3.798h5.857v1.223h-5.857V26h6.501v1.288h-7.917V15.573h7.917V16.86z"/>
<path fill="#04979C" d="M86.269,21.797c0-11.095-9.359-20.121-20.861-20.121c-1.062,0-2.142,0.073-3.21,0.227
	C53.26,3.178,47.278,9.608,43.93,14.539C40.57,9.608,34.589,3.178,25.653,1.903c-1.068-0.155-2.151-0.227-3.21-0.227
	c-11.508,0-20.864,9.026-20.864,20.121c0,11.096,9.356,20.116,20.855,20.116c1.068,0,2.151-0.066,3.218-0.22
	c8.936-1.281,14.918-7.714,18.277-12.65c3.348,4.936,9.33,11.369,18.269,12.65c1.068,0.154,2.147,0.22,3.217,0.22
	C76.917,41.913,86.269,32.893,86.269,21.797 M24.64,34.628c-0.729,0.106-1.473,0.16-2.205,0.16c-7.564,0-13.722-5.833-13.722-12.991
	c0-7.162,6.158-12.996,13.731-12.996c0.727,0,1.467,0.059,2.199,0.159c8.421,1.202,13.578,9.508,15.326,12.832
	C38.218,25.126,33.064,33.427,24.64,34.628 M47.886,21.797c1.748-3.329,6.902-11.634,15.323-12.837
	c0.729-0.1,1.476-0.159,2.199-0.159c7.57,0,13.728,5.834,13.728,12.997c0,7.158-6.158,12.991-13.719,12.991
	c-0.73,0-1.473-0.055-2.208-0.16C54.788,33.427,49.628,25.119,47.886,21.797"/>
<rect x="16.694" y="19.831" fill="#04979C" width="12.527" height="4.037"/>
<polygon fill="#04979C" points="66.796,23.867 71.03,23.867 71.03,19.83 66.796,19.83 66.796,15.582 62.747,15.582 62.747,19.83 
	58.508,19.83 58.508,23.867 62.747,23.867 62.747,28.116 66.796,28.116 "/>
<path fill="#04979C" d="M7.506,47.898L3.848,59.551H6.8l0.596-2.385h3.351l0.645,2.385h3.064l-3.71-11.653H7.506z M7.948,54.927
	l1.059-4.269l1.149,4.269H7.948z"/>
<path fill="#04979C" d="M25.441,51.789c0-2.239-1.215-3.892-4.442-3.892h-4.696v11.654h2.885v-3.693h1.453l1.75,3.693H25.8
	l-2.274-4.268C24.796,54.602,25.441,53.39,25.441,51.789 M20.716,53.545h-1.528v-3.289h1.47c1.346,0,1.713,0.517,1.713,1.55
	C22.371,53.101,21.714,53.545,20.716,53.545"/>
<path fill="#04979C" d="M31.591,47.897h-3.817V59.55h3.834c4.945,0,5.785-3.177,5.785-5.932
	C37.393,49.959,35.946,47.897,31.591,47.897 M31.75,57.166h-1.091v-6.912H31.5c2.579,0,2.813,1.214,2.813,3.491
	C34.314,55.715,34.138,57.166,31.75,57.166"/>
<path fill="#04979C" d="M45.932,55.015c0,1.775-0.486,2.363-1.797,2.363c-1.091,0-1.777-0.446-1.777-2.379v-7.101h-2.883v7.64
	c0,3.528,2.547,4.193,4.538,4.193c2.06,0,4.693-0.732,4.693-4.176v-7.657h-2.775v7.117H45.932z"/>
<polygon fill="#04979C" points="51.286,50.282 54.299,50.282 54.299,57.166 51.286,57.166 51.286,59.551 60.216,59.551 
	60.216,57.166 57.183,57.166 57.183,50.282 60.216,50.282 60.216,47.897 51.286,47.897 "/>
<polygon fill="#04979C" points="69.516,54.893 65.74,47.897 62.594,47.897 62.594,59.55 65.326,59.55 65.306,52.093 69.285,59.55 
	72.205,59.55 72.205,47.897 69.516,47.897 "/>
<path fill="#04979C" d="M79.002,47.745c-3.533,0-4.876,2.593-4.876,6.107c0,3.855,1.542,5.878,4.89,5.878
	c3.748,0,4.98-2.632,4.98-6.003C83.996,49.279,82.318,47.745,79.002,47.745 M79.016,57.377c-1.664,0-1.829-1.178-1.829-3.525
	c0-2.847,0.272-3.764,1.815-3.764c1.701,0,1.933,0.793,1.933,3.639C80.935,56.413,80.703,57.377,79.016,57.377"/>
<path fill="#04979C" d="M86.214,2.896c-0.119-0.275-0.275-0.511-0.478-0.71c-0.197-0.2-0.431-0.357-0.697-0.477
	c-0.27-0.118-0.559-0.177-0.869-0.177c-0.312,0-0.602,0.059-0.868,0.177c-0.269,0.12-0.503,0.277-0.7,0.477
	c-0.2,0.199-0.359,0.435-0.478,0.71c-0.118,0.272-0.177,0.572-0.177,0.896c0,0.311,0.058,0.606,0.177,0.886
	c0.119,0.28,0.278,0.519,0.478,0.717c0.197,0.201,0.431,0.361,0.7,0.479c0.266,0.119,0.556,0.177,0.868,0.177
	c0.31,0,0.599-0.058,0.869-0.177c0.266-0.118,0.5-0.277,0.697-0.479c0.202-0.198,0.358-0.436,0.478-0.717
	c0.116-0.279,0.176-0.575,0.176-0.886C86.391,3.468,86.33,3.168,86.214,2.896 M85.725,4.476c-0.087,0.211-0.211,0.395-0.367,0.552
	c-0.159,0.16-0.339,0.287-0.539,0.38c-0.199,0.094-0.416,0.14-0.648,0.14c-0.234,0-0.454-0.046-0.659-0.14
	c-0.206-0.093-0.385-0.22-0.539-0.38c-0.15-0.157-0.269-0.341-0.358-0.552c-0.087-0.211-0.13-0.44-0.13-0.684
	c0-0.246,0.043-0.478,0.13-0.695c0.09-0.217,0.208-0.403,0.358-0.561c0.154-0.158,0.333-0.282,0.539-0.369
	c0.205-0.088,0.425-0.133,0.659-0.133c0.232,0,0.448,0.045,0.648,0.133c0.2,0.087,0.38,0.211,0.539,0.369
	c0.156,0.158,0.28,0.344,0.367,0.561c0.087,0.218,0.13,0.449,0.13,0.695C85.855,4.037,85.811,4.265,85.725,4.476"/>
<path fill="#04979C" d="M84.654,4.011c0.127-0.064,0.222-0.151,0.292-0.262c0.066-0.112,0.101-0.238,0.101-0.373
	c0-0.212-0.075-0.397-0.225-0.552c-0.148-0.155-0.403-0.234-0.764-0.234c-0.136,0-0.258,0.003-0.365,0.01
	c-0.107,0.008-0.208,0.016-0.306,0.029V4.85h0.559V4.122h0.225l0.391,0.728h0.637L84.654,4.011z M84.095,3.71
	c-0.075,0-0.133-0.004-0.168-0.017V3.095c0.035-0.012,0.099-0.018,0.185-0.018c0.237,0,0.356,0.104,0.356,0.316
	C84.469,3.606,84.344,3.71,84.095,3.71"/>
<path fill="#E55625" d="M185.743,16.809h3.079c2.646,0,3.64,1.251,3.64,3.336c0,2.133-1.427,3.399-3.529,3.399h-1.892v3.689h-1.299
	L185.743,16.809L185.743,16.809z M191.083,20.209c0-1.508-0.642-2.261-2.294-2.261h-1.748v4.49h1.812
	C190.136,22.438,191.083,21.845,191.083,20.209"/>
<path fill="#E55625" d="M195.252,16.808h2.983c2.646,0,3.656,1.107,3.656,3.192c0,1.443-0.737,2.469-1.924,2.919l2.549,4.314h-1.539
	l-2.309-4.042h-2.117v4.042h-1.299V16.808z M200.513,20.048c0-1.539-0.674-2.101-2.31-2.101h-1.652v4.121h1.717
	C199.534,22.069,200.513,21.604,200.513,20.048"/>
<path fill="#E55625" d="M214.24,22.037c0,3.112-1.876,5.356-4.811,5.356c-3.079,0-4.699-2.037-4.699-5.324
	c0-3.143,1.78-5.404,4.779-5.404C212.556,16.665,214.24,18.621,214.24,22.037 M212.845,22.037c0-2.71-0.994-4.25-3.336-4.25
	c-2.357,0-3.399,1.556-3.399,4.282c0,2.598,0.914,4.201,3.319,4.201C211.738,26.271,212.845,24.587,212.845,22.037"/>
<path fill="#E55625" d="M218.811,26.383c0,1.716-0.962,2.967-2.742,3.384l-0.401-1.09c1.107-0.321,1.844-0.882,1.844-2.406v-9.462
	h1.299V26.383z"/>
<polygon fill="#E55625" points="228.641,16.809 228.641,17.948 223.798,17.948 223.798,21.331 228.112,21.331 228.112,22.438 
	223.798,22.438 223.798,26.095 228.641,26.095 228.641,27.233 222.499,27.233 222.499,16.809 "/>
<path fill="#E55625" d="M239.033,26.736c-0.818,0.449-1.828,0.657-2.967,0.657c-2.903,0-4.827-1.539-4.827-5.292
	c0-3.495,2.021-5.436,4.987-5.436c1.059,0,2.07,0.257,2.679,0.625l-0.449,1.251c-0.593-0.481-1.443-0.754-2.261-0.754
	c-2.374,0-3.576,1.556-3.576,4.282c0,2.822,1.186,4.201,3.544,4.201c1.059,0,2.037-0.337,2.518-0.657L239.033,26.736z"/>
<polygon fill="#E55625" points="248.463,17.947 245.224,17.947 245.224,27.232 243.925,27.232 243.925,17.947 240.67,17.947 
	240.67,16.808 248.464,16.808 248.464,17.947 "/>
<path fill="#E55625" d="M255.439,24.651c0-2.678-5.019-1.828-5.019-5.244c0-1.636,1.395-2.743,3.207-2.743
	c1.17,0,2.117,0.321,2.774,0.706L256,18.653c-0.481-0.449-1.411-0.866-2.293-0.866c-1.187,0-1.925,0.578-1.925,1.508
	c0,2.437,5.035,1.619,5.035,5.227c0,1.716-1.571,2.871-3.528,2.871c-1.267,0-2.389-0.481-3.063-0.898l0.433-1.284
	c0.593,0.513,1.684,1.075,2.646,1.075C254.364,26.287,255.439,25.758,255.439,24.651"/>
<polygon fill="#E55625" points="179.333,19.986 181.072,21.725 179.333,23.463 175.694,27.102 173.955,25.363 177.594,21.725 
	173.935,18.068 175.674,16.329 "/>
</svg>
