<?xml version="1.0" encoding="utf-8"?>
<!-- Generator: Adobe Illustrator 19.1.0, SVG Export Plug-In . SVG Version: 6.00 Build 0)  -->
<svg version="1.1" id="Layer_1" xmlns="http://www.w3.org/2000/svg" xmlns:xlink="http://www.w3.org/1999/xlink" x="0px" y="0px"
	 width="126.5px" height="89px" viewBox="-185 117.7 126.5 89" enable-background="new -185 117.7 126.5 89" xml:space="preserve">
<g id="createlogo">
	<path fill="#00979C" d="M-61,150.6c0-16-13.5-28.9-30-28.9c-1.5,0-3.1,0.1-4.6,0.3c-12.9,1.8-21.5,11.1-26.3,18.2
		c-4.8-7.1-13.4-16.4-26.3-18.2c-1.5-0.2-3.1-0.3-4.6-0.3c-16.6,0-30,13-30,28.9c0,16,13.5,29,30,29c1.5,0,3.1-0.1,4.6-0.3
		c12.9-1.8,21.5-11.1,26.3-18.2c4.8,7.1,13.4,16.4,26.3,18.2c1.5,0.2,3.1,0.3,4.6,0.3C-74.4,179.5-61,166.6-61,150.6z M-149.6,169.1
		c-1.1,0.2-2.1,0.2-3.2,0.2c-10.9,0-19.8-8.4-19.8-18.7c0-10.3,8.9-18.7,19.8-18.7c1,0,2.1,0.1,3.2,0.2c12.1,1.7,19.5,13.7,22,18.5
		C-130.1,155.4-137.5,167.3-149.6,169.1z M-116.2,150.6c2.5-4.8,9.9-16.7,22-18.5c1.1-0.1,2.1-0.2,3.2-0.2
		c10.9,0,19.8,8.4,19.8,18.7c0,10.3-8.9,18.7-19.7,18.7c-1,0-2.1-0.1-3.2-0.2C-106.3,167.3-113.7,155.4-116.2,150.6z"/>
	<rect x="-161.1" y="147.8" fill="#00979C" width="18" height="5.8"/>
	<polygon fill="#00979C" points="-89,153.6 -82.9,153.6 -82.9,147.8 -89,147.8 -89,141.7 -94.8,141.7 -94.8,147.8 -100.9,147.8 
		-100.9,153.6 -94.8,153.6 -94.8,159.7 -89,159.7 	"/>
	<path fill="#00979C" d="M-174.3,188.2l-5.2,16.7h4.2l0.9-3.4h4.8l0.9,3.4h4.4l-5.3-16.8h-4.7V188.2z M-173.6,198.3l1.5-6.1l1.7,6.1
		H-173.6z"/>
	<path fill="#00979C" d="M-148.5,193.8c0-3.2-1.7-5.6-6.4-5.6h-6.8V205h4.2v-5.3h2.1l2.5,5.3h4.9l-3.3-6.1
		C-149.4,197.8-148.5,196-148.5,193.8z M-155.3,196.3h-2.2v-4.7h2.1c1.9,0,2.5,0.8,2.5,2.2C-152.9,195.6-153.8,196.3-155.3,196.3z"
		/>
	<path fill="#00979C" d="M-139.6,188.2h-5.5V205h5.5c7.1,0,8.3-4.6,8.3-8.5C-131.3,191.1-133.4,188.2-139.6,188.2z M-139.4,201.5
		h-1.6v-9.9h1.2c3.7,0,4,1.8,4,5C-135.7,199.4-136,201.5-139.4,201.5z"/>
	<path fill="#00979C" d="M-119,198.4c0,2.6-0.7,3.4-2.6,3.4c-1.6,0-2.6-0.6-2.6-3.4v-10.2h-4.2v11c0,5.1,3.7,6,6.5,6
		c3,0,6.7-1.1,6.7-6v-11h-4v10.2H-119z"/>
	<polygon fill="#00979C" points="-111.3,191.6 -107,191.6 -107,201.5 -111.3,201.5 -111.3,204.9 -98.4,204.9 -98.4,201.5 
		-102.8,201.5 -102.8,191.6 -98.4,191.6 -98.4,188.2 -111.3,188.2 	"/>
	<polygon fill="#00979C" points="-85.1,198.2 -90.5,188.2 -95,188.2 -95,204.9 -91.1,204.9 -91.1,194.2 -85.4,204.9 -81.2,204.9 
		-81.2,188.2 -85.1,188.2 	"/>
	<path fill="#00979C" d="M-71.4,187.9c-5.1,0-7,3.7-7,8.8c0,5.6,2.2,8.5,7,8.5c5.4,0,7.2-3.8,7.2-8.7
		C-64.2,190.1-66.7,187.9-71.4,187.9z M-71.4,201.8c-2.4,0-2.6-1.7-2.6-5.1c0-4.1,0.4-5.4,2.6-5.4c2.4,0,2.8,1.1,2.8,5.2
		C-68.6,200.4-69,201.8-71.4,201.8z"/>
	<path fill="#00979C" d="M-58.8,122.8c-0.2-0.5-0.5-1-0.9-1.3c-0.4-0.4-0.8-0.7-1.3-0.9c-0.5-0.2-1.1-0.3-1.6-0.3
		c-0.6,0-1.1,0.1-1.6,0.3c-0.5,0.2-0.9,0.5-1.3,0.9c-0.4,0.4-0.7,0.8-0.9,1.3c-0.2,0.5-0.3,1.1-0.3,1.7c0,0.6,0.1,1.1,0.3,1.7
		c0.2,0.5,0.5,1,0.9,1.4s0.8,0.7,1.3,0.9s1.1,0.3,1.6,0.3c0.6,0,1.1-0.1,1.6-0.3s0.9-0.5,1.3-0.9s0.7-0.8,0.9-1.4
		c0.2-0.5,0.3-1.1,0.3-1.7C-58.5,123.9-58.6,123.3-58.8,122.8z M-59.7,125.8c-0.2,0.4-0.4,0.7-0.7,1c-0.3,0.3-0.6,0.5-1,0.7
		c-0.4,0.2-0.8,0.3-1.2,0.3c-0.4,0-0.9-0.1-1.2-0.3c-0.4-0.2-0.7-0.4-1-0.7c-0.3-0.3-0.5-0.6-0.7-1s-0.3-0.8-0.3-1.3
		s0.1-0.9,0.3-1.3c0.2-0.4,0.4-0.8,0.7-1.1c0.3-0.3,0.6-0.5,1-0.7c0.4-0.2,0.8-0.3,1.2-0.3c0.4,0,0.8,0.1,1.2,0.3
		c0.4,0.2,0.7,0.4,1,0.7c0.3,0.3,0.5,0.6,0.7,1.1c0.2,0.4,0.3,0.8,0.3,1.3C-59.5,124.9-59.6,125.4-59.7,125.8z"/>
	<path fill="#00979C" d="M-61.8,124.9c0.2-0.1,0.4-0.3,0.5-0.5c0.1-0.2,0.2-0.4,0.2-0.7c0-0.4-0.1-0.7-0.4-1s-0.8-0.4-1.4-0.4
		c-0.3,0-0.5,0-0.7,0s-0.4,0-0.6,0v4.2h1.1v-1.4h0.4l0.7,1.4h1.2L-61.8,124.9z M-62.8,124.3c-0.1,0-0.2,0-0.3,0v-1.1
		c0.1,0,0.2,0,0.3,0c0.5,0,0.7,0.2,0.7,0.6C-62.1,124.1-62.3,124.3-62.8,124.3z"/>
</g>
</svg>
