<?xml version="1.0" encoding="utf-8"?>
<!-- Generator: Adobe Illustrator 17.1.0, SVG Export Plug-In . SVG Version: 6.00 Build 0)  -->
<!DOCTYPE svg PUBLIC "-//W3C//DTD SVG 1.1//EN" "http://www.w3.org/Graphics/SVG/1.1/DTD/svg11.dtd">
<svg version="1.1" id="Layer_1" xmlns="http://www.w3.org/2000/svg" xmlns:xlink="http://www.w3.org/1999/xlink" x="0px" y="0px"
	 width="316.901px" height="114.789px" viewBox="0 0 316.901 114.789" enable-background="new 0 0 316.901 114.789"
	 xml:space="preserve">
<g>
	<g>
		<path fill="#00979D" d="M174.437,11.958v29h29v-29H174.437z M197.437,28.958h-6v6h-5v-6h-6v-5h6v-6h5v6h6V28.958z"/>
		<path fill="#00979D" d="M271.437,11.958v29h29v-29H271.437z M294.437,28.958h-18v-5h18V28.958z"/>
		<path fill="#00979D" d="M206.437,11.958v29h29v-29H206.437z M221.124,33.181c-6.275,0-11.364-6.805-11.364-6.805
			s5.089-6.804,11.364-6.804c6.275,0,11.36,6.804,11.36,6.804S227.399,33.181,221.124,33.181z"/>
		<circle fill="#00979D" cx="221.122" cy="26.376" r="3.138"/>
		<path fill="#00979D" d="M239.437,11.958v29h28v-29H239.437z M255.185,30.601l-4.016,4.016l-4.017-4.016l-4.067-4.069l4.016-4.016
			l4.068,4.068l8.448-8.452l4.016,4.017L255.185,30.601z"/>
	</g>
	<g>
		<path fill="#00979D" d="M188.639,59.766v7.685c-2.163,1.167-4.184,1.765-6.348,1.765c-5.721,0-8.312-3.501-8.312-9.592
			c0-6.462,3.928-9.45,9.251-9.45c1.936,0,3.359,0.313,5.38,1.252l-1.565,4.099c-1.537-1.224-2.533-1.622-4.013-1.622
			c-2.676,0-4.184,1.509-4.184,5.664c0,4.383,1.622,5.949,4.383,5.949c0.313,0,0.598,0,0.911-0.057v-5.693H188.639z"/>
		<path fill="#00979D" d="M205.403,64.149l1.139,3.473c-1.822,0.996-3.473,1.594-6.234,1.594c-3.672,0-7.372-1.964-7.372-7.287
			c0-4.412,3.273-7.116,6.888-7.116c3.871,0,6.775,1.907,6.775,7.429c0,0.313,0,0.626-0.028,0.968h-8.966
			c0.484,2.078,2.192,2.505,3.786,2.505C202.613,65.715,204.236,65.089,205.403,64.149z M202.044,60.449
			c0.114-1.85-0.939-2.504-2.078-2.504c-1.537,0-2.249,0.654-2.448,2.504H202.044z"/>
		<path fill="#00979D" d="M216.075,68.931h-4.526V55.24h4.127l0.086,2.021c1.395-1.793,3.188-2.448,4.953-2.448
			c2.448,0,4.583,1.366,4.583,4.868v9.251h-4.526v-7.799c0-1.878-0.854-2.22-1.85-2.22c-0.996,0-2.135,0.626-2.847,1.452V68.931z"/>
		<path fill="#00979D" d="M239.244,55.24h4.526v13.692h-3.985l-0.228-2.163c-1.395,1.793-3.103,2.448-4.867,2.448
			c-2.448,0-4.583-1.025-4.583-4.868V55.24h4.526v7.942c0,1.936,0.74,2.277,1.594,2.277c0.996,0,2.22-0.854,3.017-1.793V55.24z"/>
		<path fill="#00979D" d="M248.921,65.402h4.184v-6.633h-4.184v-3.53h8.71v10.162h4.327v3.53h-13.037V65.402z M255.411,48.266
			c1.395,0,2.534,1.139,2.534,2.533c0,1.395-1.139,2.505-2.534,2.505c-1.394,0-2.505-1.11-2.505-2.505
			C252.906,49.405,254.016,48.266,255.411,48.266z"/>
		<path fill="#00979D" d="M271.577,68.931h-4.526V55.24h4.127l0.086,2.021c1.395-1.793,3.188-2.448,4.952-2.448
			c2.448,0,4.583,1.366,4.583,4.868v9.251h-4.526v-7.799c0-1.878-0.854-2.22-1.85-2.22c-0.996,0-2.135,0.626-2.846,1.452V68.931z"/>
		<path fill="#00979D" d="M292.468,54.813c4.811,0,7.429,2.96,7.429,7.173c0,4.014-2.733,7.23-7.4,7.23
			c-4.64,0-7.515-2.732-7.515-7.23C284.982,57.973,287.943,54.813,292.468,54.813z M292.354,65.715c2.277,0,2.79-1.167,2.79-3.757
			c0-1.992-0.513-3.643-2.79-3.643c-1.964,0-2.618,1.366-2.618,3.643C289.736,64.491,290.59,65.715,292.354,65.715z"/>
	</g>
	<g>
		<g>
			<path fill="#00979D" d="M303.091,12.94h-0.616v-0.941h2.219v0.941h-0.616v3.533h-0.987V12.94z M304.858,11.999h1.186l0.442,1.545
				l0.511,1.801l0.523-1.859l0.442-1.488h1.104v4.475h-0.942v-2.359l-0.29,1.15l-0.325,1.209h-1.046l-0.348-1.186l-0.407-1.36v2.545
				h-0.848V11.999z"/>
		</g>
	</g>
</g>
<line fill="#00979D" stroke="#0E8A9C" stroke-miterlimit="10" x1="159.274" y1="11.999" x2="159.274" y2="105.43"/>
<g>
	<path fill="#00979D" d="M140.83,42.972c0-17.076-14.408-30.973-32.118-30.973l0,0c-1.632,0-3.292,0.111-4.942,0.349l0,0
		C90.013,14.31,80.802,24.211,75.647,31.802l0,0C70.478,24.211,61.27,14.31,47.509,12.347l0,0c-1.643-0.238-3.304-0.349-4.937-0.349
		l0,0c-17.717,0-32.121,13.897-32.121,30.973l0,0c0,17.083,14.404,30.973,32.107,30.973l0,0c1.643,0,3.307-0.109,4.95-0.34l0,0
		c13.76-1.976,22.969-11.877,28.138-19.476l0,0c5.156,7.599,14.366,17.5,28.124,19.476l0,0c1.65,0.231,3.309,0.34,4.955,0.34l0,0
		C126.426,73.945,140.83,60.055,140.83,42.972L140.83,42.972z M45.955,62.729c-1.128,0.16-2.272,0.245-3.396,0.245l0,0
		c-11.648,0-21.125-8.977-21.125-20.002l0,0c0-11.023,9.476-20.006,21.138-20.006l0,0c1.115,0,2.254,0.092,3.386,0.247l0,0
		c12.961,1.85,20.9,14.637,23.59,19.754l0,0C66.856,48.096,58.92,60.878,45.955,62.729L45.955,62.729z M81.741,42.972
		c2.69-5.122,10.619-17.909,23.586-19.759l0,0c1.124-0.155,2.272-0.247,3.386-0.247l0,0c11.654,0,21.135,8.983,21.135,20.006l0,0
		c0,11.025-9.479,20.002-21.122,20.002l0,0c-1.119,0-2.265-0.085-3.399-0.245l0,0C92.36,60.878,84.424,48.089,81.741,42.972
		L81.741,42.972z"/>
	<polygon fill="#00979D" points="33.721,46.164 53.004,46.164 53.004,46.164 53.004,39.946 53.004,39.946 33.721,39.946 
		33.721,39.946 33.721,46.164 	"/>
	<polygon fill="#00979D" points="110.852,46.164 117.372,46.164 117.372,46.164 117.372,39.946 117.372,39.946 110.852,39.946 
		110.852,39.946 110.852,33.408 110.852,33.408 104.621,33.408 104.621,33.408 104.621,39.946 104.621,39.946 98.091,39.946 
		98.091,39.946 98.091,46.164 98.091,46.164 104.621,46.164 104.621,46.164 104.621,52.704 104.621,52.704 110.852,52.704 
		110.852,52.704 110.852,46.164 	"/>
	<path fill="#00979D" d="M19.574,83.156l-5.629,17.941l0,0h4.543l0,0l0.917-3.676l0,0h5.159l0,0l0.996,3.676l0,0h4.715l0,0
		l-5.712-17.941l0,0H19.574L19.574,83.156z M20.259,93.979l1.627-6.571l0,0l1.772,6.571l0,0H20.259L20.259,93.979z"/>
	<path fill="#00979D" d="M47.187,89.149c0-3.448-1.875-5.992-6.839-5.992l0,0h-7.227l0,0v17.941l0,0h4.439l0,0v-5.686l0,0h2.239l0,0
		l2.694,5.686l0,0h5.245l0,0l-3.502-6.568l0,0C46.193,93.479,47.187,91.608,47.187,89.149L47.187,89.149z M39.908,91.85H37.56l0,0
		v-5.064l0,0h2.262l0,0c2.07,0,2.64,0.796,2.64,2.388l0,0C42.462,91.166,41.448,91.85,39.908,91.85L39.908,91.85z"/>
	<path fill="#00979D" d="M56.654,83.156h-5.873l0,0v17.941l0,0h5.9l0,0c7.612,0,8.906-4.891,8.906-9.135l0,0
		C65.587,86.329,63.357,83.156,56.654,83.156L56.654,83.156z M56.902,97.421H55.22l0,0V86.785l0,0h1.296l0,0
		c3.97,0,4.328,1.867,4.328,5.373l0,0C60.844,95.19,60.572,97.421,56.902,97.421L56.902,97.421z"/>
	<path fill="#00979D" d="M78.732,94.111c0,2.735-0.748,3.64-2.765,3.64l0,0c-1.68,0-2.734-0.687-2.734-3.663l0,0V83.156l0,0h-4.437
		l0,0v11.761l0,0c0,5.431,3.919,6.455,6.983,6.455l0,0c3.174,0,7.225-1.132,7.225-6.431l0,0V83.156l0,0h-4.271l0,0V94.111
		L78.732,94.111z"/>
	<polygon fill="#00979D" points="86.972,86.826 91.611,86.826 91.611,86.826 91.611,97.421 91.611,97.421 86.972,97.421 
		86.972,97.421 86.972,101.097 86.972,101.097 100.72,101.097 100.72,101.097 100.72,97.421 100.72,97.421 96.053,97.421 
		96.053,97.421 96.053,86.826 96.053,86.826 100.72,86.826 100.72,86.826 100.72,83.156 100.72,83.156 86.972,83.156 86.972,83.156 
		86.972,86.826 	"/>
	<polygon fill="#00979D" points="115.039,93.924 109.223,83.156 109.223,83.156 104.386,83.156 104.386,83.156 104.386,101.097 
		104.386,101.097 108.587,101.097 108.587,101.097 108.556,89.615 108.556,89.615 114.685,101.097 114.685,101.097 119.178,101.097 
		119.178,101.097 119.178,83.156 119.178,83.156 115.039,83.156 115.039,83.156 115.039,93.924 	"/>
	<path fill="#00979D" d="M129.645,82.922c-5.441,0-7.51,3.993-7.51,9.401l0,0c0,5.935,2.374,9.05,7.53,9.05l0,0
		c5.77,0,7.668-4.054,7.668-9.245l0,0C137.334,85.282,134.748,82.922,129.645,82.922L129.645,82.922z M129.665,97.751
		c-2.564,0-2.816-1.813-2.816-5.428l0,0c0-4.381,0.42-5.795,2.796-5.795l0,0c2.614,0,2.974,1.221,2.974,5.601l0,0
		C132.62,96.268,132.259,97.751,129.665,97.751L129.665,97.751z"/>
</g>
<g>
	<path fill="#00979D" d="M141.831,15.956c0,1.581-1.24,2.822-2.855,2.822c-1.598,0-2.873-1.241-2.873-2.822
		c0-1.547,1.275-2.788,2.873-2.788C140.591,13.169,141.831,14.409,141.831,15.956z M136.817,15.956c0,1.241,0.918,2.227,2.176,2.227
		c1.224,0,2.125-0.986,2.125-2.21c0-1.241-0.9-2.244-2.142-2.244C137.735,13.73,136.817,14.732,136.817,15.956z M138.534,17.418
		h-0.646V14.63c0.255-0.051,0.612-0.085,1.071-0.085c0.526,0,0.765,0.085,0.969,0.204c0.153,0.119,0.271,0.34,0.271,0.612
		c0,0.306-0.238,0.544-0.578,0.646v0.034c0.272,0.102,0.425,0.306,0.51,0.68c0.085,0.425,0.136,0.595,0.204,0.697h-0.697
		c-0.085-0.102-0.136-0.357-0.221-0.68c-0.051-0.306-0.221-0.441-0.578-0.441h-0.306V17.418z M138.551,15.837h0.306
		c0.357,0,0.646-0.119,0.646-0.408c0-0.255-0.188-0.425-0.595-0.425c-0.17,0-0.289,0.017-0.357,0.034V15.837z"/>
</g>
</svg>
