<?xml version="1.0" encoding="utf-8"?>
<!-- Generator: Adobe Illustrator 19.1.0, SVG Export Plug-In . SVG Version: 6.00 Build 0)  -->
<svg version="1.1" xmlns="http://www.w3.org/2000/svg" xmlns:xlink="http://www.w3.org/1999/xlink" x="0px" y="0px" width="237px"
	 height="28px" viewBox="0 0 237 28" enable-background="new 0 0 237 28" xml:space="preserve">
<symbol  id="user" viewBox="26.828 -12.79 22.379 24">
	<g>
		<path fill="#009DA5" d="M47.851-6.764c-1.875,0.882-2.812,2.756-2.859,4.956c-0.001,0.04-0.012,0.077-0.012,0.117v3.635h-0.012
			c0.001,0.04,0.012,0.077,0.012,0.117c0,3.278-2.112,6.061-5.043,7.08c-0.343,0.119-0.584,0.424-0.584,0.786l0,0.466
			c0,0.46-0.373,0.815-0.834,0.815h-2.087c-0.46,0-0.834-0.355-0.834-0.815l0-0.466c0-0.363-0.241-0.667-0.584-0.786
			c-2.931-1.019-5.043-3.802-5.043-7.08c0-0.04,0.011-0.077,0.012-0.117h-0.012v-3.635c0-0.04-0.011-0.077-0.012-0.117
			c-0.046-2.2-0.745-4.137-2.62-5.019c-0.303-0.142-0.511-0.428-0.511-0.762v-0.835c0-0.46,0.373-0.834,0.834-0.834l2.309,0.063
			h1.876h1.963c-0.039-0.058-0.077-0.119-0.07-0.193c0.177-1.908,1.782-3.402,3.736-3.402c1.954,0,3.559,1.494,3.736,3.402
			c0.007,0.074-0.031,0.135-0.07,0.193h1.962h1.876h2.547c0.46,0,0.834,0.373,0.834,0.834v0.835
			C48.361-7.192,48.153-6.907,47.851-6.764z M44.98-7.277h-1.876h-2.396h-6.464h-2.397h-1.876h-0.577
			c1.498,1.344,2.407,3.247,2.48,5.333l0.015,0.112v0.141v1.717h0.049l-0.038,1.955c-0.001,0.059-0.005,0.118-0.011,0.175
			c0.04,2.321,1.539,4.403,3.754,5.173c0,0,0.783,0.321,1.787,0.308c1.004-0.012,1.875-0.308,1.875-0.308
			c2.213-0.769,3.711-2.848,3.754-5.165l-0.008-0.06l-0.002-0.124l-0.026-1.955h0.037v-1.717c0-0.086,0.005-0.169,0.015-0.252
			c0.069-2.083,0.979-3.989,2.48-5.335H44.98z"/>
	</g>
	<path fill="#F3C600" d="M49.207,3.528c0-2.704-2.192-4.896-4.896-4.896s-4.896,2.192-4.896,4.896s2.192,4.896,4.896,4.896
		S49.207,6.232,49.207,3.528z"/>
</symbol>
<g id="Layer_2">
</g>
<g id="Layer_1">
	<g id="SERIAL">
	</g>
	<g id="EXAMPLE">
	</g>
	<g id="HELP">
	</g>
	<g id="New_Symbol_19">
	</g>
	<path fill="#E14A12" d="M151.357,8.27h3.616c3.108,0,4.275,1.469,4.275,3.918c0,2.505-1.676,3.992-4.144,3.992h-2.223v4.332h-1.526
		L151.357,8.27L151.357,8.27z M157.629,12.263c0-1.771-0.753-2.656-2.694-2.656h-2.053v5.274h2.128
		C156.517,14.881,157.629,14.184,157.629,12.263z"/>
	<path fill="#E14A12" d="M162.526,8.27h3.503c3.107,0,4.294,1.299,4.294,3.748c0,1.695-0.866,2.9-2.26,3.428l2.995,5.067h-1.808
		l-2.712-4.747h-2.486v4.747h-1.526L162.526,8.27L162.526,8.27z M168.704,12.075c0-1.808-0.791-2.467-2.712-2.467h-1.94v4.84h2.016
		C167.555,14.449,168.704,13.902,168.704,12.075z"/>
	<path fill="#E14A12" d="M184.827,14.411c0,3.654-2.204,6.291-5.65,6.291c-3.616,0-5.519-2.392-5.519-6.253
		c0-3.692,2.091-6.347,5.613-6.347C182.849,8.101,184.827,10.399,184.827,14.411z M183.188,14.411c0-3.183-1.167-4.992-3.918-4.992
		c-2.768,0-3.992,1.827-3.992,5.029c0,3.051,1.074,4.934,3.899,4.934C181.888,19.383,183.188,17.405,183.188,14.411z"/>
	<path fill="#E14A12" d="M190.195,19.515c0,2.016-1.13,3.485-3.221,3.974l-0.471-1.281c1.3-0.377,2.166-1.036,2.166-2.825V8.27
		h1.526V19.515z"/>
	<path fill="#E14A12" d="M201.74,8.27v1.337h-5.688v3.974h5.067v1.3h-5.067v4.295h5.688v1.337h-7.213V8.27H201.74z"/>
	<path fill="#E14A12" d="M213.945,19.929c-0.96,0.527-2.147,0.772-3.485,0.772c-3.409,0-5.669-1.808-5.669-6.216
		c0-4.106,2.373-6.385,5.857-6.385c1.243,0,2.43,0.302,3.146,0.734l-0.527,1.469c-0.697-0.565-1.695-0.885-2.656-0.885
		c-2.788,0-4.2,1.827-4.2,5.029c0,3.315,1.394,4.934,4.163,4.934c1.243,0,2.392-0.395,2.957-0.772L213.945,19.929z"/>
	<path fill="#E14A12" d="M225.02,9.607h-3.804v10.905h-1.526V9.607h-3.823V8.27h9.154L225.02,9.607L225.02,9.607z"/>
	<path fill="#E14A12" d="M233.213,17.48c0-3.145-5.895-2.147-5.895-6.159c0-1.921,1.638-3.221,3.767-3.221
		c1.374,0,2.486,0.377,3.258,0.829l-0.471,1.507c-0.565-0.527-1.657-1.017-2.693-1.017c-1.394,0-2.26,0.678-2.26,1.771
		c0,2.863,5.913,1.902,5.913,6.14c0,2.016-1.846,3.371-4.143,3.371c-1.488,0-2.806-0.565-3.598-1.055l0.509-1.507
		c0.697,0.602,1.978,1.262,3.108,1.262C231.951,19.401,233.213,18.78,233.213,17.48z"/>
	<polygon fill="#E14A12" points="143.83,12.002 145.872,14.044 143.83,16.086 139.556,20.359 137.514,18.317 141.787,14.044 
		137.49,9.749 139.533,7.707 	"/>
	<path fill="#00949C" d="M51.234,14.133c0-6.423-5.416-11.654-12.082-11.654c-0.612,0-1.24,0.045-1.854,0.131
		c-5.181,0.737-8.646,4.462-10.588,7.319c-1.942-2.857-5.409-6.581-10.583-7.319c-0.619-0.086-1.242-0.131-1.858-0.131
		c-6.664,0-12.085,5.231-12.085,11.654c0,6.426,5.422,11.655,12.082,11.655c0.615,0,1.242-0.047,1.862-0.131
		c5.175-0.743,8.641-4.466,10.583-7.329c1.942,2.863,5.407,6.586,10.588,7.329c0.614,0.084,1.242,0.131,1.862,0.131
		C45.818,25.789,51.234,20.56,51.234,14.133z M15.544,21.566c-0.429,0.062-0.855,0.097-1.278,0.097c-4.385,0-7.952-3.38-7.952-7.53
		c0-4.148,3.566-7.527,7.955-7.527c0.421,0,0.848,0.034,1.275,0.093c4.881,0.698,7.865,5.508,8.877,7.433
		C23.405,16.064,20.419,20.872,15.544,21.566z M29.008,14.133c1.008-1.929,3.996-6.735,8.87-7.433
		c0.427-0.06,0.858-0.093,1.274-0.093c4.387,0,7.951,3.379,7.951,7.527c0,4.15-3.564,7.53-7.944,7.53
		c-0.421,0-0.855-0.035-1.282-0.097C33.003,20.872,30.017,16.062,29.008,14.133z"/>
	<rect x="10.939" y="12.998" fill="#00949C" width="7.257" height="2.335"/>
	<polygon fill="#00949C" points="39.959,15.333 42.415,15.333 42.415,12.998 39.959,12.998 39.959,10.536 37.618,10.536 
		37.618,12.998 35.158,12.998 35.158,15.333 37.618,15.333 37.618,17.795 39.959,17.795 	"/>
	<path fill="#00949C" d="M52.103,2.94c-0.09-0.21-0.215-0.393-0.365-0.542c-0.148-0.15-0.328-0.271-0.53-0.361
		c-0.206-0.09-0.425-0.133-0.66-0.133c-0.236,0-0.458,0.043-0.662,0.133c-0.204,0.09-0.382,0.211-0.531,0.361
		c-0.149,0.149-0.273,0.333-0.363,0.542c-0.088,0.208-0.135,0.432-0.135,0.679c0,0.234,0.047,0.462,0.135,0.671
		c0.09,0.218,0.214,0.397,0.363,0.55c0.149,0.153,0.328,0.273,0.531,0.361c0.204,0.091,0.427,0.137,0.662,0.137
		c0.236,0,0.454-0.045,0.66-0.137c0.202-0.088,0.381-0.208,0.53-0.361c0.149-0.153,0.275-0.333,0.365-0.55
		c0.088-0.21,0.133-0.438,0.133-0.671C52.235,3.372,52.191,3.148,52.103,2.94z M51.728,4.141c-0.065,0.161-0.16,0.299-0.28,0.419
		c-0.122,0.122-0.256,0.217-0.408,0.29c-0.15,0.069-0.313,0.107-0.492,0.107c-0.179,0-0.348-0.038-0.501-0.107
		c-0.161-0.073-0.292-0.168-0.41-0.29c-0.114-0.12-0.206-0.258-0.273-0.419c-0.065-0.161-0.101-0.333-0.101-0.522
		c0-0.187,0.036-0.363,0.101-0.526c0.067-0.168,0.159-0.307,0.273-0.428c0.118-0.122,0.249-0.215,0.41-0.282
		c0.153-0.066,0.322-0.101,0.501-0.101c0.179,0,0.342,0.035,0.492,0.101c0.152,0.067,0.287,0.161,0.408,0.282
		c0.12,0.122,0.215,0.26,0.28,0.428c0.069,0.163,0.105,0.339,0.105,0.526C51.833,3.808,51.798,3.98,51.728,4.141z"/>
	<path fill="#00949C" d="M50.914,3.786c0.096-0.045,0.168-0.116,0.219-0.2c0.054-0.084,0.08-0.179,0.08-0.282
		c0-0.161-0.058-0.301-0.171-0.419c-0.116-0.12-0.309-0.176-0.582-0.176c-0.105,0-0.196,0-0.277,0.008
		c-0.082,0.004-0.159,0.011-0.236,0.018v1.691h0.427V3.868h0.172l0.297,0.557h0.481L50.914,3.786z M50.49,3.558
		c-0.058,0-0.099-0.004-0.127-0.013V3.089c0.028-0.008,0.075-0.017,0.138-0.017c0.182,0,0.273,0.085,0.273,0.245
		S50.681,3.558,50.49,3.558z"/>
	<path fill="#00949C" d="M80.397,11.965c0-1.686-0.755-2.319-2.547-2.319h-2.214v4.532h2.302
		C79.308,14.178,80.397,13.669,80.397,11.965z"/>
	<polygon fill="#00949C" points="98.054,15.636 101.866,15.636 99.951,9.91 	"/>
	<path fill="#00949C" d="M58.827,2.321v23.626h71.239V2.321H58.827z M68.047,20.01c-3.144,0-5.27-1.704-5.27-5.814
		c0-3.829,2.196-5.937,5.428-5.937c1.16,0,2.354,0.281,3.003,0.685l-0.474,1.317c-0.65-0.527-1.669-0.773-2.565-0.773
		c-2.6,0-3.882,1.686-3.882,4.673c0,3.092,1.282,4.637,3.865,4.637c1.141,0,2.318-0.334,2.862-0.685l0.352,1.194
		C70.47,19.782,69.277,20.01,68.047,20.01z M80.784,19.835l-2.459-4.445h-2.688v4.445h-1.422V8.417h3.689
		c2.881,0,3.988,1.212,3.988,3.496c0,1.598-0.808,2.705-2.126,3.197l2.705,4.725H80.784z M93.011,9.646h-6.324v3.724h5.727v1.212
		h-5.727v4.005h6.324v1.247h-7.746V8.417h7.746V9.646z M103.271,19.835l-1.019-3.022h-4.585l-0.983,3.022h-1.423l3.988-11.418h1.511
		l4.005,11.418H103.271z M114.656,9.646h-3.934v10.189h-1.423V9.646h-3.952V8.417h9.31V9.646z M124.951,9.646h-6.324v3.724h5.727
		v1.212h-5.727v4.005h6.324v1.247h-7.746V8.417h7.746V9.646z"/>
</g>
</svg>
