<?xml version="1.0" encoding="utf-8"?>
<!-- Generator: Adobe Illustrator 19.1.0, SVG Export Plug-In . SVG Version: 6.00 Build 0)  -->
<svg version="1.1" id="Livello_1" xmlns="http://www.w3.org/2000/svg" xmlns:xlink="http://www.w3.org/1999/xlink" x="0px" y="0px"
	 width="360px" height="270px" viewBox="0 0 360 270" enable-background="new 0 0 360 270" xml:space="preserve">
<rect x="0" y="0" fill="#DAE3E3" width="360" height="270"/>
<path fill="#7F8C8D" d="M180.042,69.667c0.762,0,1.465,0.282,1.982,0.796l17.023,16.943l-3.961,3.942l-11.01-10.877l-1.25-1.236
	v1.759v29.465h-5.568V80.994v-1.757l-1.25,1.235l-11.01,10.877l-3.961-3.942l17.021-16.943
	C178.577,69.949,179.281,69.667,180.042,69.667 M214.527,101.554v30.647c0,3.581-2.775,6.446-6.3,6.52h-55.634v-0.004l-0.651-0.076
	c-3.495-0.405-6.398-3.3-6.469-6.44v-30.647h5.65v30.815v0.735h0.735h56.369h0.733v-0.735v-30.815H214.527"/>
<path fill="#7F8C8D" d="M84.145,167.627h2.25v7.544c0,3.169-2.431,4.339-4.987,4.339c-2.629,0-4.879-1.026-4.879-4.285v-7.598h2.341
	v7.202c0,2.179,0.882,2.772,2.629,2.772c1.71,0,2.646-0.756,2.646-2.809V167.627z"/>
<path fill="#7F8C8D" d="M89.722,167.627h4.069c3.133,0,4.321,1.62,4.321,3.907c0,2.448-1.566,4.068-4.394,4.068h-1.656v3.728h-2.341
	V167.627z M95.646,171.624c0-1.225-0.432-2.071-2.07-2.071h-1.513v4.124h1.585C94.907,173.677,95.646,173.118,95.646,171.624z"/>
<path fill="#7F8C8D" d="M102.899,167.627v9.74h4.808v1.963h-7.148v-11.703H102.899z"/>
<path fill="#7F8C8D" d="M120.523,173.496c0,3.421-2.125,6.014-5.708,6.014c-3.402,0-5.6-2.124-5.6-5.941
	c0-3.511,2.143-6.104,5.618-6.104C118.201,167.465,120.523,169.265,120.523,173.496z M118.057,173.496
	c0-2.953-1.008-4.105-3.223-4.105c-2.143,0-3.151,1.243-3.151,4.178c0,2.593,0.918,4.016,3.133,4.016
	C116.994,177.584,118.057,176.251,118.057,173.496z"/>
<path fill="#7F8C8D" d="M121.888,179.33l4.104-11.703h2.575l4.142,11.703h-2.467l-0.9-2.683h-4.231l-0.847,2.683H121.888z
	 M128.207,173.263l-1.026-3.367l-1.008,3.438l-0.469,1.477h3.025L128.207,173.263z"/>
<path fill="#7F8C8D" d="M134.757,167.627h4.285c4.268,0,5.888,2.34,5.888,5.653c0,3.421-1.17,6.05-5.905,6.05h-4.268V167.627z
	 M137.098,169.553v7.814h2.07c2.737,0,3.277-1.548,3.277-3.745c0-2.322-0.685-4.069-3.457-4.069H137.098z"/>
<path fill="#7F8C8D" d="M151.029,179.33l4.104-11.703h2.575l4.141,11.703h-2.466l-0.9-2.683h-4.231l-0.847,2.683H151.029z
	 M157.349,173.263l-1.026-3.367l-1.008,3.438l-0.469,1.477h3.025L157.349,173.263z"/>
<path fill="#7F8C8D" d="M177.276,178.592c-1.188,0.63-2.521,0.918-3.854,0.918c-3.511,0-5.546-1.962-5.546-5.978
	c0-3.853,2.467-6.067,5.852-6.067c1.207,0,2.539,0.306,3.457,0.864l-0.773,2.106c-0.864-0.666-1.873-1.045-2.791-1.045
	c-1.999,0-3.259,1.387-3.259,4.088c0,2.736,1.134,4.123,3.295,4.123c1.116,0,2.25-0.45,3.024-0.99L177.276,178.592z"/>
<path fill="#7F8C8D" d="M190.452,173.496c0,3.421-2.125,6.014-5.708,6.014c-3.402,0-5.6-2.124-5.6-5.941
	c0-3.511,2.143-6.104,5.618-6.104C188.129,167.465,190.452,169.265,190.452,173.496z M187.985,173.496
	c0-2.953-1.009-4.105-3.223-4.105c-2.143,0-3.151,1.243-3.151,4.178c0,2.593,0.918,4.016,3.133,4.016
	C186.923,177.584,187.985,176.251,187.985,173.496z"/>
<path fill="#7F8C8D" d="M196.173,173.604l0.973,3.709l0.954-3.709l1.747-5.978h2.395l-3.781,11.703h-2.737l-3.925-11.703h2.431
	L196.173,173.604z"/>
<path fill="#7F8C8D" d="M211.942,167.627v1.926h-5.258v2.846h4.718v1.908h-4.718v3.061h5.239v1.963h-7.58v-11.703H211.942z"/>
<path fill="#7F8C8D" d="M214.874,167.627h3.979c3.133,0,4.321,1.494,4.321,3.781c0,1.566-0.685,2.772-1.963,3.402l2.719,4.52h-2.755
	l-2.25-4.033h-1.711v4.033h-2.341V167.627z M220.708,171.443c0-1.314-0.54-1.891-2.07-1.891h-1.423v3.836h1.477
	C219.861,173.389,220.708,172.902,220.708,171.443z"/>
<path fill="#7F8C8D" d="M233.396,167.627v11.703h-2.341v-11.703H233.396z"/>
<path fill="#7F8C8D" d="M247.205,171.39l-1.171,3.547l-1.603,4.394h-2.557l-1.62-4.231l-1.278-3.637l0.018,3.421v4.447h-2.143
	v-11.703h2.809l1.945,4.915l1.62,4.628l1.566-4.664l1.909-4.897h2.683v11.722h-2.179V171.39z"/>
<path fill="#7F8C8D" d="M251.45,179.33l4.104-11.703h2.575l4.142,11.703h-2.467l-0.9-2.683h-4.231l-0.847,2.683H251.45z
	 M257.77,173.263l-1.026-3.367l-1.008,3.438l-0.469,1.477h3.025L257.77,173.263z"/>
<path fill="#7F8C8D" d="M273.305,173.532v4.844c-1.152,0.684-2.719,1.134-4.105,1.134c-3.367,0-5.582-1.944-5.582-6.031
	c0-4.123,2.737-6.014,6.032-6.014c1.278,0,2.521,0.324,3.547,0.882l-0.792,2.143c-0.864-0.702-1.891-1.099-2.845-1.099
	c-2.053,0-3.476,1.152-3.476,4.052c0,3.079,1.53,4.159,3.547,4.159c0.469,0,0.937-0.072,1.369-0.216v-3.854H273.305z"/>
<path fill="#7F8C8D" d="M283.852,167.627v1.926h-5.258v2.846h4.718v1.908h-4.718v3.061h5.239v1.963h-7.58v-11.703H283.852z"/>
</svg>
