<?xml version="1.0" encoding="utf-8"?>
<!-- Generator: Adobe Illustrator 19.1.0, SVG Export Plug-In . SVG Version: 6.00 Build 0)  -->
<svg version="1.1" id="Layer_1" xmlns="http://www.w3.org/2000/svg" xmlns:xlink="http://www.w3.org/1999/xlink" x="0px" y="0px"
	 width="682px" height="264.7px" viewBox="-79 148.6 682 264.7" style="enable-background:new -79 148.6 682 264.7;"
	 xml:space="preserve">
<style type="text/css">
	.st0{fill:#FFFFFF;}
</style>
<g>
	<path class="st0" d="M394.6,377.1c1,1,2.2,1.6,3.6,1.7c0.2,0,0.3,0,0.5,0c1.5,0,3-0.6,4.1-1.7c1.1-1.1,1.7-2.5,1.7-4.1
		c0-1.5-0.6-3-1.7-4.1c-1.1-1.1-2.5-1.7-4.1-1.7c-1.5,0-3,0.6-4.1,1.7c-1.1,1.1-1.7,2.5-1.7,4.1C392.9,374.5,393.5,376,394.6,377.1z
		 M395.7,370c0.8-0.8,1.8-1.2,2.9-1.2c0.1,0,0.2,0,0.4,0c1,0.1,1.9,0.5,2.6,1.2c0.8,0.8,1.2,1.8,1.2,2.9c0,0,0,0,0,0
		c0,1.1-0.4,2.2-1.2,2.9c-0.8,0.8-1.8,1.2-3,1.2c-1.1,0-2.2-0.4-2.9-1.2c-0.8-0.8-1.2-1.8-1.2-2.9
		C394.5,371.9,394.9,370.8,395.7,370z"/>
	<path class="st0" d="M555.8,358.3c0,1.5,0.6,3,1.7,4.1c1,1,2.2,1.6,3.6,1.7c0.2,0,0.3,0,0.5,0c3.2,0,5.8-2.6,5.8-5.8c0,0,0,0,0,0
		c0-1.5-0.6-3-1.7-4.1c-1.1-1.1-2.6-1.7-4.1-1.7c-1.5,0-3,0.6-4.1,1.7C556.4,355.3,555.8,356.7,555.8,358.3z M558.6,355.3
		c0.8-0.8,1.8-1.2,3-1.2c0.1,0,0.2,0,0.4,0c1,0.1,1.9,0.5,2.6,1.2c0.8,0.8,1.2,1.8,1.2,2.9c0,2.3-1.9,4.2-4.2,4.2
		c-1.1,0-2.2-0.4-2.9-1.2c-0.8-0.8-1.2-1.8-1.2-2.9C557.4,357.1,557.8,356.1,558.6,355.3z"/>
	<path class="st0" d="M423.8,332.9c-0.1,0.3-0.1,0.6,0.2,0.9l8.5,8.5c0.1,0.1,0.3,0.2,0.5,0.2c0,0,0,0,0.1,0l124.1,0.2
		c0.2,0,0.5-0.1,0.6-0.3c0.2-0.1,0.3-0.4,0.3-0.6l0-19.5c0-0.2-0.1-0.4-0.2-0.6l-8.4-8.4c-0.2-0.2-0.6-0.3-0.9-0.2
		c-0.1,0-0.2,0.1-0.3,0.2l-123.3-0.1c-0.2,0-0.4,0.1-0.6,0.2c-0.2,0.2-0.2,0.4-0.2,0.6l0,18.5C424,332.7,423.9,332.8,423.8,332.9z
		 M433.4,340.9l-6.6-6.6l-0.3-0.3l107.4,0.4l14.4,0l0,0l6.8,6.6L433.4,340.9z M549.7,315.9l6.7,6.7l0,17.2l-6.7-6.6l-0.3-0.3
		L549.7,315.9L549.7,315.9z M548,315l-0.2,17.8l-15.6-0.1l-106.5-0.4l0-17.5L548,315z"/>
	<path class="st0" d="M411.3,230.3C411.3,230.3,411.3,230.3,411.3,230.3c0-0.3,0-0.5-0.1-0.7c0-0.3-0.1-0.5-0.2-0.8
		c-0.1-0.3-0.2-0.5-0.3-0.8c-0.9-2-2.9-3.4-5.3-3.4c-2.3,0-4.4,1.4-5.3,3.4c-0.1,0.3-0.2,0.5-0.3,0.8c-0.1,0.3-0.1,0.5-0.2,0.8
		c0,0.2-0.1,0.5-0.1,0.7c0,3,2.3,5.5,5.3,5.8c0.2,0,0.3,0,0.5,0C408.7,236,411.3,233.4,411.3,230.3z M401.4,230.3
		c0-0.3,0-0.5,0.1-0.7c0.1-0.3,0.1-0.5,0.2-0.8c0.1-0.3,0.3-0.6,0.4-0.8c0.8-1.1,2-1.8,3.4-1.8c0.1,0,0.2,0,0.4,0
		c1.3,0.1,2.4,0.8,3.1,1.8c0.2,0.3,0.3,0.5,0.4,0.8c0.1,0.3,0.2,0.5,0.2,0.8c0,0.2,0.1,0.5,0.1,0.7c0,2.3-1.9,4.2-4.2,4.2
		C403.2,234.4,401.4,232.6,401.4,230.3z"/>
	<path class="st0" d="M557.5,275.9c1,1,2.2,1.6,3.6,1.7c0.2,0,0.3,0,0.5,0c1.5,0,3-0.6,4.1-1.7c1.1-1.1,1.7-2.5,1.7-4.1
		c0-1.5-0.6-3-1.7-4.1c-1.1-1.1-2.5-1.7-4.1-1.7c-3.2,0-5.8,2.6-5.8,5.8C555.8,273.3,556.4,274.8,557.5,275.9z M561.6,267.6
		c0.1,0,0.3,0,0.4,0c1,0.1,1.9,0.5,2.6,1.2c0.8,0.8,1.2,1.8,1.2,2.9c0,0,0,0,0,0c0,1.1-0.4,2.2-1.2,2.9c-0.8,0.8-1.8,1.2-2.9,1.2
		c-1.1,0-2.2-0.4-2.9-1.2c-0.8-0.8-1.2-1.8-1.2-3C557.4,269.5,559.3,267.6,561.6,267.6z"/>
	<path class="st0" d="M581.6,275.9c0-0.2-0.1-0.4-0.2-0.6l-7.1-7.1l0-33.5l0-0.2c0,0,0,0,0,0v-0.1c0-0.2-0.1-0.4-0.2-0.5l-4.7-5.6
		c-0.1-0.1-0.1-0.1-0.2-0.2l-8-8c0,0,0,0,0,0l-0.3-0.3c-0.2-0.2-0.4-0.3-0.6-0.3l-199,0c-0.2,0-0.4,0.1-0.6,0.2
		c-0.2,0.2-0.2,0.4-0.2,0.6l0,7.5l-21.7,0c-0.2,0-0.4,0.1-0.6,0.2c-0.2,0.2-0.2,0.4-0.2,0.6l0,35.6c0,0,0,0,0,0.1c0,0.1,0,0.1,0,0.2
		c0,0,0,0.1,0,0.1c0,0.1,0.1,0.1,0.1,0.2c0,0,0,0,0,0.1c0,0,0,0,0,0l12.3,12.3c0.1,0.1,0.3,0.2,0.5,0.2c0,0,0,0,0.1,0l9.4,0l0,107.9
		c0,0,0,0,0,0c0,0.1,0,0.2,0,0.2c0,0,0,0,0,0.1c0,0.1,0.1,0.2,0.1,0.2c0,0,0,0,0,0c0,0,0,0,0,0l8.5,8.5c0.1,0.1,0.3,0.2,0.5,0.2
		c0,0,0,0,0.1,0l203.7,0.1c0,0,0,0,0,0c0.1,0,0.3,0,0.4-0.1c0.3-0.1,0.5-0.4,0.5-0.7l0.2-5.8l2.3-2.7l4.6-4.9
		c0.1-0.1,0.2-0.3,0.2-0.6L581.6,275.9z M565.8,226.9l1,1l0.8,0.8l0.5,0.5l0.2,0.3l4.3,5.2l-0.3,31.6l0,0.6l-6.9-6.9l0.1-30.5l0-0.8
		l0-0.8l0-1.2L565.8,226.9z M339.5,229.3l20.9,0l0.8,0l0.8,0l6.9,0l0.8,0l18.5,0l0,0l0,0.1l0,33.8l-0.1,0l-17.6,0l-0.8,0l-0.8,0
		l-6.9,0l-0.8,0l-0.8,0l-21,0L339.5,229.3z M389.9,230.5l10.7,10.7l-0.2,33.3l-7.6-7.6l-2.9-2.9L389.9,230.5z M361.3,275.6l-0.8,0
		l-9.1,0l-10.7-10.7l19.8,0.1l0.8,0l0.8,0l6.9,0l0.8,0l0.8,0l18.1,0.1l10.6,10.6l-28.7,0l-0.8,0l-0.8,0l-6.9,0L361.3,275.6z
		 M362.1,277.2l6.9,0l0.8,0l0.8,0l30.7,0c0.1,0,0.2,0,0.3-0.1c0,0,0,0,0,0c0,0,0,0,0.1,0c0,0,0.1,0,0.1-0.1c0,0,0.1-0.1,0.1-0.1
		c0,0,0.1-0.1,0.1-0.1c0,0,0-0.1,0.1-0.1c0,0,0,0,0-0.1c0,0,0,0,0,0c0,0,0-0.1,0-0.1c0,0,0-0.1,0-0.1c0,0,0,0,0,0l0.2-35.6
		c0-0.2-0.1-0.4-0.2-0.6l-10.8-10.8l-0.8-0.8l-0.7-0.7l0,0c0,0,0,0-0.1,0c0,0-0.1,0-0.1-0.1c0,0-0.1,0-0.1-0.1c0,0-0.1,0-0.1,0
		c-0.1,0-0.1,0-0.2,0c0,0,0,0-0.1,0l-27-0.1l0-6.7l197.9,0l4.1,4.9l0,1.9l0,0.8l0,0.8l-0.1,30.8c0,0.2,0.1,0.4,0.2,0.6l7.4,7.4
		l0,102.3l-6.6,7.4c-0.1,0-0.3,0-0.4,0c-0.3,0.1-0.5,0.4-0.5,0.7l-0.4,5.4l-193.1,0.2l-0.8,0l-0.8,0l-5.5,0l-1.3,0L362.1,277.2z
		 M370.1,392.8l-0.3-0.3l-0.8-0.8l-5.7-5.7l0.7,0h5h0.8h0.8v0l193.3-0.2l0.2,0.2l7.3,6.9l0.1,0.1L370.1,392.8z M572.6,391.8
		l-6.9-6.5l-0.6-0.5l0-0.3l0.3-3.9l0.3,0.3l6.9,6.7l0.2,0.2l-0.1,4l0,0.1L572.6,391.8z M575.6,384.2l-1.7,2l-0.2,0.2l-0.1-0.1
		l-7.4-7.2l0,0l0,0l6.2-6.9l0.2,0.2l7.2,7.2L575.6,384.2z M573.2,370.6l0-101c0.1,0,0.1,0,0.2,0l6.6,6.6l0,101.2L573.2,370.6z"/>
	<path class="st0" d="M316,242.2c0,0,0-0.1,0-0.1c0-0.1,0-0.1,0-0.2c0,0,0-0.1-0.1-0.1c0,0,0-0.1-0.1-0.1l-4.1-4.9c0,0,0,0,0,0
		c0,0,0,0,0,0c0,0,0,0-0.1,0c-0.1,0-0.1-0.1-0.2-0.1c0,0-0.1,0-0.1,0c-0.1,0-0.1,0-0.2,0c0,0,0,0,0,0l-30.1,0.2l0-3.4
		c0-0.5-0.4-0.8-0.8-0.8l-45.2,0.4c-0.2,0-0.4,0.1-0.5,0.2l-5.5,4.8l-20.1,0.2c-0.5,0-0.8,0.4-0.8,0.8l0,2.8l-20.3,0.2c0,0,0,0,0,0
		c-2.4,0-4.4,1.9-4.6,4.2c-70.8-1.9-99.1-24.1-126.5-45.5c-23.8-18.6-46.2-36.2-92.3-39.2c-38.3-2.5-70.6,17.2-101.9,36.2
		c-35.1,21.4-68.2,41.5-110.1,34.4c-51.1-8.7-70.4-23.9-97-44.8c-15.4-12.1-32.9-25.8-59.7-40.8c-4.5-2.5-9.1-4.9-13.9-7.2
		c-0.2-0.1-0.5-0.1-0.8,0c-0.2,0.1-0.4,0.4-0.4,0.6l-1,11.1c0,0,0,0,0,0c0-0.1,0-0.2,0.1-0.3c0.2-0.4,0.7-0.6,1.1-0.4
		c0.2,0.1,0.3,0.2,0.5,0.3l0.8-9.3c4.4,2.1,8.6,4.3,12.8,6.6c26.7,14.9,44.2,28.6,59.5,40.6c26.9,21.1,46.3,36.3,97.8,45.1
		c2.9,0.5,5.8,0.9,8.7,1.1c38.4,3.3,69.6-15.7,102.6-35.7c31-18.9,63.1-38.4,100.9-35.9c45.6,3,67.8,20.4,91.4,38.9
		c27.6,21.6,56.1,44,127.5,45.9l0.1,8.8c-74.5-2-105.5-26.3-133-47.8c-22.5-17.6-43.7-34.2-86.5-37c-35-2.3-64.6,15.7-95.8,34.7
		c-32.7,19.9-66.6,40.5-108,36.9c-3.1-0.3-6.2-0.7-9.3-1.2c-53.7-9.2-74.9-25.8-101.7-46.9c-15.1-11.9-32.2-25.3-58.3-39.8
		c-3.1-1.7-6.2-3.3-9.3-4.9l0,0.6c0,0.5-0.4,0.8-0.9,0.8c-0.1,0-0.2,0-0.3-0.1c0,0,0,0,0,0c3.3,1.6,6.5,3.3,9.7,5.1
		c26,14.5,43.1,27.9,58.2,39.7c27,21.2,48.3,38,102.5,47.2c3.1,0.5,6.3,0.9,9.4,1.2c0,0,0,0,0,0c41.9,3.6,76-17.1,109-37.2
		c31-18.9,60.3-36.7,94.8-34.5c42.4,2.8,63.4,19.2,85.7,36.7c27.7,21.7,58.9,46.1,134.1,48.1l0,2.8c0,0,0,0,0,0
		c-75-1.9-106.1-26.3-133.7-47.9C26.9,195.5,5.8,178.9-37,176.1c-34.9-2.3-64.4,15.7-95.6,34.7c-32.8,19.9-66.7,40.6-108.2,37
		c-3.1-0.3-6.2-0.7-9.3-1.2c-53.8-9.2-75-25.8-101.9-46.9c-15.1-11.9-32.2-25.3-58.3-39.8c-3.2-1.8-6.5-3.5-9.8-5.2
		c-0.2-0.1-0.5,0-0.7,0.2c-0.1,0.2,0,0.5,0.2,0.7c3.3,1.6,6.5,3.4,9.7,5.1c26,14.5,43.1,27.9,58.2,39.8
		c27,21.2,48.3,37.9,102.3,47.1c3.1,0.5,6.3,0.9,9.4,1.2c0,0,0,0,0,0c41.8,3.6,75.9-17.1,108.8-37.1c31.1-18.9,60.4-36.8,95-34.5
		c42.5,2.8,63.5,19.2,85.9,36.7c27.7,21.7,59,46.2,134.4,48c0.5,2,2.1,3.4,4.2,3.6c0.1,0,0.3,0,0.4,0l20.8-0.2l1.8,4.1c0,0,0,0,0,0
		c0,0.5,0.4,0.8,0.8,0.8l20.1-0.2l5.6,4.7c0,0,0,0,0,0c0,0,0.1,0.1,0.1,0.1c0,0,0,0,0.1,0c0.1,0,0.2,0,0.2,0.1c0,0,0,0,0,0
		c0,0,0,0,0.1,0l45.2-0.4c0.2,0,0.4-0.1,0.6-0.2c0,0,0,0,0,0c0.3-0.2,0.4-0.6,0.2-1l0-0.1l0-3.2l31.9-0.3c0,0,0.1,0,0.1,0
		c0.1,0,0.1,0,0.2,0c0.1,0,0.1-0.1,0.1-0.1c0,0,0.1,0,0.1-0.1c0,0,0,0,0,0c0,0,0,0,0,0c0,0,0-0.1,0.1-0.1c0,0,0.1-0.1,0.1-0.1
		c0,0,0-0.1,0-0.1c0-0.1,0-0.1,0-0.2c0,0,0,0,0,0l-0.2-26.6L316,242.2z M283.2,238.3l27.1-0.2l0.1,8.2l0.1,17l-20.6,0.2l-8.7,0.1
		l-0.2-24.1l0-0.7l0-0.1l0-0.3L283.2,238.3z M207.9,243.2l0,2.3l0,0.8l0,0.8l0.1,12.5l-2.9,0l-0.1-12.5l0-0.8l0-0.8l0-2.3
		L207.9,243.2z M204.4,243.2l0,2.3l0,0.8l0,0.8l0.1,12.5l-2.1,0l-0.1-12.5l0-0.8l0-0.8l0-2.3L204.4,243.2z M201.8,243.3l0,2.3l0,0.8
		l0,0.8l0.1,12.5l-2.1,0l-0.1-12.5l0-0.8l0-0.8l0-2.3L201.8,243.3z M199.2,243.3l0,2.3l0,0.8l0,0.8l0.1,12.5l-2.1,0l-0.1-12.5l0-0.8
		l0-0.8l0-2.3L199.2,243.3z M196.5,243.3l0,2.3l0,0.8l0,0.8l0.1,12.5l-2.1,0l-0.1-12.5l0-0.8l0-0.8l0-2.3L196.5,243.3z M184.7,257.6
		c-0.1-0.3-0.1-0.5-0.1-0.8l0-0.4l-0.1-8.2l0-0.6l0-0.6l0-0.5c0-0.2,0-0.3,0-0.5c0.2-1.5,1.5-2.6,3-2.6l0,0l6.4,0l0,2.3l0,0.8l0,0.8
		l0.1,12.5l-6.3,0c-1.3,0-2.3-0.7-2.8-1.8C184.8,257.9,184.7,257.8,184.7,257.6z M187.8,263.9c-1.3,0-2.4-0.8-2.9-1.9
		c-0.1-0.3-0.2-0.7-0.2-1c0,0,0-0.1,0-0.1l0-0.3c0.2,0.2,0.4,0.3,0.6,0.4c0.6,0.3,1.2,0.5,1.9,0.6c0.1,0,0.3,0,0.4,0l0.2,0l20.1-0.2
		l0,2.3L187.8,263.9z M209.7,261.3l0-0.8l0-0.9l-0.1-12.3l0-0.8l0-0.8l0-2.3l0-0.9l0-0.8l0-2l19.6-0.2c0.2,0,0.4-0.1,0.5-0.2
		l5.5-4.8l44.1-0.3l0,2.5l0,0.8l0,0.3l0,0.8l0,0.2l0,0.6l0.2,24.9l0,0.8l0,2.5l-44.1,0.3l-5.6-4.7c-0.1-0.1-0.1-0.1-0.2-0.1
		c0,0,0,0-0.1,0c-0.1,0-0.1,0-0.2,0c0,0-0.1,0-0.1,0l0,0h0l-16.4,0.1l-1.1,0l-1.3,0l-0.8,0L209.7,261.3z M211.8,268.6l-1.5-3.5
		l-0.1-0.2l0.6,0l17.9-0.1l1.6,3.7L211.8,268.6z M233,269.4l-0.7-0.6l-0.8-1.8l2.9,2.5l0,0l0.8,1.8L233,269.4z M238,273.4l-1.6-3.7
		l43.4-0.3l1.7,3.7L238,273.4z M281.8,269.7l-0.2-0.5l-0.4-0.9l0-1.6l0.8,2.2c-0.1,0.1-0.1,0.2-0.1,0.4c0,0,0,0,0,0L281.8,269.7z
		 M283.9,268.4l-0.4,0l-1.1-3.3l5.5,0l23-0.2l2.8,3.3L283.9,268.4z M312.1,263.8l-0.1-18.9l0-5.4l2.5,3l0,0.4l0.2,23.9L312.1,263.8z
		"/>
	<path class="st0" d="M294,253.9l0,4.7c0,0.1,0,0.1,0.1,0.2c0,0,0.1,0.1,0.2,0.1c0,0,0,0,0,0l0.9,0l3.8,0c0.2,0,0.3-0.1,0.3-0.3
		l0-3.1l0-1.6c0-0.1,0-0.1-0.1-0.2c-0.1-0.1-0.1-0.1-0.2-0.1l-4.7,0C294.1,253.6,294,253.8,294,253.9z M298.7,254.1l0,1.8l0,2.3
		l-2.8,0l-1.3,0l0-4.2L298.7,254.1z"/>
	<path class="st0" d="M294,248C294,248,294.1,248,294,248l4.7,0c0.1,0,0.1,0,0.2-0.1c0.1-0.1,0.1-0.1,0.1-0.2l0-4.7
		c0-0.2-0.1-0.3-0.3-0.3l-4.7,0c-0.1,0-0.1,0-0.2,0.1c-0.1,0.1-0.1,0.1-0.1,0.2l0,4.7C293.8,247.8,293.9,247.9,294,248z
		 M298.5,243.2l0,4.2l-4.2,0l0-4.2L298.5,243.2z"/>
</g>
</svg>
