<?xml version="1.0" encoding="utf-8"?>
<!-- Generator: Adobe Illustrator 19.1.0, SVG Export Plug-In . SVG Version: 6.00 Build 0)  -->
<svg version="1.1" id="Layer_1" xmlns="http://www.w3.org/2000/svg" xmlns:xlink="http://www.w3.org/1999/xlink" x="0px" y="0px"
	 width="20px" height="20px" viewBox="-410 288.28 20 20" enable-background="new -410 288.28 20 20" xml:space="preserve">
<g id="PREF2">
	<g id="EXAMPLE">
	</g>
	<g id="New_Symbol_27">
		<g id="New_Symbol">
		</g>
		<g id="New_Symbol_1">
		</g>
		<g id="New_Symbol_2">
		</g>
		<g id="New_Symbol_3">
		</g>
		<g id="New_Symbol_5">
		</g>
		<g id="New_Symbol_6">
		</g>
		<g id="New_Symbol_9">
		</g>
		<g id="New_Symbol_10">
		</g>
		<g id="New_Symbol_11">
		</g>
		<g id="New_Symbol_12">
		</g>
		<g id="New_Symbol_13">
		</g>
		<g id="New_Symbol_14">
		</g>
		<g id="New_Symbol_18">
		</g>
		<g id="New_Symbol_19">
			<g id="New_Symbol_15">
			</g>
			<g id="New_Symbol_16">
			</g>
			<g id="New_Symbol_17">
			</g>
			<g id="New_Symbol_42">
				<g id="New_Symbol_40">
					<g id="New_Symbol_3_">
					</g>
					<g id="New_Symbol_1_3_">
					</g>
					<g id="New_Symbol_1_1_">
					</g>
					<g id="New_Symbol_2_3_">
					</g>
					<g id="New_Symbol_3_1_">
					</g>
					<g id="New_Symbol_5_1_">
					</g>
					<g id="New_Symbol_6_2_">
					</g>
					<g id="New_Symbol_9_3_">
					</g>
					<g id="New_Symbol_10_2_">
						<g id="New_Symbol_10_1_">
						</g>
					</g>
					<g id="New_Symbol_11_2_">
					</g>
					<g id="New_Symbol_12_2_">
					</g>
					<g id="New_Symbol_13_2_">
					</g>
					<g id="New_Symbol_14_1_">
					</g>
					<g id="New_Symbol_19_1_">
					</g>
					<g id="New_Symbol_18_2_">
					</g>
					<g id="New_Symbol_17_1_">
					</g>
					<g id="New_Symbol_15_2_">
					</g>
					<g id="New_Symbol_16_3_">
					</g>
					<g id="New_Symbol_4_1_">
					</g>
					<g id="New_Symbol_7">
					</g>
					<g id="New_Symbol_20">
					</g>
					<g id="New_Symbol_1_">
					</g>
					<g id="New_Symbol_11_1_">
					</g>
					<g id="New_Symbol_6_1_">
					</g>
					<g id="New_Symbol_18_1_">
					</g>
					<g id="New_Symbol_16_1_">
					</g>
					<g id="New_Symbol_12_1_">
					</g>
					<g id="New_Symbol_16_2_">
					</g>
					<g id="New_Symbol_8_2_">
					</g>
					<g id="New_Symbol_8_1_">
					</g>
					<g id="New_Symbol_2_">
					</g>
					<g id="New_Symbol_13_1_">
					</g>
					<g id="New_Symbol_15_1_">
					</g>
					<g id="New_Symbol_2_1_">
					</g>
					<g id="New_Symbol_1_2_">
					</g>
					<g id="New_Symbol_9_1_">
					</g>
					<g id="New_Symbol_2_2_">
					</g>
					<g id="New_Symbol_9_2_">
					</g>
				</g>
			</g>
		</g>
		<g id="New_Symbol_4">
		</g>
		<g id="New_Symbol_8">
		</g>
		<g id="New_Symbol_27_1_">
		</g>
		<g id="New_Symbol_36">
		</g>
	</g>
</g>
<g id="CLOSE">
</g>
<path fill="#00979C" d="M-392.5,291.259c0-1.645-1.334-2.979-2.979-2.979s-2.979,1.334-2.979,2.979c0,1.318,0.861,2.423,2.048,2.816
	h-0.068c0,1.03-0.267,1.546-1.941,2.078l-3.419,1.168c-0.434,0.127-0.836,0.32-1.203,0.555v-3.823
	c1.151-0.412,1.979-1.502,1.979-2.794c0-1.645-1.334-2.979-2.979-2.979s-2.979,1.334-2.979,2.979c0,1.293,0.828,2.382,1.979,2.794
	v8.453c-1.151,0.412-1.979,1.502-1.979,2.794c0,1.645,1.334,2.979,2.979,2.979s2.979-1.334,2.979-2.979
	c0-1.293-0.828-2.382-1.979-2.794v-1.247c0-0.842,0.776-1.729,1.807-2.033l3.441-1.174c1.64-0.521,3.315-1.401,3.315-3.978h-0.069
	C-393.361,293.682-392.5,292.577-392.5,291.259z M-404.042,306.28c-0.54,0-0.979-0.439-0.979-0.979s0.439-0.979,0.979-0.979
	s0.979,0.439,0.979,0.979S-403.502,306.28-404.042,306.28z M-404.042,290.28c0.54,0,0.979,0.439,0.979,0.979
	s-0.439,0.979-0.979,0.979s-0.979-0.439-0.979-0.979S-404.582,290.28-404.042,290.28z M-395.479,292.238
	c-0.54,0-0.979-0.439-0.979-0.979s0.439-0.979,0.979-0.979s0.979,0.439,0.979,0.979S-394.939,292.238-395.479,292.238z"/>
</svg>
