<?xml version="1.0" encoding="utf-8"?>
<!-- Generator: Adobe Illustrator 19.1.0, SVG Export Plug-In . SVG Version: 6.00 Build 0)  -->
<svg version="1.1" id="Layer_1" xmlns="http://www.w3.org/2000/svg" xmlns:xlink="http://www.w3.org/1999/xlink" x="0px" y="0px"
	 width="20px" height="19.7px" viewBox="-169 126.3 20 19.7" enable-background="new -169 126.3 20 19.7" xml:space="preserve">
<g id="PREF2">
	<g id="EXAMPLE">
	</g>
	<g id="New_Symbol_27">
		<g id="New_Symbol">
		</g>
		<g id="New_Symbol_1">
		</g>
		<g id="New_Symbol_2">
		</g>
		<g id="New_Symbol_3">
		</g>
		<g id="New_Symbol_5">
		</g>
		<g id="New_Symbol_6">
		</g>
		<g id="New_Symbol_9">
		</g>
		<g id="New_Symbol_10">
		</g>
		<g id="New_Symbol_11">
		</g>
		<g id="New_Symbol_12">
		</g>
		<g id="New_Symbol_13">
		</g>
		<g id="New_Symbol_14">
		</g>
		<g id="New_Symbol_18">
		</g>
		<g id="New_Symbol_19">
			<g id="New_Symbol_15">
			</g>
			<g id="New_Symbol_16">
			</g>
			<g id="New_Symbol_17">
			</g>
			<g id="New_Symbol_42">
				<g id="New_Symbol_40">
					<g id="New_Symbol_3_">
					</g>
					<g id="New_Symbol_1_3_">
					</g>
					<g id="New_Symbol_1_1_">
					</g>
					<g id="New_Symbol_2_3_">
					</g>
					<g id="New_Symbol_3_1_">
					</g>
					<g id="New_Symbol_5_1_">
					</g>
					<g id="New_Symbol_6_2_">
					</g>
					<g id="New_Symbol_9_3_">
					</g>
					<g id="New_Symbol_10_2_">
						<g id="New_Symbol_10_1_">
						</g>
					</g>
					<g id="New_Symbol_11_2_">
					</g>
					<g id="New_Symbol_12_2_">
					</g>
					<g id="New_Symbol_13_2_">
					</g>
					<g id="New_Symbol_14_1_">
					</g>
					<g id="New_Symbol_19_1_">
					</g>
					<g id="New_Symbol_18_2_">
					</g>
					<g id="New_Symbol_17_1_">
					</g>
					<g id="New_Symbol_15_2_">
					</g>
					<g id="New_Symbol_16_3_">
					</g>
					<g id="New_Symbol_4_1_">
					</g>
					<g id="New_Symbol_7">
					</g>
					<g id="New_Symbol_20">
					</g>
					<g id="New_Symbol_1_">
					</g>
					<g id="New_Symbol_11_1_">
					</g>
					<g id="New_Symbol_6_1_">
					</g>
					<g id="New_Symbol_18_1_">
					</g>
					<g id="New_Symbol_16_1_">
					</g>
					<g id="New_Symbol_12_1_">
					</g>
					<g id="New_Symbol_16_2_">
					</g>
					<g id="New_Symbol_8_2_">
					</g>
					<g id="New_Symbol_8_1_">
					</g>
					<g id="New_Symbol_2_">
					</g>
					<g id="New_Symbol_13_1_">
					</g>
					<g id="New_Symbol_15_1_">
					</g>
					<g id="New_Symbol_2_1_">
					</g>
					<g id="New_Symbol_1_2_">
					</g>
					<g id="New_Symbol_9_1_">
					</g>
					<g id="New_Symbol_2_2_">
					</g>
					<g id="New_Symbol_9_2_">
					</g>
				</g>
			</g>
		</g>
		<g id="New_Symbol_4">
		</g>
		<g id="New_Symbol_8">
		</g>
		<g id="New_Symbol_27_1_">
		</g>
		<g id="New_Symbol_36">
		</g>
	</g>
</g>
<g id="CLOSE">
</g>
<path fill="#879191" d="M-163,140.65h-3c-1.7,0-3-1.3-3-3v-3c0-1.7,1.3-3,3-3h7c1.7,0,3,1.3,3,3v3h-2v-3c0-0.6-0.4-1-1-1h-7
	c-0.6,0-1,0.4-1,1v3c0,0.6,0.4,1,1,1h3V140.65z"/>
<path fill="#879191" d="M-152,140.65h-7c-1.7,0-3-1.3-3-3v-3h2v3c0,0.6,0.4,1,1,1h7c0.6,0,1-0.4,1-1v-3c0-0.6-0.4-1-1-1h-3v-2h3
	c1.7,0,3,1.3,3,3v3C-149,139.35-150.3,140.65-152,140.65z"/>
</svg>
