<?xml version="1.0" encoding="utf-8"?>
<!-- Generator: Adobe Illustrator 19.1.0, SVG Export Plug-In . SVG Version: 6.00 Build 0)  -->
<svg version="1.1" id="Layer_1" xmlns="http://www.w3.org/2000/svg" xmlns:xlink="http://www.w3.org/1999/xlink" x="0px" y="0px"
	 width="20px" height="20px" viewBox="-169 126 20 20" enable-background="new -169 126 20 20" xml:space="preserve">
<g id="PREF2">
	<g id="EXAMPLE">
	</g>
	<g id="New_Symbol_27">
		<g id="New_Symbol">
		</g>
		<g id="New_Symbol_1">
		</g>
		<g id="New_Symbol_2">
		</g>
		<g id="New_Symbol_3">
		</g>
		<g id="New_Symbol_5">
		</g>
		<g id="New_Symbol_6">
		</g>
		<g id="New_Symbol_9">
		</g>
		<g id="New_Symbol_10">
		</g>
		<g id="New_Symbol_11">
		</g>
		<g id="New_Symbol_12">
		</g>
		<g id="New_Symbol_13">
		</g>
		<g id="New_Symbol_14">
		</g>
		<g id="New_Symbol_18">
		</g>
		<g id="New_Symbol_19">
			<g id="New_Symbol_15">
			</g>
			<g id="New_Symbol_16">
			</g>
			<g id="New_Symbol_17">
			</g>
			<g id="New_Symbol_42">
				<g id="New_Symbol_40">
					<g id="New_Symbol_3_">
					</g>
					<g id="New_Symbol_1_3_">
					</g>
					<g id="New_Symbol_1_1_">
					</g>
					<g id="New_Symbol_2_3_">
					</g>
					<g id="New_Symbol_3_1_">
					</g>
					<g id="New_Symbol_5_1_">
					</g>
					<g id="New_Symbol_6_2_">
					</g>
					<g id="New_Symbol_9_3_">
					</g>
					<g id="New_Symbol_10_2_">
						<g id="New_Symbol_10_1_">
						</g>
					</g>
					<g id="New_Symbol_11_2_">
					</g>
					<g id="New_Symbol_12_2_">
					</g>
					<g id="New_Symbol_13_2_">
					</g>
					<g id="New_Symbol_14_1_">
					</g>
					<g id="New_Symbol_19_1_">
					</g>
					<g id="New_Symbol_18_2_">
					</g>
					<g id="New_Symbol_17_1_">
					</g>
					<g id="New_Symbol_15_2_">
					</g>
					<g id="New_Symbol_16_3_">
					</g>
					<g id="New_Symbol_4_1_">
					</g>
					<g id="New_Symbol_7">
					</g>
					<g id="New_Symbol_20">
					</g>
					<g id="New_Symbol_1_">
					</g>
					<g id="New_Symbol_11_1_">
					</g>
					<g id="New_Symbol_6_1_">
					</g>
					<g id="New_Symbol_18_1_">
					</g>
					<g id="New_Symbol_16_1_">
					</g>
					<g id="New_Symbol_12_1_">
					</g>
					<g id="New_Symbol_16_2_">
					</g>
					<g id="New_Symbol_8_2_">
					</g>
					<g id="New_Symbol_8_1_">
					</g>
					<g id="New_Symbol_2_">
					</g>
					<g id="New_Symbol_13_1_">
					</g>
					<g id="New_Symbol_15_1_">
					</g>
					<g id="New_Symbol_2_1_">
					</g>
					<g id="New_Symbol_1_2_">
					</g>
					<g id="New_Symbol_9_1_">
					</g>
					<g id="New_Symbol_2_2_">
					</g>
					<g id="New_Symbol_9_2_">
					</g>
				</g>
			</g>
		</g>
		<g id="New_Symbol_4">
		</g>
		<g id="New_Symbol_8">
		</g>
		<g id="New_Symbol_27_1_">
		</g>
		<g id="New_Symbol_36">
		</g>
	</g>
</g>
<g id="CLOSE">
</g>
<g>
	<path fill="#FFFFFF" d="M-155.6,126h-0.7h-1.6h-5.7c-0.9,0-1.6,0.6-1.6,1.5v3.1h-2.2c-0.8,0-1.5,0.6-1.6,1.4v12.3
		c0,0.9,0.8,1.6,1.6,1.7h11.4c0.9,0,1.6-0.8,1.6-1.7v-2.1h3.8c0.9,0,1.6-0.8,1.6-1.7v-5.6v-1.6v-0.7L-155.6,126z M-156,144.4h-11.4
		v-12.2h2.1v8.4c0,0.9,0.8,1.6,1.6,1.7l0,0h7.7V144.4z M-150.6,140.6h-13v-13h5.7v7.3h7.3V140.6z M-156.3,133.3v-5.7l5.7,5.7
		C-150.6,133.3-156.3,133.3-156.3,133.3z"/>
</g>
</svg>
