<?xml version="1.0" encoding="utf-8"?>
<!-- Generator: Adobe Illustrator 19.1.0, SVG Export Plug-In . SVG Version: 6.00 Build 0)  -->
<svg version="1.1" id="Layer_1" xmlns="http://www.w3.org/2000/svg" xmlns:xlink="http://www.w3.org/1999/xlink" x="0px" y="0px"
	 width="20px" height="20px" viewBox="-410 288.28 20 20" enable-background="new -410 288.28 20 20" xml:space="preserve">
<g id="PREF2">
	<g id="EXAMPLE">
	</g>
	<g id="New_Symbol_27">
		<g id="New_Symbol">
		</g>
		<g id="New_Symbol_1">
		</g>
		<g id="New_Symbol_2">
		</g>
		<g id="New_Symbol_3">
		</g>
		<g id="New_Symbol_5">
		</g>
		<g id="New_Symbol_6">
		</g>
		<g id="New_Symbol_9">
		</g>
		<g id="New_Symbol_10">
		</g>
		<g id="New_Symbol_11">
		</g>
		<g id="New_Symbol_12">
		</g>
		<g id="New_Symbol_13">
		</g>
		<g id="New_Symbol_14">
		</g>
		<g id="New_Symbol_18">
		</g>
		<g id="New_Symbol_19">
			<g id="New_Symbol_15">
			</g>
			<g id="New_Symbol_16">
			</g>
			<g id="New_Symbol_17">
			</g>
			<g id="New_Symbol_42">
				<g id="New_Symbol_40">
					<g id="New_Symbol_3_">
					</g>
					<g id="New_Symbol_1_3_">
					</g>
					<g id="New_Symbol_1_1_">
					</g>
					<g id="New_Symbol_2_3_">
					</g>
					<g id="New_Symbol_3_1_">
					</g>
					<g id="New_Symbol_5_1_">
					</g>
					<g id="New_Symbol_6_2_">
					</g>
					<g id="New_Symbol_9_3_">
					</g>
					<g id="New_Symbol_10_2_">
						<g id="New_Symbol_10_1_">
						</g>
					</g>
					<g id="New_Symbol_11_2_">
					</g>
					<g id="New_Symbol_12_2_">
					</g>
					<g id="New_Symbol_13_2_">
					</g>
					<g id="New_Symbol_14_1_">
					</g>
					<g id="New_Symbol_19_1_">
					</g>
					<g id="New_Symbol_18_2_">
					</g>
					<g id="New_Symbol_17_1_">
					</g>
					<g id="New_Symbol_15_2_">
					</g>
					<g id="New_Symbol_16_3_">
					</g>
					<g id="New_Symbol_4_1_">
					</g>
					<g id="New_Symbol_7">
					</g>
					<g id="New_Symbol_20">
					</g>
					<g id="New_Symbol_1_">
					</g>
					<g id="New_Symbol_11_1_">
					</g>
					<g id="New_Symbol_6_1_">
					</g>
					<g id="New_Symbol_18_1_">
					</g>
					<g id="New_Symbol_16_1_">
					</g>
					<g id="New_Symbol_12_1_">
					</g>
					<g id="New_Symbol_16_2_">
					</g>
					<g id="New_Symbol_8_2_">
					</g>
					<g id="New_Symbol_8_1_">
					</g>
					<g id="New_Symbol_2_">
					</g>
					<g id="New_Symbol_13_1_">
					</g>
					<g id="New_Symbol_15_1_">
					</g>
					<g id="New_Symbol_2_1_">
					</g>
					<g id="New_Symbol_1_2_">
					</g>
					<g id="New_Symbol_9_1_">
					</g>
					<g id="New_Symbol_2_2_">
					</g>
					<g id="New_Symbol_9_2_">
					</g>
				</g>
			</g>
		</g>
		<g id="New_Symbol_4">
		</g>
		<g id="New_Symbol_8">
		</g>
		<g id="New_Symbol_27_1_">
		</g>
		<g id="New_Symbol_36">
		</g>
	</g>
</g>
<g id="CLOSE">
</g>
<path fill="#00979C" d="M-392.979,302.322c-0.801,0-1.526,0.32-2.061,0.835l-9.037-4.505c0.014-0.116,0.035-0.23,0.035-0.351
	c0-0.122-0.022-0.239-0.036-0.357l9.044-4.535c0.535,0.512,1.256,0.83,2.055,0.83c1.645,0,2.979-1.334,2.979-2.979
	c0-1.645-1.334-2.979-2.979-2.979c-1.645,0-2.979,1.334-2.979,2.979c0,0.122,0.022,0.239,0.036,0.357l-9.044,4.535
	c-0.535-0.511-1.256-0.83-2.055-0.83c-1.645,0-2.979,1.334-2.979,2.979c0,1.645,1.334,2.979,2.979,2.979
	c0.801,0,1.525-0.32,2.061-0.835l9.037,4.505c-0.014,0.116-0.035,0.23-0.035,0.35c0,1.645,1.334,2.979,2.979,2.979
	c1.645,0,2.979-1.334,2.979-2.979C-390,303.655-391.334,302.322-392.979,302.322z"/>
</svg>
