<?xml version="1.0" encoding="utf-8"?>
<!-- Generator: Adobe Illustrator 19.2.1, SVG Export Plug-In . SVG Version: 6.00 Build 0)  -->
<svg version="1.1" id="Layer_1" xmlns="http://www.w3.org/2000/svg" xmlns:xlink="http://www.w3.org/1999/xlink" x="0px" y="0px"
	 width="20px" height="20px" viewBox="0 0 20 20" style="enable-background:new 0 0 20 20;" xml:space="preserve">
<style type="text/css">
	.st0{fill:#879191;}
</style>
<path class="st0" d="M19,9.5c0.6,0,1-0.4,1-1s-0.4-1-1-1h-2v-1h2c0.6,0,1-0.4,1-1s-0.4-1-1-1h-2.4c-0.3-0.4-0.6-0.8-1.1-1.1V1
	c0-0.6-0.4-1-1-1s-1,0.4-1,1v2h-1V1c0-0.6-0.4-1-1-1c-0.6,0-1,0.4-1,1v2h-1V1c0-0.6-0.4-1-1-1s-1,0.4-1,1v2h-1V1c0-0.6-0.4-1-1-1
	s-1,0.4-1,1v2.4C4.1,3.7,3.7,4.1,3.4,4.5H1c-0.6,0-1,0.4-1,1s0.4,1,1,1h2v1H1c-0.6,0-1,0.4-1,1s0.4,1,1,1h2v1H1c-0.6,0-1,0.4-1,1
	s0.4,1,1,1h2v1H1c-0.6,0-1,0.4-1,1s0.4,1,1,1h2.4c0.3,0.4,0.6,0.8,1.1,1.1V19c0,0.6,0.4,1,1,1s1-0.4,1-1v-2h1v2c0,0.6,0.4,1,1,1
	s1-0.4,1-1v-2h1v2c0,0.6,0.4,1,1,1c0.6,0,1-0.4,1-1v-2h1v2c0,0.6,0.4,1,1,1s1-0.4,1-1v-2.4c0.4-0.3,0.8-0.6,1.1-1.1H19
	c0.6,0,1-0.4,1-1s-0.4-1-1-1h-2v-1h2c0.6,0,1-0.4,1-1s-0.4-1-1-1h-2v-1C17,9.5,19,9.5,19,9.5z M5.9,15c-0.5,0-1-0.4-1-1V5.9
	c0-0.5,0.4-1,1-1h8.1c0.5,0,1,0.4,1,1v8.1c0,0.5-0.4,1-1,1C14.1,15,5.9,15,5.9,15z"/>
</svg>
