<?xml version="1.0" encoding="utf-8"?>
<!-- Generator: Adobe Illustrator 17.1.0, SVG Export Plug-In . SVG Version: 6.00 Build 0)  -->
<!DOCTYPE svg PUBLIC "-//W3C//DTD SVG 1.1//EN" "http://www.w3.org/Graphics/SVG/1.1/DTD/svg11.dtd">
<svg version="1.1" id="Livello_1" xmlns="http://www.w3.org/2000/svg" xmlns:xlink="http://www.w3.org/1999/xlink" x="0px" y="0px"
	 width="360px" height="270px" viewBox="0 0 360 270" enable-background="new 0 0 360 270" xml:space="preserve">
<rect fill="#DAE3E3" width="360" height="270"/>
<g>
	<rect x="87.7" y="118.8" opacity="0.3" fill="#8C7965" width="85.3" height="14.6"/>
	<rect x="85.6" y="116.8" fill="#8C7965" width="85.3" height="14.6"/>
	<g>
		<defs>
			<rect id="SVGID_1_" x="85.6" y="116.8" width="85.3" height="14.6"/>
		</defs>
		<clipPath id="SVGID_2_">
			<use xlink:href="#SVGID_1_"  overflow="visible"/>
		</clipPath>
		<g clip-path="url(#SVGID_2_)">
			<g>
				<path fill="#FFF1CF" d="M91.8,122c0,0.6-0.5,1-1,1l0,0c-0.6,0-1-0.5-1-1v-6.1c0-0.6,0.5-1,1-1l0,0c0.6,0,1,0.5,1,1V122z"/>
			</g>
			<g>
				<path fill="#FFF1CF" d="M116.8,122c0,0.6-0.5,1-1,1l0,0c-0.6,0-1-0.5-1-1v-6.1c0-0.6,0.5-1,1-1l0,0c0.6,0,1,0.5,1,1V122z"/>
			</g>
			<g>
				<path fill="#FFF1CF" d="M98.1,117.8c0,0.6-0.5,1-1,1l0,0c-0.6,0-1-0.5-1-1v-2c0-0.6,0.5-1,1-1l0,0c0.6,0,1,0.5,1,1V117.8z"/>
			</g>
			<g>
				<path fill="#FFF1CF" d="M104.3,117.8c0,0.6-0.5,1-1,1l0,0c-0.6,0-1-0.5-1-1v-2c0-0.6,0.5-1,1-1l0,0c0.6,0,1,0.5,1,1V117.8z"/>
			</g>
			<g>
				<path fill="#FFF1CF" d="M110.6,117.8c0,0.6-0.5,1-1,1l0,0c-0.6,0-1-0.5-1-1v-2c0-0.6,0.5-1,1-1l0,0c0.6,0,1,0.5,1,1V117.8z"/>
			</g>
			<g>
				<path fill="#FFF1CF" d="M141.8,122c0,0.6-0.5,1-1,1l0,0c-0.6,0-1-0.5-1-1v-6.1c0-0.6,0.5-1,1-1l0,0c0.6,0,1,0.5,1,1V122z"/>
			</g>
			<g>
				<path fill="#FFF1CF" d="M123,117.8c0,0.6-0.5,1-1,1l0,0c-0.6,0-1-0.5-1-1v-2c0-0.6,0.5-1,1-1l0,0c0.6,0,1,0.5,1,1V117.8z"/>
			</g>
			<g>
				<path fill="#FFF1CF" d="M129.3,117.8c0,0.6-0.5,1-1,1l0,0c-0.6,0-1-0.5-1-1v-2c0-0.6,0.5-1,1-1l0,0c0.6,0,1,0.5,1,1V117.8z"/>
			</g>
			<g>
				<path fill="#FFF1CF" d="M135.5,117.8c0,0.6-0.5,1-1,1l0,0c-0.6,0-1-0.5-1-1v-2c0-0.6,0.5-1,1-1l0,0c0.6,0,1,0.5,1,1V117.8z"/>
			</g>
			<g>
				<path fill="#FFF1CF" d="M166.7,122c0,0.6-0.5,1-1,1l0,0c-0.6,0-1-0.5-1-1v-6.1c0-0.6,0.5-1,1-1l0,0c0.6,0,1,0.5,1,1V122z"/>
			</g>
			<g>
				<path fill="#FFF1CF" d="M148,117.8c0,0.6-0.5,1-1,1l0,0c-0.6,0-1-0.5-1-1v-2c0-0.6,0.5-1,1-1l0,0c0.6,0,1,0.5,1,1V117.8z"/>
			</g>
			<g>
				<path fill="#FFF1CF" d="M154.3,117.8c0,0.6-0.5,1-1,1l0,0c-0.6,0-1-0.5-1-1v-2c0-0.6,0.5-1,1-1l0,0c0.6,0,1,0.5,1,1V117.8z"/>
			</g>
			<g>
				<path fill="#FFF1CF" d="M160.5,117.8c0,0.6-0.5,1-1,1l0,0c-0.6,0-1-0.5-1-1v-2c0-0.6,0.5-1,1-1l0,0c0.6,0,1,0.5,1,1V117.8z"/>
			</g>
		</g>
	</g>
</g>
<g>
	<g opacity="0.3">
		<circle fill="#8C7965" cx="235.3" cy="125.2" r="9.4"/>
	</g>
	<g>
		<path fill="#FFF1CF" d="M233.2,131.4c-4.6,0-8.3-3.7-8.3-8.3s3.7-8.3,8.3-8.3s8.3,3.7,8.3,8.3S237.8,131.4,233.2,131.4z"/>
		<path fill="#8C7965" d="M233.2,115.8c4,0,7.3,3.3,7.3,7.3c0,4-3.3,7.3-7.3,7.3c-4,0-7.3-3.3-7.3-7.3
			C225.9,119.1,229.2,115.8,233.2,115.8 M233.2,113.7c-5.2,0-9.4,4.2-9.4,9.4c0,5.2,4.2,9.4,9.4,9.4c5.2,0,9.4-4.2,9.4-9.4
			C242.6,117.9,238.4,113.7,233.2,113.7L233.2,113.7z"/>
	</g>
	<g>
		<circle fill="#8C7965" cx="233.2" cy="123.1" r="5.2"/>
	</g>
</g>
<g>
	<g opacity="0.3">
		<circle fill="#8C7965" cx="127.4" cy="157.1" r="9.4"/>
	</g>
	<g>
		<path fill="#FFF1CF" d="M125.3,163.3c-4.6,0-8.3-3.7-8.3-8.3s3.7-8.3,8.3-8.3c4.6,0,8.3,3.7,8.3,8.3S129.9,163.3,125.3,163.3z"/>
		<path fill="#8C7965" d="M125.3,147.7c4,0,7.3,3.3,7.3,7.3c0,4-3.3,7.3-7.3,7.3c-4,0-7.3-3.3-7.3-7.3
			C118,151,121.3,147.7,125.3,147.7 M125.3,145.6c-5.2,0-9.4,4.2-9.4,9.4s4.2,9.4,9.4,9.4c5.2,0,9.4-4.2,9.4-9.4
			S130.5,145.6,125.3,145.6L125.3,145.6z"/>
	</g>
	<g>
		<circle fill="#8C7965" cx="125.3" cy="155" r="5.2"/>
	</g>
</g>
<g>
	<path opacity="0.3" fill="#8C7965" d="M339,46.1c-3.4,0-6.1,2.7-6.1,6.1s2.7,6.1,6.1,6.1s6.1-2.7,6.1-6.1S342.4,46.1,339,46.1z
		 M339,48.2L339,48.2c-0.6,0-1.1,0.1-1.6,0.3C337.9,48.3,338.4,48.2,339,48.2z M335.2,50.7c-0.2,0.5-0.3,1-0.3,1.6l0,0
		C334.9,51.7,335,51.1,335.2,50.7z M337.4,56c0.5,0.2,1,0.3,1.6,0.3l0,0C338.4,56.3,337.9,56.2,337.4,56z M343,52.2
		c0-0.6-0.1-1.1-0.3-1.6C342.9,51.1,343,51.7,343,52.2L343,52.2z"/>
	<g>
		<path fill="#FFF1CF" d="M336.7,55c-2.8,0-5.1-2.3-5.1-5.1s2.3-5.1,5.1-5.1c2.8,0,5.1,2.3,5.1,5.1S339.5,55,336.7,55z"/>
		<path fill="#8C7965" d="M336.7,45.9c2.2,0,4,1.8,4,4s-1.8,4-4,4s-4-1.8-4-4S334.4,45.9,336.7,45.9 M336.7,43.8
			c-3.4,0-6.1,2.7-6.1,6.1c0,3.4,2.7,6.1,6.1,6.1s6.1-2.7,6.1-6.1C342.8,46.5,340,43.8,336.7,43.8L336.7,43.8z"/>
	</g>
	<g>
		<circle fill="#31AA93" cx="336.7" cy="49.9" r="2.9"/>
	</g>
</g>
<g>
	<circle fill="#8C7965" cx="29.3" cy="151.3" r="4.2"/>
	<polyline fill="none" stroke="#8C7965" stroke-width="2.0805" stroke-miterlimit="10" points="32.4,151.3 32.4,128.4 49,126.4 
		49,149.3 	"/>
	<circle fill="#8C7965" cx="45.9" cy="149.3" r="4.2"/>
</g>
<g>
	<circle fill="#8C7965" cx="166.5" cy="79.3" r="1"/>
	<circle fill="#8C7965" cx="172.8" cy="79.3" r="1"/>
	<circle fill="#8C7965" cx="179" cy="79.3" r="1"/>
	<circle fill="#8C7965" cx="185.3" cy="79.3" r="1"/>
	<circle fill="#8C7965" cx="191.5" cy="79.3" r="1"/>
	<circle fill="#8C7965" cx="172.8" cy="73.1" r="1"/>
	<circle fill="#8C7965" cx="179" cy="73.1" r="1"/>
	<circle fill="#8C7965" cx="185.3" cy="73.1" r="1"/>
	<circle fill="#8C7965" cx="179" cy="66.8" r="1"/>
	<circle fill="#8C7965" cx="185.3" cy="66.8" r="1"/>
	<circle fill="#8C7965" cx="191.5" cy="73.1" r="1"/>
	<circle fill="#8C7965" cx="197.8" cy="79.3" r="1"/>
	<circle fill="#8C7965" cx="166.5" cy="85.5" r="1"/>
	<circle fill="#8C7965" cx="172.8" cy="85.5" r="1"/>
	<circle fill="#8C7965" cx="179" cy="85.5" r="1"/>
	<circle fill="#8C7965" cx="185.3" cy="85.5" r="1"/>
	<circle fill="#8C7965" cx="191.5" cy="85.5" r="1"/>
	<circle fill="#8C7965" cx="172.8" cy="91.8" r="1"/>
	<circle fill="#8C7965" cx="179" cy="91.8" r="1"/>
	<circle fill="#8C7965" cx="185.3" cy="91.8" r="1"/>
	<circle fill="#8C7965" cx="179" cy="98" r="1"/>
	<circle fill="#8C7965" cx="185.3" cy="98" r="1"/>
	<circle fill="#8C7965" cx="191.5" cy="91.8" r="1"/>
	<circle fill="#8C7965" cx="197.8" cy="85.5" r="1"/>
</g>
<g>
	<circle fill="#8C7965" cx="287.9" cy="228.1" r="1"/>
	<circle fill="#8C7965" cx="294.2" cy="228.1" r="1"/>
	<circle fill="#8C7965" cx="300.4" cy="228.1" r="1"/>
	<circle fill="#8C7965" cx="306.6" cy="228.1" r="1"/>
	<circle fill="#8C7965" cx="287.9" cy="221.8" r="1"/>
	<circle fill="#8C7965" cx="294.2" cy="221.8" r="1"/>
	<circle fill="#8C7965" cx="300.4" cy="221.8" r="1"/>
	<circle fill="#8C7965" cx="294.2" cy="215.6" r="1"/>
	<circle fill="#8C7965" cx="300.4" cy="215.6" r="1"/>
	<circle fill="#8C7965" cx="306.6" cy="221.8" r="1"/>
	<circle fill="#8C7965" cx="287.9" cy="234.3" r="1"/>
	<circle fill="#8C7965" cx="294.2" cy="234.3" r="1"/>
	<circle fill="#8C7965" cx="300.4" cy="234.3" r="1"/>
	<circle fill="#8C7965" cx="306.6" cy="234.3" r="1"/>
	<circle fill="#8C7965" cx="294.2" cy="240.5" r="1"/>
	<circle fill="#8C7965" cx="300.4" cy="240.5" r="1"/>
</g>
<g>
	<circle fill="#8C7965" cx="126" cy="184" r="1"/>
	<circle fill="#8C7965" cx="126" cy="190.3" r="1"/>
	<circle fill="#8C7965" cx="126" cy="196.5" r="1"/>
	<circle fill="#8C7965" cx="126" cy="202.7" r="1"/>
	<circle fill="#8C7965" cx="132.2" cy="184" r="1"/>
	<circle fill="#8C7965" cx="132.2" cy="190.3" r="1"/>
	<circle fill="#8C7965" cx="132.2" cy="196.5" r="1"/>
	<circle fill="#8C7965" cx="138.4" cy="190.3" r="1"/>
	<circle fill="#8C7965" cx="138.4" cy="196.5" r="1"/>
	<circle fill="#8C7965" cx="132.2" cy="202.7" r="1"/>
	<circle fill="#8C7965" cx="119.7" cy="184" r="1"/>
	<circle fill="#8C7965" cx="119.7" cy="190.3" r="1"/>
	<circle fill="#8C7965" cx="119.7" cy="196.5" r="1"/>
	<circle fill="#8C7965" cx="119.7" cy="202.7" r="1"/>
	<circle fill="#8C7965" cx="113.5" cy="190.3" r="1"/>
	<circle fill="#8C7965" cx="113.5" cy="196.5" r="1"/>
</g>
<g>
	<g>
		<path fill="#8C7965" d="M275.2,71.6c0,0.6-0.5,1-1,1H270c-0.6,0-1-0.5-1-1v-8.3c0-0.6,0.5-1,1-1h4.2c0.6,0,1,0.5,1,1V71.6z"/>
	</g>
	<rect x="266.9" y="64.3" fill="#FFF1CF" width="2.1" height="6.2"/>
	<circle fill="#FFF1CF" cx="272.1" cy="67.4" r="1"/>
	<g>
		<g>
			<path fill="#8C7965" d="M293.9,177.7c0,0.6,0.5,1,1,1h4.2c0.6,0,1-0.5,1-1v-8.3c0-0.6-0.5-1-1-1H295c-0.6,0-1,0.5-1,1V177.7z"/>
		</g>
		<rect x="300.2" y="170.4" fill="#FFF1CF" width="2.1" height="6.2"/>
		<circle fill="#FFF1CF" cx="297" cy="173.5" r="1"/>
	</g>
	<path fill="none" stroke="#FFF1CF" stroke-width="2.0805" stroke-miterlimit="10" d="M293.9,173.5h-20.8c0,0-5.2,0.7-5.2-5.2l0-2.1
		v-43.7c0,0-0.7-5.2,5.2-5.2h33.3c0,0,5.2-0.7,5.2,5.2c0,5.9-5.2,5.2-5.2,5.2s-5.2,0.7-5.2-5.2v-2.9"/>
	<path fill="none" stroke="#FFF1CF" stroke-width="2.0805" stroke-miterlimit="10" d="M275.2,67.4H296c0,0,5.2-0.7,5.2,5.2
		c0,4.6,0,32.9,0,44.7"/>
</g>
<g>
	<path opacity="0.3" fill="#8C7965" d="M347.8,175.7c0-4.1-2.6-7.5-6.2-8.8v-26.6c0-1.7-1.4-3.1-3.1-3.1c-1.7,0-3.1,1.4-3.1,3.1
		v26.6c-3.6,1.3-6.2,4.7-6.2,8.8c0,4.1,2.6,7.5,6.2,8.8v26.6c0,1.7,1.4,3.1,3.1,3.1c1.7,0,3.1-1.4,3.1-3.1v-26.6
		C345.2,183.2,347.8,179.8,347.8,175.7z"/>
	<g>
		<g>
			<path fill="#8C7965" d="M339.7,138.2c0-1.7-1.4-3.1-3.1-3.1l0,0c-1.7,0-3.1,1.4-3.1,3.1v70.7c0,1.7,1.4,3.1,3.1,3.1l0,0
				c1.7,0,3.1-1.4,3.1-3.1V138.2z"/>
		</g>
		<g>
			<path fill="#FFF1CF" d="M336.6,181.9c-4.6,0-8.3-3.7-8.3-8.3s3.7-8.3,8.3-8.3s8.3,3.7,8.3,8.3S341.2,181.9,336.6,181.9z"/>
			<path fill="#8C7965" d="M336.6,166.3c4,0,7.3,3.3,7.3,7.3c0,4-3.3,7.3-7.3,7.3c-4,0-7.3-3.3-7.3-7.3
				C329.3,169.5,332.5,166.3,336.6,166.3 M336.6,164.2c-5.2,0-9.4,4.2-9.4,9.4c0,5.2,4.2,9.4,9.4,9.4c5.2,0,9.4-4.2,9.4-9.4
				C345.9,168.4,341.7,164.2,336.6,164.2L336.6,164.2z"/>
		</g>
		<g>
			<path fill="#8C7965" d="M337.6,173.5c0,0.6-0.5,1-1,1l0,0c-0.6,0-1-0.5-1-1v-4.2c0-0.6,0.5-1,1-1l0,0c0.6,0,1,0.5,1,1V173.5z"/>
		</g>
		<g>
			<path fill="#8C7965" d="M336.6,174.6c-0.6,0-1-0.5-1-1l0,0c0-0.6,0.5-1,1-1h4.2c0.6,0,1,0.5,1,1l0,0c0,0.6-0.5,1-1,1H336.6z"/>
		</g>
		<circle fill="#FFF1CF" cx="336.6" cy="140.3" r="1"/>
		<circle fill="#FFF1CF" cx="336.6" cy="144.4" r="1"/>
		<circle fill="#FFF1CF" cx="336.6" cy="148.6" r="1"/>
	</g>
</g>
<g>
	<path fill="none" stroke="#8C7965" stroke-width="2.0805" stroke-linecap="round" stroke-miterlimit="10" d="M326.6,102.1
		c0,0,3.8-4,0-9.8c-3.8-5.7,0-9.8,0-9.8"/>
	<path fill="none" stroke="#8C7965" stroke-width="2.0805" stroke-linecap="round" stroke-miterlimit="10" d="M346.6,102.1
		c0,0,3.8-4,0-9.8c-3.8-5.7,0-9.8,0-9.8"/>
	<path fill="none" stroke="#8C7965" stroke-width="2.0805" stroke-linecap="round" stroke-miterlimit="10" d="M336.6,102.1
		c0,0,3.8-4,0-9.8c-3.8-5.7,0-9.8,0-9.8"/>
</g>
<g>
	<path fill="none" stroke="#8C7965" stroke-width="2.0805" stroke-linecap="round" stroke-miterlimit="10" d="M116.2,257
		c0,0,3.8-4,0-9.8c-3.8-5.7,0-9.8,0-9.8"/>
	<path fill="none" stroke="#8C7965" stroke-width="2.0805" stroke-linecap="round" stroke-miterlimit="10" d="M136.2,257
		c0,0,3.8-4,0-9.8c-3.8-5.7,0-9.8,0-9.8"/>
	<path fill="none" stroke="#8C7965" stroke-width="2.0805" stroke-linecap="round" stroke-miterlimit="10" d="M126.2,257
		c0,0,3.8-4,0-9.8c-3.8-5.7,0-9.8,0-9.8"/>
</g>
<g>
	<polygon opacity="0.3" fill="#8C7965" points="277.3,27.1 272.3,28.3 268.9,29.2 272.3,30 277.3,31.3 323,31.3 323,27.1 	"/>
	<g>
		<rect x="275.2" y="25" fill="#8C7965" width="45.8" height="4.2"/>
		<g>
			<polygon fill="#FFF1CF" points="275.2,25 270.2,26.3 270.2,27.9 275.2,29.2 			"/>
			<polygon fill="#8C7965" points="266.9,27.1 270.2,27.9 270.2,26.3 			"/>
		</g>
	</g>
</g>
<g>
	<polygon opacity="0.3" fill="#8C7965" points="87.6,174.8 86.4,169.9 85.5,166.5 84.7,169.9 83.4,174.8 83.4,220.6 87.6,220.6 	"/>
	<g>
		<rect x="81.6" y="172.7" fill="#8C7965" width="4.2" height="45.8"/>
		<g>
			<polygon fill="#FFF1CF" points="85.8,172.7 84.5,167.8 82.8,167.8 81.6,172.7 			"/>
			<polygon fill="#8C7965" points="83.7,164.4 82.8,167.8 84.5,167.8 			"/>
		</g>
	</g>
</g>
<g>
	<g>
		<g opacity="0.3">
			<path fill="#8C7965" d="M247.8,87.5c0,2.3-1.9,4.2-4.2,4.2H227c-2.3,0-4.2-1.9-4.2-4.2V48c0-2.3,1.9-4.2,4.2-4.2h16.6
				c2.3,0,4.2,1.9,4.2,4.2V87.5z"/>
		</g>
		<g>
			<path fill="#8C7965" d="M245.7,85.5c0,2.3-1.9,4.2-4.2,4.2h-16.6c-2.3,0-4.2-1.9-4.2-4.2V45.9c0-2.3,1.9-4.2,4.2-4.2h16.6
				c2.3,0,4.2,1.9,4.2,4.2V85.5z"/>
		</g>
		<rect x="222.8" y="45.9" fill="#FFF1CF" width="20.8" height="37.4"/>
		<circle fill="#FFF1CF" cx="233.2" cy="86.4" r="1.7"/>
	</g>
	<g>
		<circle fill="#E67E22" cx="233.2" cy="18.4" r="11.4"/>
		<g>
			<path fill="#FFF1CF" d="M233.2,21.9c0.9,0,1.6,0.5,1.6,1.5c0,1-0.6,1.5-1.6,1.5c-1,0-1.6-0.5-1.6-1.5
				C231.6,22.4,232.2,21.9,233.2,21.9z M234.4,11.1v4.6l-0.2,4.2h-2l-0.2-4.2v-4.6H234.4z"/>
		</g>
		<polygon fill="#E67E22" points="233.2,28.8 230.9,28.8 233.2,35 235.6,28.8 		"/>
	</g>
</g>
<g>
	<circle fill="#FFF1CF" cx="182.1" cy="43.5" r="5.2"/>
	<path fill="#FFF1CF" d="M182.1,30.5c0,0-1.7,5.1-3.1,7.1c-1.6,2.3-2.1,3.3-2.1,5.9h5.2V30.5z"/>
	<path fill="#FFF1CF" d="M182.1,30.5c0,0,1.7,5.1,3.1,7.1c1.6,2.3,2.1,3.3,2.1,5.9h-5.2V30.5z"/>
</g>
<g>
	<circle fill="#FFF1CF" cx="37" cy="195.1" r="5.2"/>
	<path fill="#FFF1CF" d="M37,182c0,0-1.7,5.1-3.1,7.1c-1.6,2.3-2.1,3.3-2.1,5.9H37V182z"/>
	<path fill="#FFF1CF" d="M37,182c0,0,1.7,5.1,3.1,7.1c1.6,2.3,2.1,3.3,2.1,5.9H37V182z"/>
</g>
<g>
	<g opacity="0.3">
		<circle fill="#8C7965" cx="126.9" cy="44.8" r="9.4"/>
	</g>
	<g>
		<path fill="#FFF1CF" d="M124.8,51.1c-4.6,0-8.3-3.7-8.3-8.3s3.7-8.3,8.3-8.3c4.6,0,8.3,3.7,8.3,8.3S129.4,51.1,124.8,51.1z"/>
		<path fill="#8C7965" d="M124.8,35.5c4,0,7.3,3.3,7.3,7.3s-3.3,7.3-7.3,7.3c-4,0-7.3-3.3-7.3-7.3S120.8,35.5,124.8,35.5
			 M124.8,33.4c-5.2,0-9.4,4.2-9.4,9.4s4.2,9.4,9.4,9.4c5.2,0,9.4-4.2,9.4-9.4S129.9,33.4,124.8,33.4L124.8,33.4z"/>
	</g>
	<g>
		<g>
			<g>
				<path fill="#8C7965" d="M125.8,28.2c0,0.6-0.5,1-1,1l0,0c-0.6,0-1-0.5-1-1v-6.2c0-0.6,0.5-1,1-1l0,0c0.6,0,1,0.5,1,1V28.2z"/>
			</g>
			<g>
				<path fill="#8C7965" d="M125.8,63.6c0,0.6-0.5,1-1,1l0,0c-0.6,0-1-0.5-1-1v-6.2c0-0.6,0.5-1,1-1l0,0c0.6,0,1,0.5,1,1V63.6z"/>
			</g>
		</g>
		<g>
			<g>
				<path fill="#8C7965" d="M110.2,41.7c0.6,0,1,0.5,1,1l0,0c0,0.6-0.5,1-1,1H104c-0.6,0-1-0.5-1-1l0,0c0-0.6,0.5-1,1-1H110.2z"/>
			</g>
			<g>
				<path fill="#8C7965" d="M145.6,41.7c0.6,0,1,0.5,1,1l0,0c0,0.6-0.5,1-1,1h-6.2c-0.6,0-1-0.5-1-1l0,0c0-0.6,0.5-1,1-1H145.6z"/>
			</g>
		</g>
	</g>
	<g>
		<path fill="#8C7965" d="M137.7,31.3c-0.4,0.4-1.1,0.4-1.5,0l0,0c-0.4-0.4-0.4-1.1,0-1.5l0.6-0.6c0.4-0.4,1.1-0.4,1.5,0l0,0
			c0.4,0.4,0.4,1.1,0,1.5L137.7,31.3z"/>
	</g>
	<g>
		<path fill="#8C7965" d="M112.7,56.3c-0.4,0.4-1.1,0.4-1.5,0l0,0c-0.4-0.4-0.4-1.1,0-1.5l0.6-0.6c0.4-0.4,1.1-0.4,1.5,0l0,0
			c0.4,0.4,0.4,1.1,0,1.5L112.7,56.3z"/>
	</g>
	<g>
		<path fill="#8C7965" d="M113.3,29.8c0.4,0.4,0.4,1.1,0,1.5l0,0c-0.4,0.4-1.1,0.4-1.5,0l-0.6-0.6c-0.4-0.4-0.4-1.1,0-1.5l0,0
			c0.4-0.4,1.1-0.4,1.5,0L113.3,29.8z"/>
	</g>
	<g>
		<path fill="#8C7965" d="M138.3,54.8c0.4,0.4,0.4,1.1,0,1.5l0,0c-0.4,0.4-1.1,0.4-1.5,0l-0.6-0.6c-0.4-0.4-0.4-1.1,0-1.5l0,0
			c0.4-0.4,1.1-0.4,1.5,0L138.3,54.8z"/>
	</g>
</g>
<g>
	<path opacity="0.3" fill="#8C7965" d="M127.1,85c-3.4,0-6.1,2.7-6.1,6.1c0,3.4,2.7,6.1,6.1,6.1c3.4,0,6.1-2.7,6.1-6.1
		C133.2,87.7,130.5,85,127.1,85z M127.1,87.1L127.1,87.1c-0.6,0-1.1,0.1-1.6,0.3C126,87.2,126.5,87.1,127.1,87.1z M123.4,89.5
		c-0.2,0.5-0.3,1-0.3,1.6l0,0C123,90.5,123.2,90,123.4,89.5z M125.5,94.8c0.5,0.2,1,0.3,1.6,0.3l0,0C126.5,95.1,126,95,125.5,94.8z
		 M131.1,91.1c0-0.6-0.1-1.1-0.3-1.6C131,90,131.1,90.5,131.1,91.1L131.1,91.1z"/>
	<g>
		<path fill="#FFF1CF" d="M124.8,93.9c-2.8,0-5.1-2.3-5.1-5.1s2.3-5.1,5.1-5.1s5.1,2.3,5.1,5.1S127.6,93.9,124.8,93.9z"/>
		<path fill="#8C7965" d="M124.8,84.7c2.2,0,4,1.8,4,4c0,2.2-1.8,4-4,4s-4-1.8-4-4C120.7,86.6,122.5,84.7,124.8,84.7 M124.8,82.7
			c-3.4,0-6.1,2.7-6.1,6.1c0,3.4,2.7,6.1,6.1,6.1c3.4,0,6.1-2.7,6.1-6.1C130.9,85.4,128.1,82.7,124.8,82.7L124.8,82.7z"/>
	</g>
	<g>
		<circle fill="#E67E22" cx="124.8" cy="88.8" r="2.9"/>
	</g>
</g>
<g>
	<path opacity="0.3" fill="#8C7965" d="M299.6,190.5c-3.4,0-6.1,2.7-6.1,6.1c0,3.4,2.7,6.1,6.1,6.1s6.1-2.7,6.1-6.1
		C305.7,193.2,303,190.5,299.6,190.5z M299.6,192.6L299.6,192.6c-0.6,0-1.1,0.1-1.6,0.3C298.5,192.7,299,192.6,299.6,192.6z
		 M295.9,195c-0.2,0.5-0.3,1-0.3,1.6l0,0C295.6,196,295.7,195.5,295.9,195z M298,200.3c0.5,0.2,1,0.3,1.6,0.3l0,0
		C299,200.6,298.5,200.5,298,200.3z M303.6,196.6c0-0.6-0.1-1.1-0.3-1.6C303.5,195.5,303.6,196,303.6,196.6L303.6,196.6z"/>
	<g>
		<path fill="#FFF1CF" d="M297.3,199.4c-2.8,0-5.1-2.3-5.1-5.1c0-2.8,2.3-5.1,5.1-5.1c2.8,0,5.1,2.3,5.1,5.1
			C302.4,197.1,300.1,199.4,297.3,199.4z"/>
		<path fill="#8C7965" d="M297.3,190.2c2.2,0,4,1.8,4,4c0,2.2-1.8,4-4,4s-4-1.8-4-4C293.2,192.1,295.1,190.2,297.3,190.2
			 M297.3,188.2c-3.4,0-6.1,2.7-6.1,6.1c0,3.4,2.7,6.1,6.1,6.1s6.1-2.7,6.1-6.1C303.4,190.9,300.7,188.2,297.3,188.2L297.3,188.2z"
			/>
	</g>
	<g>
		<circle fill="#E67E22" cx="297.3" cy="194.3" r="2.9"/>
	</g>
</g>
<g>
	<g>
		<g opacity="0.3">
			<path fill="#8C7965" d="M80.1,91.1c0,3.4-2.8,6.2-6.2,6.2h-52c-3.4,0-6.2-2.8-6.2-6.2V20.4c0-3.4,2.8-6.2,6.2-6.2h52
				c3.4,0,6.2,2.8,6.2,6.2V91.1z"/>
		</g>
		<g>
			<path fill="#8C7965" d="M78.1,89.1c0,3.4-2.8,6.2-6.2,6.2h-52c-3.4,0-6.2-2.8-6.2-6.2V18.3c0-3.4,2.8-6.2,6.2-6.2h52
				c3.4,0,6.2,2.8,6.2,6.2V89.1z"/>
		</g>
		<g>
			<rect x="17.7" y="18.3" fill="#FFF1CF" width="56.2" height="66.6"/>
		</g>
		<path fill="#FFF1CF" d="M45.8,93.2L45.8,93.2c-1.7,0-3.1-1.4-3.1-3.1l0,0c0-1.7,1.4-3.1,3.1-3.1h0c1.7,0,3.1,1.4,3.1,3.1l0,0
			C48.9,91.8,47.5,93.2,45.8,93.2z"/>
	</g>
	<rect x="34.4" y="49.5" fill="#31AA93" width="4.2" height="6.2"/>
	<rect x="40.6" y="43.3" fill="#31AA93" width="4.2" height="12.5"/>
	<rect x="46.8" y="41.2" fill="#31AA93" width="4.2" height="14.6"/>
	<rect x="53.1" y="35" fill="#31AA93" width="4.2" height="20.8"/>
	<circle fill="#31AA93" cx="37.5" cy="67.2" r="1"/>
	<circle fill="#31AA93" cx="43.7" cy="67.2" r="1"/>
	<circle fill="#31AA93" cx="50" cy="67.2" r="1"/>
	<circle fill="#31AA93" cx="56.2" cy="67.2" r="1"/>
</g>
<g>
	<path opacity="0.3" fill="#8C7965" d="M339.2,243.7c-3,0-5.5,2.5-5.5,5.5s2.5,5.5,5.5,5.5c3,0,5.5-2.5,5.5-5.5
		S342.2,243.7,339.2,243.7z M340.8,246.2c-0.5-0.3-1-0.4-1.6-0.4l0,0C339.8,245.7,340.3,245.9,340.8,246.2z M339.2,252.6
		c-1.9,0-3.4-1.5-3.4-3.4l0,0C335.7,251.1,337.3,252.6,339.2,252.6c1.9,0,3.4-1.5,3.4-3.4c0-0.9-0.4-1.8-1-2.4c0.6,0.6,1,1.5,1,2.4
		C342.6,251.1,341.1,252.6,339.2,252.6z"/>
	<g>
		<path fill="#FFF1CF" d="M336.7,251.2c-2.5,0-4.5-2-4.5-4.5s2-4.5,4.5-4.5s4.5,2,4.5,4.5S339.2,251.2,336.7,251.2z"/>
		<path fill="#8C7965" d="M336.7,243.3c1.9,0,3.4,1.5,3.4,3.4c0,1.9-1.5,3.4-3.4,3.4c-1.9,0-3.4-1.5-3.4-3.4
			C333.3,244.8,334.8,243.3,336.7,243.3 M336.7,241.2c-3,0-5.5,2.5-5.5,5.5s2.5,5.5,5.5,5.5s5.5-2.5,5.5-5.5
			S339.7,241.2,336.7,241.2L336.7,241.2z"/>
	</g>
	<g>
		<g>
			<path fill="#8C7965" d="M348,236.6c-0.4,0.4-1.1,0.4-1.5,0l0,0c-0.4-0.4-0.4-1.1,0-1.5l0.6-0.6c0.4-0.4,1.1-0.4,1.5,0l0,0
				c0.4,0.4,0.4,1.1,0,1.5L348,236.6z"/>
		</g>
		<g>
			<path fill="#8C7965" d="M326,258.6c-0.4,0.4-1.1,0.4-1.5,0l0,0c-0.4-0.4-0.4-1.1,0-1.5l0.6-0.6c0.4-0.4,1.1-0.4,1.5,0l0,0
				c0.4,0.4,0.4,1.1,0,1.5L326,258.6z"/>
		</g>
		<g>
			<path fill="#8C7965" d="M326.6,235.1c0.4,0.4,0.4,1.1,0,1.5l0,0c-0.4,0.4-1.1,0.4-1.5,0l-0.6-0.6c-0.4-0.4-0.4-1.1,0-1.5l0,0
				c0.4-0.4,1.1-0.4,1.5,0L326.6,235.1z"/>
		</g>
		<g>
			<path fill="#8C7965" d="M348.6,257.1c0.4,0.4,0.4,1.1,0,1.5l0,0c-0.4,0.4-1.1,0.4-1.5,0l-0.6-0.6c-0.4-0.4-0.4-1.1,0-1.5l0,0
				c0.4-0.4,1.1-0.4,1.5,0L348.6,257.1z"/>
		</g>
	</g>
</g>
<g>
	<path opacity="0.3" fill="#8C7965" d="M40.2,243.7c-3,0-5.5,2.5-5.5,5.5s2.5,5.5,5.5,5.5s5.5-2.5,5.5-5.5S43.2,243.7,40.2,243.7z
		 M41.8,246.3c-0.5-0.3-1-0.4-1.6-0.4l0,0C40.8,245.8,41.3,246,41.8,246.3z M40.2,252.7c-1.9,0-3.4-1.5-3.4-3.4l0,0
		C36.8,251.1,38.3,252.7,40.2,252.7c1.9,0,3.4-1.5,3.4-3.4c0-0.9-0.4-1.8-1-2.4c0.6,0.6,1,1.5,1,2.4
		C43.6,251.1,42.1,252.7,40.2,252.7z"/>
	<g>
		<path fill="#FFF1CF" d="M37.7,251.2c-2.5,0-4.5-2-4.5-4.5s2-4.5,4.5-4.5s4.5,2,4.5,4.5S40.2,251.2,37.7,251.2z"/>
		<path fill="#8C7965" d="M37.7,243.4c1.9,0,3.4,1.5,3.4,3.4s-1.5,3.4-3.4,3.4c-1.9,0-3.4-1.5-3.4-3.4S35.8,243.4,37.7,243.4
			 M37.7,241.3c-3,0-5.5,2.5-5.5,5.5s2.5,5.5,5.5,5.5s5.5-2.5,5.5-5.5S40.8,241.3,37.7,241.3L37.7,241.3z"/>
	</g>
	<g>
		<g>
			<path fill="#8C7965" d="M49,236.6c-0.4,0.4-1.1,0.4-1.5,0l0,0c-0.4-0.4-0.4-1.1,0-1.5l0.6-0.6c0.4-0.4,1.1-0.4,1.5,0l0,0
				c0.4,0.4,0.4,1.1,0,1.5L49,236.6z"/>
		</g>
		<g>
			<path fill="#8C7965" d="M27,258.7c-0.4,0.4-1.1,0.4-1.5,0l0,0c-0.4-0.4-0.4-1.1,0-1.5l0.6-0.6c0.4-0.4,1.1-0.4,1.5,0l0,0
				c0.4,0.4,0.4,1.1,0,1.5L27,258.7z"/>
		</g>
		<g>
			<path fill="#8C7965" d="M27.6,235.2c0.4,0.4,0.4,1.1,0,1.5l0,0c-0.4,0.4-1.1,0.4-1.5,0l-0.6-0.6c-0.4-0.4-0.4-1.1,0-1.5l0,0
				c0.4-0.4,1.1-0.4,1.5,0L27.6,235.2z"/>
		</g>
		<g>
			<path fill="#8C7965" d="M49.6,257.2c0.4,0.4,0.4,1.1,0,1.5l0,0c-0.4,0.4-1.1,0.4-1.5,0l-0.6-0.6c-0.4-0.4-0.4-1.1,0-1.5l0,0
				c0.4-0.4,1.1-0.4,1.5,0L49.6,257.2z"/>
		</g>
	</g>
</g>
<g>
	<g>
		<circle fill="#FFF1CF" cx="195.7" cy="153.7" r="11.4"/>
		<polygon fill="#FFF1CF" points="195.7,164.1 193.4,164.1 195.7,170.3 198,164.1 		"/>
	</g>
	<g>
		<path fill="none" stroke="#8C7965" stroke-width="2.0805" stroke-linecap="round" stroke-miterlimit="10" d="M193.9,159.1
			c0.5-0.5,1.1-0.7,1.8-0.7c0.6,0,1.2,0.2,1.6,0.6"/>
		<path fill="none" stroke="#8C7965" stroke-width="2.0805" stroke-linecap="round" stroke-miterlimit="10" d="M191,155.5
			c1.3-1.1,2.9-1.7,4.7-1.7c1.8,0,3.4,0.6,4.7,1.7"/>
		<path fill="none" stroke="#8C7965" stroke-width="2.0805" stroke-linecap="round" stroke-miterlimit="10" d="M188,151.9
			c2.1-1.8,4.8-2.8,7.7-2.8s5.6,1.1,7.7,2.8"/>
	</g>
</g>
<g>
	<path opacity="0.3" fill="#8C7965" d="M173,190.6c-3.4,0-6.1,2.7-6.1,6.1s2.7,6.1,6.1,6.1s6.1-2.7,6.1-6.1S176.3,190.6,173,190.6z
		 M173,192.7L173,192.7c-0.6,0-1.1,0.1-1.6,0.3C171.9,192.8,172.4,192.7,173,192.7z M169.2,195.1c-0.2,0.5-0.3,1-0.3,1.6l0,0
		C168.9,196.2,169,195.6,169.2,195.1z M171.4,200.4c0.5,0.2,1,0.3,1.6,0.3l0,0C172.4,200.8,171.9,200.6,171.4,200.4z M177,196.7
		c0-0.6-0.1-1.1-0.3-1.6C176.9,195.6,177,196.2,177,196.7L177,196.7z"/>
	<g>
		<path fill="#FFF1CF" d="M170.7,199.5c-2.8,0-5.1-2.3-5.1-5.1c0-2.8,2.3-5.1,5.1-5.1c2.8,0,5.1,2.3,5.1,5.1
			C175.7,197.2,173.5,199.5,170.7,199.5z"/>
		<path fill="#8C7965" d="M170.7,190.4c2.2,0,4,1.8,4,4c0,2.2-1.8,4-4,4s-4-1.8-4-4C166.6,192.2,168.4,190.4,170.7,190.4
			 M170.7,188.3c-3.4,0-6.1,2.7-6.1,6.1c0,3.4,2.7,6.1,6.1,6.1s6.1-2.7,6.1-6.1C176.8,191,174,188.3,170.7,188.3L170.7,188.3z"/>
	</g>
	<g>
		<circle fill="#31AA93" cx="170.7" cy="194.4" r="2.9"/>
	</g>
</g>
<g>
	<g>
		<path opacity="0.3" fill="#8C7965" d="M206.5,198.4c-0.1-0.6-0.2-1.2-0.3-1.8c-0.1-0.6-0.6-1-1.2-0.9c-0.6,0.1-1,0.6-0.9,1.2
			c0.1,1.2,0.3,2.4,0.5,3.5C205.3,199.7,205.9,199,206.5,198.4z"/>
		<path opacity="0.3" fill="#8C7965" d="M225.3,188.7c0.4-0.7,0.7-1.4,1.1-2.1c0.3-0.5,0.1-1.1-0.4-1.4c-0.5-0.3-1.1-0.1-1.4,0.4
			c-0.7,1.2-1.3,2.4-1.8,3.6C223.6,189,224.4,188.8,225.3,188.7z"/>
		<path opacity="0.3" fill="#8C7965" d="M267.3,209.8c-1.5-0.6-2.9-1-4.3-1.4c-3-6.6-8.1-12.1-14.3-15.6c0.8-0.3,1.6-0.7,2.5-1
			c0.5-0.2,0.8-0.8,0.6-1.3c-0.2-0.5-0.8-0.8-1.3-0.6c-1.5,0.5-2.9,1.1-4.2,1.8c-4.4-2.1-9.3-3.2-14.5-3.2c-0.4,0-0.8,0-1.2,0.1
			c17.7,0.3,31.9,14.7,31.9,32.5c0,4.9-1.1,9.5-3,13.6c-1.9,4.4-4.8,8.4-8.5,11.4c0-0.1,0-0.1,0-0.2c-0.7,0.6-1.4,1.1-2.1,1.6
			c0,0.1,0,0.1,0,0.2c-1.6,1.1-3.4,2.1-5.2,2.9c-4.2,2-8.8,3.1-13.8,3.1c-17.9,0-32.4-14.4-32.5-32.2c-0.7-0.6-1.3-1.1-2-1.7
			c-0.4-0.4-1.1-0.4-1.5,0c-0.4,0.4-0.4,1.1,0,1.5c1.2,1.1,2.3,2,3.5,2.9c0.3,7.5,2.9,14.4,7.3,19.9c-0.9,0-1.8,0-2.7,0
			c-0.6,0-1.1,0.4-1.1,1c0,0.6,0.4,1.1,1,1.1c0.8,0,1.6,0.1,2.4,0.1c0.7,0,1.5,0,2.2-0.1c4.8,5.2,11.2,9,18.4,10.4
			c-0.7,0.6-1.3,1.2-2.1,1.7c-0.5,0.4-0.5,1-0.2,1.5c0.2,0.3,0.5,0.4,0.8,0.4c0.2,0,0.4-0.1,0.6-0.2c1.2-1,2.4-2,3.4-3
			c1.4,0.2,2.7,0.3,4.1,0.3c6.1,0,11.7-1.6,16.7-4.4c-0.1,0.9-0.3,1.8-0.5,2.7c-0.1,0.6,0.2,1.1,0.8,1.2c0.1,0,0.1,0,0.2,0
			c0.5,0,0.9-0.3,1-0.8c0.3-1.5,0.5-3,0.7-4.5c6-4,10.6-9.8,13.2-16.6c0.5,0.8,0.9,1.5,1.4,2.3c0.2,0.3,0.5,0.5,0.9,0.5
			c0.2,0,0.3,0,0.5-0.1c0.5-0.3,0.7-0.9,0.4-1.4c-0.8-1.4-1.6-2.6-2.4-3.9c0.9-3,1.3-6.2,1.3-9.4c0-4.1-0.8-8.1-2.1-11.8
			c0.9,0.3,1.7,0.5,2.6,0.9c0.5,0.2,1.1-0.1,1.3-0.6C268.1,210.6,267.8,210,267.3,209.8z"/>
	</g>
	<g>
		<g>
			<path fill="none" stroke="#8C7965" stroke-width="2.0805" stroke-linecap="round" stroke-miterlimit="10" d="M229.5,220.5
				c0,0-20.8-10.9-6.2-36.6"/>
			<path fill="none" stroke="#8C7965" stroke-width="2.0805" stroke-linecap="round" stroke-miterlimit="10" d="M229.5,220.5
				c0,0-8.7-21.8,19-31.9"/>
			<path fill="none" stroke="#8C7965" stroke-width="2.0805" stroke-linecap="round" stroke-miterlimit="10" d="M229.5,220.5
				c0,0,7.5-22.3,35.2-11.9"/>
			<path fill="none" stroke="#8C7965" stroke-width="2.0805" stroke-linecap="round" stroke-miterlimit="10" d="M229.5,220.5
				c0,0,20.2-12,34.5,13.8"/>
			<path fill="none" stroke="#8C7965" stroke-width="2.0805" stroke-linecap="round" stroke-miterlimit="10" d="M229.5,220.5
				c0,0,23.2,4,17.2,32.9"/>
			<path fill="none" stroke="#8C7965" stroke-width="2.0805" stroke-linecap="round" stroke-miterlimit="10" d="M229.5,220.5
				c0,0,15,18-8.2,36.2"/>
			<path fill="none" stroke="#8C7965" stroke-width="2.0805" stroke-linecap="round" stroke-miterlimit="10" d="M229.5,220.5
				c0,0-0.3,23.5-29.8,22.2"/>
			<path fill="none" stroke="#8C7965" stroke-width="2.0805" stroke-linecap="round" stroke-miterlimit="10" d="M229.5,220.5
				c0,0-15.5,17.7-37-2.5"/>
			<path fill="none" stroke="#8C7965" stroke-width="2.0805" stroke-linecap="round" stroke-miterlimit="10" d="M229.5,220.5
				c0,0-23.3,3.4-26.6-25.9"/>
		</g>
		<path fill="#8C7965" d="M229.5,188.3c17.8,0,32.2,14.4,32.2,32.2s-14.4,32.2-32.2,32.2c-17.8,0-32.2-14.4-32.2-32.2
			S211.6,188.3,229.5,188.3 M229.5,186.2c-18.9,0-34.3,15.4-34.3,34.3s15.4,34.3,34.3,34.3s34.3-15.4,34.3-34.3
			S248.4,186.2,229.5,186.2L229.5,186.2z"/>
		<g>
			<path fill="#FFF1CF" d="M229.5,228.8c-4.6,0-8.3-3.7-8.3-8.3s3.7-8.3,8.3-8.3s8.3,3.7,8.3,8.3S234,228.8,229.5,228.8z"/>
			<path fill="#8C7965" d="M229.5,213.2c4,0,7.3,3.3,7.3,7.3c0,4-3.3,7.3-7.3,7.3c-4,0-7.3-3.3-7.3-7.3
				C222.2,216.5,225.4,213.2,229.5,213.2 M229.5,211.2c-5.2,0-9.4,4.2-9.4,9.4c0,5.2,4.2,9.4,9.4,9.4c5.2,0,9.4-4.2,9.4-9.4
				C238.8,215.4,234.6,211.2,229.5,211.2L229.5,211.2z"/>
		</g>
		<g>
			<circle fill="#8C7965" cx="229.5" cy="220.5" r="5.2"/>
		</g>
		<g>
			<g>
				<path fill="#FFF1CF" d="M229.5,190.4c16.6,0,30.2,13.5,30.2,30.2s-13.5,30.2-30.2,30.2s-30.2-13.5-30.2-30.2
					S212.8,190.4,229.5,190.4 M229.5,188.3c-17.8,0-32.2,14.4-32.2,32.2s14.4,32.2,32.2,32.2c17.8,0,32.2-14.4,32.2-32.2
					S247.3,188.3,229.5,188.3L229.5,188.3z"/>
			</g>
		</g>
	</g>
</g>
</svg>
