<?xml version="1.0" encoding="utf-8"?>
<!-- Generator: Adobe Illustrator 19.1.0, SVG Export Plug-In . SVG Version: 6.00 Build 0)  -->
<svg version="1.1" id="Livello_1" xmlns="http://www.w3.org/2000/svg" xmlns:xlink="http://www.w3.org/1999/xlink" x="0px" y="0px"
	 width="360px" height="270px" viewBox="-240 163.3 360 270" style="enable-background:new -240 163.3 360 270;"
	 xml:space="preserve">
<style type="text/css">
	.st0{fill:#FFFFFF;}
</style>
<rect x="-240" y="163.3" class="st0" width="360" height="270"/>
<path d="M-60,232.9c0.8,0,1.5,0.3,2,0.8l17,16.9l-4,3.9l-11-10.9l-1.2-1.2v1.8v29.5h-5.6v-29.5v-1.8l-1.2,1.2l-11,10.9l-4-3.9
	l17-16.9C-61.4,233.2-60.7,232.9-60,232.9 M-25.5,264.8v30.6c0,3.6-2.8,6.4-6.3,6.5h-55.6v0l-0.7-0.1c-3.5-0.4-6.4-3.3-6.5-6.4
	v-30.6h5.6v30.8v0.7h0.7h56.4h0.7v-0.7v-30.8H-25.5"/>
<path d="M-155.9,330.9h2.2v7.5c0,3.2-2.4,4.3-5,4.3c-2.6,0-4.9-1-4.9-4.3v-7.6h2.3v7.2c0,2.2,0.9,2.8,2.6,2.8c1.7,0,2.6-0.8,2.6-2.8
	C-155.9,338.1-155.9,330.9-155.9,330.9z"/>
<path d="M-150.3,330.9h4.1c3.1,0,4.3,1.6,4.3,3.9c0,2.4-1.6,4.1-4.4,4.1h-1.7v3.7h-2.3L-150.3,330.9L-150.3,330.9z M-144.4,334.9
	c0-1.2-0.4-2.1-2.1-2.1h-1.5v4.1h1.6C-145.1,337-144.4,336.4-144.4,334.9z"/>
<path d="M-137.1,330.9v9.7h4.8v2h-7.1v-11.7H-137.1z"/>
<path d="M-119.5,336.8c0,3.4-2.1,6-5.7,6c-3.4,0-5.6-2.1-5.6-5.9c0-3.5,2.1-6.1,5.6-6.1C-121.8,330.7-119.5,332.5-119.5,336.8z
	 M-121.9,336.8c0-3-1-4.1-3.2-4.1c-2.1,0-3.2,1.2-3.2,4.2c0,2.6,0.9,4,3.1,4C-123,340.9-121.9,339.5-121.9,336.8z"/>
<path d="M-118.1,342.6l4.1-11.7h2.6l4.1,11.7h-2.5l-0.9-2.7h-4.2l-0.8,2.7H-118.1z M-111.8,336.5l-1-3.4l-1,3.4l-0.5,1.5h3
	L-111.8,336.5z"/>
<path d="M-105.2,330.9h4.3c4.3,0,5.9,2.3,5.9,5.7c0,3.4-1.2,6.1-5.9,6.1h-4.3V330.9z M-102.9,332.8v7.8h2.1c2.7,0,3.3-1.5,3.3-3.7
	c0-2.3-0.7-4.1-3.5-4.1H-102.9z"/>
<path d="M-89,342.6l4.1-11.7h2.6l4.1,11.7h-2.5l-0.9-2.7h-4.2l-0.8,2.7H-89z M-82.7,336.5l-1-3.4l-1,3.4l-0.5,1.5h3L-82.7,336.5z"/>
<path d="M-62.7,341.9c-1.2,0.6-2.5,0.9-3.9,0.9c-3.5,0-5.5-2-5.5-6c0-3.9,2.5-6.1,5.9-6.1c1.2,0,2.5,0.3,3.5,0.9l-0.8,2.1
	c-0.9-0.7-1.9-1-2.8-1c-2,0-3.3,1.4-3.3,4.1c0,2.7,1.1,4.1,3.3,4.1c1.1,0,2.2-0.5,3-1L-62.7,341.9z"/>
<path d="M-49.5,336.8c0,3.4-2.1,6-5.7,6c-3.4,0-5.6-2.1-5.6-5.9c0-3.5,2.1-6.1,5.6-6.1C-51.9,330.7-49.5,332.5-49.5,336.8z
	 M-52,336.8c0-3-1-4.1-3.2-4.1c-2.1,0-3.2,1.2-3.2,4.2c0,2.6,0.9,4,3.1,4C-53.1,340.9-52,339.5-52,336.8z"/>
<path d="M-43.8,336.9l1,3.7l1-3.7l1.7-6h2.4l-3.8,11.7h-2.7l-3.9-11.7h2.4L-43.8,336.9z"/>
<path d="M-28.1,330.9v1.9h-5.3v2.8h4.7v1.9h-4.7v3.1h5.2v2h-7.6v-11.7L-28.1,330.9L-28.1,330.9z"/>
<path d="M-25.1,330.9h4c3.1,0,4.3,1.5,4.3,3.8c0,1.6-0.7,2.8-2,3.4l2.7,4.5h-2.8l-2.2-4h-1.7v4h-2.3L-25.1,330.9L-25.1,330.9z
	 M-19.3,334.7c0-1.3-0.5-1.9-2.1-1.9h-1.4v3.8h1.5C-20.1,336.7-19.3,336.2-19.3,334.7z"/>
<path d="M-6.6,330.9v11.7h-2.3v-11.7H-6.6z"/>
<path d="M7.2,334.7L6,338.2l-1.6,4.4H1.9l-1.6-4.2l-1.3-3.6l0,3.4v4.4h-2.1v-11.7h2.8l1.9,4.9l1.6,4.6l1.6-4.7l1.9-4.9h2.7v11.7H7.2
	L7.2,334.7L7.2,334.7z"/>
<path d="M11.4,342.6l4.1-11.7h2.6l4.1,11.7h-2.5l-0.9-2.7h-4.2l-0.8,2.7H11.4z M17.8,336.5l-1-3.4l-1,3.4l-0.5,1.5h3L17.8,336.5z"/>
<path d="M33.3,336.8v4.8c-1.2,0.7-2.7,1.1-4.1,1.1c-3.4,0-5.6-1.9-5.6-6c0-4.1,2.7-6,6-6c1.3,0,2.5,0.3,3.5,0.9l-0.8,2.1
	c-0.9-0.7-1.9-1.1-2.8-1.1c-2.1,0-3.5,1.2-3.5,4.1c0,3.1,1.5,4.2,3.5,4.2c0.5,0,0.9-0.1,1.4-0.2v-3.9H33.3z"/>
<path d="M43.9,330.9v1.9h-5.3v2.8h4.7v1.9h-4.7v3.1h5.2v2h-7.6v-11.7L43.9,330.9L43.9,330.9z"/>
</svg>
