<?xml version="1.0" encoding="utf-8"?>
<!-- Generator: Adobe Illustrator 19.2.1, SVG Export Plug-In . SVG Version: 6.00 Build 0)  -->
<svg version="1.1" id="Layer_1" xmlns="http://www.w3.org/2000/svg" xmlns:xlink="http://www.w3.org/1999/xlink" x="0px" y="0px"
	 width="349px" height="108.5px" viewBox="0 0 349 108.5" enable-background="new 0 0 349 108.5" xml:space="preserve">
<g id="createlogo" opacity="0.6">
</g>
<g id="createlogo_1_">
</g>
<path fill="#04979C" d="M134.4,39.389c0-16.185-13.652-29.352-30.432-29.352c-1.549,0-3.124,0.106-4.682,0.331
	c-13.04,1.86-21.766,11.24-26.65,18.433c-4.901-7.193-13.627-16.573-26.663-18.433c-1.558-0.226-3.137-0.331-4.682-0.331
	c-16.789,0-30.437,13.167-30.437,29.352c0,16.187,13.648,29.346,30.424,29.346c1.558,0,3.137-0.097,4.694-0.321
	c13.036-1.87,21.762-11.254,26.663-18.454c4.884,7.2,13.61,16.584,26.65,18.454c1.558,0.224,3.132,0.321,4.694,0.321
	C120.757,68.734,134.4,55.576,134.4,39.389 M44.496,58.107c-1.064,0.154-2.149,0.234-3.217,0.234
	c-11.035,0-20.018-8.51-20.018-18.952c0-10.448,8.983-18.959,20.031-18.959c1.06,0,2.14,0.087,3.208,0.232
	c12.284,1.754,19.807,13.87,22.357,18.72C64.303,44.246,56.785,56.355,44.496,58.107 M78.407,39.389
	c2.55-4.857,10.068-16.972,22.353-18.726c1.064-0.146,2.153-0.232,3.208-0.232c11.043,0,20.027,8.51,20.027,18.959
	c0,10.442-8.983,18.952-20.014,18.952c-1.064,0-2.149-0.08-3.221-0.234C88.475,56.355,80.948,44.235,78.407,39.389"/>
<rect x="32.904" y="36.52" fill="#04979C" width="18.275" height="5.889"/>
<polygon fill="#04979C" points="105.994,42.409 112.17,42.409 112.17,36.52 105.994,36.52 105.994,30.323 100.088,30.323 
	100.088,36.52 93.904,36.52 93.904,42.409 100.088,42.409 100.088,48.607 105.994,48.607 "/>
<path fill="#04979C" d="M19.501,77.464l-5.336,17h4.306l0.87-3.479h4.888l0.941,3.479h4.47l-5.412-17H19.501z M20.146,87.72
	l1.545-6.227l1.676,6.227H20.146z"/>
<path fill="#04979C" d="M45.665,83.142c0-3.267-1.773-5.678-6.48-5.678h-6.851v17h4.209v-5.387h2.119l2.554,5.387h4.973
	l-3.318-6.225C44.724,87.245,45.665,85.477,45.665,83.142 M38.772,85.703h-2.229v-4.798h2.145c1.963,0,2.499,0.754,2.499,2.261
	C41.186,85.055,40.228,85.703,38.772,85.703"/>
<path fill="#04979C" d="M54.636,77.464h-5.568v17h5.593c7.214,0,8.439-4.635,8.439-8.654C63.1,80.472,60.989,77.464,54.636,77.464
	 M54.868,90.986h-1.592V80.903h1.228c3.761,0,4.103,1.771,4.103,5.093C58.608,88.869,58.351,90.986,54.868,90.986"/>
<path fill="#04979C" d="M75.557,87.847c0,2.59-0.709,3.447-2.622,3.447c-1.591,0-2.592-0.65-2.592-3.47V77.465h-4.205V88.61
	c0,5.146,3.715,6.117,6.619,6.117c3.006,0,6.847-1.068,6.847-6.092v-11.17h-4.048L75.557,87.847L75.557,87.847z"/>
<polygon fill="#04979C" points="83.367,80.943 87.762,80.943 87.762,90.986 83.367,90.986 83.367,94.464 96.394,94.464 
	96.394,90.986 91.97,90.986 91.97,80.943 96.394,80.943 96.394,77.464 83.367,77.464 "/>
<polygon fill="#04979C" points="109.962,87.67 104.453,77.464 99.864,77.464 99.864,94.464 103.85,94.464 103.82,83.586 
	109.625,94.464 113.884,94.464 113.884,77.464 109.962,77.464 "/>
<path fill="#04979C" d="M123.8,77.243c-5.154,0-7.113,3.782-7.113,8.909c0,5.623,2.25,8.574,7.134,8.574
	c5.467,0,7.265-3.839,7.265-8.757C131.086,79.48,128.638,77.243,123.8,77.243 M123.821,91.294c-2.427,0-2.668-1.718-2.668-5.142
	c0-4.154,0.397-5.492,2.647-5.492c2.482,0,2.82,1.157,2.82,5.309C126.62,89.888,126.282,91.294,123.821,91.294"/>
<g>
	<path fill="#04979C" d="M134.32,11.816c-0.173-0.401-0.401-0.745-0.697-1.036c-0.287-0.291-0.629-0.521-1.017-0.696
		c-0.393-0.171-0.815-0.258-1.267-0.258c-0.456,0-0.878,0.087-1.266,0.258c-0.393,0.175-0.735,0.405-1.022,0.696
		c-0.291,0.291-0.523,0.635-0.697,1.036c-0.173,0.397-0.258,0.834-0.258,1.307c0,0.454,0.084,0.884,0.258,1.292
		c0.173,0.409,0.405,0.758,0.697,1.047c0.287,0.293,0.629,0.526,1.022,0.699c0.388,0.173,0.811,0.257,1.266,0.257
		c0.452,0,0.874-0.084,1.267-0.257c0.388-0.173,0.73-0.405,1.017-0.699c0.295-0.289,0.523-0.637,0.697-1.047
		c0.169-0.407,0.257-0.838,0.257-1.292C134.578,12.65,134.489,12.213,134.32,11.816z M133.607,14.121
		c-0.127,0.308-0.308,0.576-0.536,0.806c-0.232,0.232-0.494,0.418-0.785,0.553c-0.291,0.137-0.608,0.205-0.946,0.205
		c-0.342,0-0.663-0.068-0.962-0.205c-0.3-0.135-0.561-0.321-0.785-0.553c-0.22-0.23-0.393-0.498-0.523-0.806
		c-0.127-0.308-0.19-0.642-0.19-0.998c0-0.359,0.063-0.697,0.19-1.013c0.131-0.317,0.304-0.589,0.523-0.819
		c0.224-0.23,0.485-0.412,0.785-0.538c0.3-0.129,0.621-0.194,0.962-0.194c0.338,0,0.654,0.065,0.946,0.194
		c0.291,0.127,0.553,0.308,0.785,0.538c0.228,0.23,0.409,0.502,0.536,0.819s0.19,0.654,0.19,1.013
		C133.797,13.48,133.733,13.813,133.607,14.121z"/>
	<path fill="#04979C" d="M132.045,13.442c0.186-0.093,0.325-0.22,0.426-0.382c0.097-0.163,0.148-0.348,0.148-0.545
		c0-0.308-0.11-0.578-0.329-0.804c-0.215-0.226-0.587-0.342-1.114-0.342c-0.198,0-0.376,0.004-0.532,0.015
		c-0.156,0.011-0.304,0.023-0.447,0.042v3.24h0.815v-1.062h0.329l0.57,1.062h0.929L132.045,13.442z M131.23,13.003
		c-0.11,0-0.194-0.006-0.245-0.025v-0.872c0.051-0.017,0.144-0.027,0.27-0.027c0.346,0,0.519,0.152,0.519,0.462
		C131.775,12.851,131.593,13.003,131.23,13.003z"/>
</g>
<rect x="145.825" y="26.845" fill="#E75300" width="190.689" height="27.568"/>
<path fill="#FFFFFF" d="M153.245,31.938h5.749c4.352,0,5.994,2.053,5.994,5.666c0,3.586-2.436,5.42-5.584,5.42h-4.763v6.707h-1.396
	V31.938z M163.511,37.714c0-3.011-1.342-4.462-4.407-4.462h-4.462v8.541h4.599C161.622,41.793,163.511,40.808,163.511,37.714z"/>
<path fill="#FFFFFF" d="M169.613,31.938h5.201c4.353,0,6.022,1.643,6.022,5.256c0,2.519-1.424,4.188-3.477,4.845l4.517,7.692h-1.67
	l-4.298-7.391h-4.899v7.391h-1.396V31.938z M179.358,37.304c0-3.012-1.369-4.052-4.435-4.052h-3.914v7.802h4.051
	C177.442,41.054,179.358,40.205,179.358,37.304z"/>
<path fill="#FFFFFF" d="M199.094,40.862c0,5.338-2.765,9.143-7.501,9.143c-5.283,0-7.309-3.641-7.309-9.17
	c0-5.557,2.491-9.144,7.5-9.144C197.04,31.691,199.094,35.223,199.094,40.862z M197.615,40.862c0-4.764-1.396-7.884-5.831-7.884
	c-4.489,0-6.021,2.874-6.021,7.856c0,4.872,1.286,7.884,5.83,7.884C195.945,48.719,197.615,45.297,197.615,40.862z"/>
<path fill="#FFFFFF" d="M202.322,31.938h10.155v10.43c0,6.953-6.323,7.856-9.279,8.267l-0.247-1.231
	c2.327-0.384,8.131-0.849,8.131-7.062v-9.089h-8.76V31.938z"/>
<path fill="#FFFFFF" d="M230.625,31.938v1.313h-10.348v6.68h9.362v1.286h-9.362v7.199h10.348v1.314h-11.743V31.938H230.625z"/>
<path fill="#FFFFFF" d="M247.541,49.074c-1.149,0.603-3.039,0.931-4.928,0.931c-4.735,0-8.294-2.408-8.294-9.006
	c0-6.022,3.449-9.308,8.431-9.308c1.779,0,3.724,0.438,4.518,0.903l-0.493,1.479c-0.849-0.685-2.628-1.095-3.997-1.095
	c-4.708,0-6.98,2.983-6.98,7.966c0,5.256,2.354,7.774,6.871,7.774c1.834,0,3.86-0.493,4.489-0.903L247.541,49.074z"/>
<path fill="#FFFFFF" d="M264.566,33.252h-6.461v16.479h-1.396V33.252h-6.488v-1.313h14.345V33.252z"/>
<path fill="#FFFFFF" d="M296.453,31.938v17.793h-1.396v-8.596h-9.636v8.596h-1.396V31.938h1.396v7.911h9.636v-7.911H296.453z"/>
<path fill="#FFFFFF" d="M311.562,31.938h1.396v10.949c0,3.668-0.657,7.117-6.324,7.117c-5.584,0-6.296-2.929-6.296-6.815V31.938
	h1.396v11.223c0,4.188,1.286,5.612,4.927,5.612c3.751,0,4.9-1.752,4.9-5.886V31.938z"/>
<path fill="#FFFFFF" d="M323.359,49.731h-5.968V31.938h5.666c3.642,0,5.174,1.505,5.174,4.462c0,1.643-0.903,3.12-2.628,3.805v0.055
	c3.039,0.575,3.915,2.573,3.915,4.544C329.519,47.897,327.739,49.731,323.359,49.731z M322.976,33.252h-4.188v6.652h4.052
	c2.19,0,3.915-1.369,3.915-3.477C326.754,34.265,325.604,33.252,322.976,33.252z M318.787,41.136v7.281h4.6
	c3.284,0,4.653-1.04,4.653-3.586c0-2.545-1.752-3.695-4.9-3.695H318.787z"/>
</svg>
