<?xml version="1.0" encoding="utf-8"?>
<!-- Generator: Adobe Illustrator 19.2.1, SVG Export Plug-In . SVG Version: 6.00 Build 0)  -->
<svg version="1.1" id="Layer_1" xmlns="http://www.w3.org/2000/svg" xmlns:xlink="http://www.w3.org/1999/xlink" x="0px" y="0px"
	 width="192.5px" height="33px" viewBox="0 0 192.5 33" enable-background="new 0 0 192.5 33" xml:space="preserve">
<g id="createlogo" opacity="0.6">
</g>
<g id="createlogo_1_">
</g>
<path fill="#04979C" d="M54.408,16.345c0-6.423-5.416-11.654-12.082-11.654c-0.612,0-1.24,0.045-1.854,0.131
	c-5.181,0.737-8.646,4.462-10.588,7.319c-1.942-2.857-5.409-6.581-10.583-7.319c-0.619-0.086-1.242-0.131-1.858-0.131
	c-6.664,0-12.085,5.231-12.085,11.654C5.357,22.771,10.779,28,17.439,28c0.615,0,1.242-0.047,1.862-0.131
	c5.175-0.743,8.641-4.466,10.583-7.329c1.942,2.863,5.407,6.586,10.588,7.329C41.085,27.953,41.714,28,42.333,28
	C48.992,28,54.408,22.771,54.408,16.345z M18.717,23.777c-0.429,0.062-0.855,0.097-1.278,0.097c-4.385,0-7.952-3.38-7.952-7.53
	c0-4.148,3.566-7.527,7.955-7.527c0.421,0,0.848,0.034,1.275,0.093c4.881,0.698,7.865,5.508,8.877,7.433
	C26.579,18.275,23.593,23.083,18.717,23.777z M32.182,16.345c1.008-1.929,3.996-6.735,8.87-7.433
	c0.427-0.06,0.858-0.093,1.274-0.093c4.387,0,7.951,3.379,7.951,7.527c0,4.15-3.564,7.53-7.944,7.53
	c-0.421,0-0.855-0.035-1.282-0.097C36.176,23.083,33.19,18.273,32.182,16.345z"/>
<rect x="14.113" y="15.209" fill="#04979C" width="7.257" height="2.335"/>
<polygon fill="#04979C" points="43.132,17.544 45.589,17.544 45.589,15.209 43.132,15.209 43.132,12.747 40.792,12.747 
	40.792,15.209 38.331,15.209 38.331,17.544 40.792,17.544 40.792,20.006 43.132,20.006 "/>
<g>
	<path fill="#04979C" d="M55.276,5.151c-0.09-0.21-0.215-0.393-0.365-0.542c-0.148-0.15-0.328-0.271-0.53-0.361
		c-0.206-0.09-0.425-0.133-0.66-0.133c-0.236,0-0.458,0.043-0.662,0.133c-0.204,0.09-0.382,0.211-0.531,0.361
		c-0.149,0.149-0.273,0.333-0.363,0.542C52.077,5.359,52.03,5.583,52.03,5.83c0,0.234,0.047,0.462,0.135,0.671
		c0.09,0.218,0.214,0.397,0.363,0.55c0.149,0.153,0.328,0.273,0.531,0.361c0.204,0.091,0.427,0.137,0.662,0.137
		c0.236,0,0.454-0.045,0.66-0.137c0.202-0.088,0.381-0.208,0.53-0.361c0.149-0.153,0.275-0.333,0.365-0.55
		c0.088-0.21,0.133-0.438,0.133-0.671C55.409,5.583,55.364,5.359,55.276,5.151z M54.902,6.352c-0.065,0.161-0.16,0.299-0.28,0.419
		c-0.122,0.122-0.256,0.217-0.408,0.29c-0.15,0.069-0.313,0.107-0.492,0.107c-0.179,0-0.348-0.038-0.501-0.107
		c-0.161-0.073-0.292-0.168-0.41-0.29c-0.114-0.12-0.206-0.258-0.273-0.419c-0.065-0.161-0.101-0.333-0.101-0.522
		c0-0.187,0.036-0.363,0.101-0.526c0.067-0.168,0.159-0.307,0.273-0.428c0.118-0.122,0.249-0.215,0.41-0.282
		c0.153-0.066,0.322-0.101,0.501-0.101c0.179,0,0.342,0.035,0.492,0.101c0.152,0.067,0.287,0.161,0.408,0.282
		c0.12,0.122,0.215,0.26,0.28,0.428c0.069,0.163,0.105,0.339,0.105,0.526C55.006,6.019,54.971,6.191,54.902,6.352z"/>
	<path fill="#04979C" d="M54.088,5.997c0.096-0.045,0.168-0.116,0.219-0.2c0.054-0.084,0.08-0.179,0.08-0.282
		c0-0.161-0.058-0.301-0.171-0.419c-0.116-0.12-0.309-0.176-0.582-0.176c-0.105,0-0.196,0-0.277,0.008
		c-0.082,0.004-0.159,0.011-0.236,0.018v1.691h0.427V6.079h0.172l0.297,0.557H54.5L54.088,5.997z M53.663,5.769
		c-0.058,0-0.099-0.004-0.127-0.013V5.3c0.028-0.008,0.075-0.017,0.138-0.017c0.182,0,0.273,0.085,0.273,0.245
		C53.948,5.69,53.854,5.769,53.663,5.769z"/>
</g>
<rect x="60.562" y="6.272" fill="#D25627" width="126.936" height="20.41"/>
<path fill="#FFFFFF" d="M66.416,10.608h3.78c2.863,0,3.943,1.35,3.943,3.727c0,2.359-1.603,3.565-3.673,3.565h-3.133v4.411h-0.918
	V10.608z M73.168,14.407c0-1.98-0.883-2.935-2.899-2.935h-2.935v5.617h3.024C71.925,17.09,73.168,16.441,73.168,14.407z"/>
<path fill="#FFFFFF" d="M77.18,10.608h3.421c2.862,0,3.961,1.08,3.961,3.457c0,1.656-0.937,2.755-2.286,3.187l2.971,5.06h-1.099
	L81.32,17.45h-3.223v4.861H77.18V10.608z M83.589,14.137c0-1.98-0.899-2.664-2.916-2.664h-2.575v5.131h2.665
	C82.329,16.604,83.589,16.046,83.589,14.137z"/>
<path fill="#FFFFFF" d="M96.567,16.478c0,3.512-1.818,6.014-4.933,6.014c-3.476,0-4.808-2.395-4.808-6.031
	c0-3.655,1.638-6.014,4.934-6.014C95.218,10.446,96.567,12.769,96.567,16.478z M95.596,16.478c0-3.133-0.919-5.186-3.835-5.186
	c-2.953,0-3.962,1.891-3.962,5.168c0,3.205,0.847,5.186,3.836,5.186C94.497,21.646,95.596,19.395,95.596,16.478z"/>
<path fill="#FFFFFF" d="M98.689,10.608h6.68v6.859c0,4.573-4.159,5.168-6.104,5.438l-0.162-0.81c1.53-0.252,5.348-0.559,5.348-4.646
	v-5.978h-5.762V10.608z"/>
<path fill="#FFFFFF" d="M117.303,10.608v0.864h-6.806v4.393h6.158v0.847h-6.158v4.735h6.806v0.864h-7.724V10.608H117.303z"/>
<path fill="#FFFFFF" d="M128.427,21.88c-0.756,0.396-1.998,0.611-3.241,0.611c-3.114,0-5.455-1.584-5.455-5.924
	c0-3.961,2.269-6.121,5.546-6.121c1.17,0,2.448,0.288,2.971,0.594l-0.324,0.973c-0.559-0.45-1.729-0.721-2.629-0.721
	c-3.097,0-4.591,1.963-4.591,5.24c0,3.457,1.548,5.113,4.519,5.113c1.207,0,2.539-0.324,2.953-0.595L128.427,21.88z"/>
<path fill="#FFFFFF" d="M139.623,11.473h-4.249v10.839h-0.919V11.473h-4.267v-0.864h9.435V11.473z"/>
<path fill="#FFFFFF" d="M160.593,10.608v11.703h-0.919v-5.653h-6.338v5.653h-0.918V10.608h0.918v5.203h6.338v-5.203H160.593z"/>
<path fill="#FFFFFF" d="M170.528,10.608h0.918v7.202c0,2.412-0.433,4.681-4.159,4.681c-3.673,0-4.142-1.926-4.142-4.483v-7.399
	h0.919v7.382c0,2.755,0.846,3.691,3.24,3.691c2.467,0,3.224-1.152,3.224-3.871V10.608z"/>
<path fill="#FFFFFF" d="M178.285,22.312h-3.926V10.608h3.728c2.395,0,3.403,0.99,3.403,2.935c0,1.08-0.595,2.053-1.729,2.503v0.036
	c1.998,0.378,2.574,1.692,2.574,2.988C182.336,21.105,181.166,22.312,178.285,22.312z M178.033,11.473h-2.755v4.375h2.664
	c1.44,0,2.575-0.9,2.575-2.287C180.518,12.139,179.762,11.473,178.033,11.473z M175.278,16.658v4.789h3.024
	c2.161,0,3.061-0.685,3.061-2.358c0-1.675-1.152-2.431-3.223-2.431H175.278z"/>
</svg>
